<?xml version="1.0" standalone="no"?>
<!DOCTYPE svg PUBLIC "-//W3C//DTD SVG 1.1//EN" "http://www.w3.org/Graphics/SVG/1.1/DTD/svg11.dtd" >
<svg xmlns="http://www.w3.org/2000/svg">
<metadata></metadata>
<defs>
<font id="stsemiboldRegular" horiz-adv-x="1519" >
<font-face units-per-em="2048" ascent="1638" descent="-410" />
<missing-glyph horiz-adv-x="385" />
<glyph horiz-adv-x="0" />
<glyph unicode="&#xd;" horiz-adv-x="385" />
<glyph horiz-adv-x="0" />
<glyph horiz-adv-x="0" />
<glyph unicode=" "  horiz-adv-x="385" />
<glyph unicode="&#x09;" horiz-adv-x="385" />
<glyph unicode="&#xa0;" horiz-adv-x="385" />
<glyph unicode="!" horiz-adv-x="616" d="M113 1219v215h391v-215l-76 -773h-242zM115 172q0 78 56 132q55 54 136 54q126 0 177 -113q16 -34 16 -73q0 -74 -56 -132q-53 -54 -138 -54q-40 0 -74.5 14t-60.5 40q-56 56 -56 132z" />
<glyph unicode="&#x22;" horiz-adv-x="829" d="M49 1260v174h324v-174l-51 -322h-222zM457 1260v174h323v-174l-51 -322h-221z" />
<glyph unicode="#" horiz-adv-x="1130" d="M45 391v254h180l29 193h-143v254h180l51 342h240l-52 -342h170l52 342h239l-49 -342h143v-254h-182l-26 -193h143v-254h-180l-58 -391h-239l57 391h-172l-55 -391h-240l55 391h-143zM467 645h170l27 193h-170z" />
<glyph unicode="$" horiz-adv-x="1134" d="M37 1014q0 281 255 384q79 32 177 42v131h186v-127q194 -15 349 -101v-256h-146q-93 83 -203 101v-316q241 -64 334 -153q98 -94 98 -282.5t-114.5 -303.5t-335.5 -137v-205h-186v199q-239 11 -400 112v271h148q105 -111 252 -127v332q-218 66 -303 146 q-111 103 -111 290zM358 1051q0 -47 28 -74t83 -49v250q-111 -31 -111 -127zM637 260q106 37 106 131q0 55 -26.5 85t-79.5 48v-264z" />
<glyph unicode="%" horiz-adv-x="1771" d="M35 1065q0 191 117 293q106 94 266 94t266 -94q117 -104 117 -293q0 -187 -117 -295q-104 -96 -266 -96t-266 96q-117 107 -117 295zM256 -70l1010 1563h243l-1009 -1563h-244zM307 1062q0 -198 111 -198q110 0 110 198t-110 198q-111 0 -111 -198zM973 375 q0 186 117 291q103 94 266 94q162 0 264 -94q117 -107 117 -291q0 -187 -117 -295q-106 -98 -264 -98q-160 0 -266 98q-117 107 -117 295zM1243 371q0 -199 113 -199q110 0 110 199q0 198 -110 198q-113 0 -113 -198z" />
<glyph unicode="&#x26;" horiz-adv-x="1458" d="M41 410q0 260 295 403q-66 113 -66 221.5t32 181t96 124.5q134 112 360.5 112t347.5 -90v-248h-145q-66 66 -177 66q-63 0 -101 -33t-38 -87t24.5 -94t78.5 -98l260 -295q65 149 77 293h291v-100q-48 -219 -170 -420l224 -254v-92h-371l-92 100q-163 -116 -410.5 -116 t-381.5 115.5t-134 310.5zM408 461q0 -100 55 -159.5t172 -59.5q84 0 158 53l-306 340q-79 -74 -79 -174z" />
<glyph unicode="'" horiz-adv-x="421" d="M49 1260v174h324v-174l-51 -322h-222z" />
<glyph unicode="(" horiz-adv-x="720" d="M57 715q0 195 45 334t119 235q136 176 354 234h105v-228q-190 -67 -253 -332q-24 -100 -24 -241q0 -496 277 -594v-223h-105q-353 99 -473 478q-45 142 -45 337z" />
<glyph unicode=")" horiz-adv-x="720" d="M39 -100v223q276 97 276 594q0 379 -175 516q-50 39 -101 57v228h106q347 -92 473 -470q46 -139 46 -333.5t-45.5 -336.5t-118.5 -240q-132 -178 -355 -238h-106z" />
<glyph unicode="*" horiz-adv-x="823" d="M31 1057l82 248l96 -31l125 -98l-53 157v101h262v-101l-58 -157l129 98l97 31l80 -248l-95 -33l-153 6l133 -90l57 -80l-213 -151l-59 82l-49 159l-52 -159l-59 -82l-213 151l59 80l134 90l-154 -6z" />
<glyph unicode="+" horiz-adv-x="1093" d="M49 565v285h346v369h305v-369h344v-285h-344v-368h-305v368h-346z" />
<glyph unicode="," horiz-adv-x="481" d="M47 -84q137 18 137 82q0 29 -22 38q-115 46 -115 161q0 72 53.5 116.5t132.5 44.5q80 0 141.5 -54t61.5 -171q0 -332 -389 -369v152z" />
<glyph unicode="-" horiz-adv-x="626" d="M61 459v280h504v-280h-504z" />
<glyph unicode="." horiz-adv-x="481" d="M47 172q0 76 57 132q53 54 136 54q125 0 176 -113q16 -34 16 -73q0 -74 -56 -132q-53 -54 -137 -54q-40 0 -75 14t-60 40q-57 58 -57 132z" />
<glyph unicode="/" horiz-adv-x="753" d="M4 -29l473 1547h266v-72l-473 -1546h-266v71z" />
<glyph unicode="0" horiz-adv-x="1396" d="M55 717q0 352 193 552q177 183 450 183q274 0 451 -183q192 -199 192 -552q0 -356 -190 -552q-177 -183 -454 -183q-132 0 -248.5 46t-203.5 137q-190 199 -190 552zM451 709q0 -252 63 -356.5t183 -104.5t184.5 104.5t64.5 356.5q0 363 -142 440q-46 25 -106 25 q-186 0 -231 -249q-16 -89 -16 -216z" />
<glyph unicode="1" horiz-adv-x="815" d="M37 965v272l354 197h279v-1434h-394v1049l-157 -84h-82z" />
<glyph unicode="2" horiz-adv-x="1124" d="M41 0v299l395 373q125 115 177.5 190.5t52.5 146.5t-44 110.5t-135 39.5q-147 0 -264 -96h-141v262q211 127 455 127q526 0 526 -420q0 -199 -199 -398q-63 -63 -143 -132l-236 -207h578v-295h-1022z" />
<glyph unicode="3" horiz-adv-x="1103" d="M31 84v256h145q86 -86 252 -86q100 0 167 44t67 131t-53.5 127t-170.5 40h-116v256h102q231 0 231 162q0 156 -180 155q-142 0 -258 -79h-137v243q191 119 444 119q362 0 469 -212q37 -73 37 -192.5t-72.5 -196.5t-195.5 -112v-8q293 -48 293 -323q0 -205 -162 -317 q-157 -109 -430.5 -109t-431.5 102z" />
<glyph unicode="4" horiz-adv-x="1239" d="M41 299v299l639 836h367v-879h155v-256h-155v-299h-385v299h-621zM317 555h351v463h-9l-342 -455v-8z" />
<glyph unicode="5" horiz-adv-x="1126" d="M45 80v264h143q93 -88 254 -88q111 0 177.5 53t66.5 156q0 102 -51 148t-130 46q-118 0 -196 -81h-223v856h911v-295h-635v-295h7q96 76 262 76q310 0 411 -249q35 -85 35 -201t-43 -206t-123 -154q-162 -128 -429 -128t-437 98z" />
<glyph unicode="6" horiz-adv-x="1273" d="M55 686q0 367 194 566q194 200 544 200q198 0 348 -70v-274h-142q-80 59 -224.5 59t-223 -89t-98.5 -265q121 98 325 98q205 0 324 -111q125 -117 125 -325q0 -225 -152 -357q-155 -136 -413 -136q-279 0 -437 170q-170 183 -170 534zM446 608q6 -299 121 -360 q37 -19 86 -19q104 0 147.5 62.5t43.5 167.5q-1 207 -191 207q-114 0 -207 -58z" />
<glyph unicode="7" horiz-adv-x="1091" d="M39 1130v304h999v-324l-458 -1110h-390v123l539 999v8h-690z" />
<glyph unicode="8" horiz-adv-x="1257" d="M43 408q0 267 274 354v8q-217 74 -217 299q0 176 148 281q146 102 381 102q234 0 379 -102q149 -105 149 -281q0 -227 -215 -299v-8q272 -87 272 -354q0 -199 -149 -312.5t-436 -113.5t-436.5 113.5t-149.5 312.5zM418 435q0 -87 51 -146.5t158.5 -59.5t159 59.5 t51.5 146.5t-51.5 147.5t-159 60.5t-158.5 -60.5t-51 -147.5zM461 1036q0 -78 44 -120t123 -42t124 42t45 120t-45 121t-124 43t-123 -43t-44 -121z" />
<glyph unicode="9" horiz-adv-x="1273" d="M47 956.5q0 108.5 40 199.5t113 158q154 138 412 138q430 0 564 -391q45 -133 45 -318q0 -362 -187.5 -561.5t-556.5 -199.5q-211 0 -358 63v274h143q25 -20 81 -39.5t141 -19.5t146.5 22.5t101.5 66.5q72 79 89 261q-129 -92 -317 -92q-320 0 -423 248q-34 82 -34 190.5 zM430 967q1 -201 191 -201q109 0 206 55q-8 215 -59 298q-50 81 -147 81q-191 0 -191 -233z" />
<glyph unicode=":" horiz-adv-x="483" d="M49 172q0 79 55.5 132.5t137.5 53.5q125 0 176 -113q16 -34 16 -73q0 -74 -56 -132q-53 -54 -137 -54q-40 0 -75 14t-62 40q-55 54 -55 132zM49 752q0 80 55 134q57 54 138 54t136 -54q56 -57 56 -134t-56 -132q-56 -53 -137 -53t-136.5 53.5t-55.5 131.5z" />
<glyph unicode=";" horiz-adv-x="483" d="M45 -84q137 18 137 82q0 29 -22 38q-115 46 -115 161q0 72 53.5 116.5t134 44.5t141 -54t60.5 -171q0 -168 -95 -259t-294 -110v152zM49 752q0 80 55 134q57 54 138 54t136 -54q56 -57 56 -134t-56 -132q-56 -53 -137 -53t-136.5 53.5t-55.5 131.5z" />
<glyph unicode="&#x3c;" horiz-adv-x="964" d="M51 551v248l780 379h78v-277l-483 -221v-6l483 -223v-279h-78z" />
<glyph unicode="=" horiz-adv-x="1032" d="M55 287v272h922v-272h-922zM55 717v272h922v-272h-922z" />
<glyph unicode="&#x3e;" horiz-adv-x="964" d="M55 172v277l484 221v6l-484 221v281h78l782 -379v-248l-782 -379h-78z" />
<glyph unicode="?" horiz-adv-x="950" d="M33 1092v251q167 109 396.5 109t350.5 -97.5t121 -283.5q0 -165 -133 -288q-41 -38 -88 -72.5t-81 -62t-57 -57.5q-47 -60 -40 -145h-266q-20 124 0 184t48.5 100t85 92t103.5 108.5t47 120t-38 93.5t-99 30q-127 0 -211 -82h-139zM184 172q0 76 56 132q54 54 137 54 q81 0 136 -54q56 -54 56 -132q0 -76 -56 -132q-54 -54 -137 -54q-40 0 -75 14t-61 40q-56 58 -56 132z" />
<glyph unicode="@" horiz-adv-x="1806" d="M43 498q0 207 82 369.5t213 273t292 168t324.5 57.5t311 -45t258 -131t175 -213t64.5 -279.5t-44 -257t-117 -172.5q-146 -133 -368.5 -133t-270.5 129q-117 -127 -269 -127q-115 0 -183.5 74t-68.5 219q0 195 120 345q130 161 341 161q116 0 197 -86q29 37 61.5 55.5 t85.5 18.5h139l-110 -488q-10 -47 -2 -78.5t52 -31.5t84 21.5t70 65.5q66 94 66 275q0 230 -160 362q-160 130 -436 130q-278 0 -468 -169q-210 -187 -210 -519q0 -293 184 -445q164 -135 461 -135t504 135h74v-176q-96 -66 -253 -105.5t-330 -39.5t-327.5 44t-275.5 137 t-193.5 238.5t-72.5 352.5zM749.5 451.5q-0.5 -105.5 77.5 -105.5q72 0 125 57l72 310q-42 12 -82.5 12t-76.5 -23.5t-61 -62.5q-54 -82 -54.5 -187.5z" />
<glyph unicode="A" horiz-adv-x="1421" d="M39 0v92l457 1342h426l462 -1342v-92h-380l-101 324h-457l-96 -324h-311zM526 590h297l-147 483h-4z" />
<glyph unicode="B" horiz-adv-x="1284" d="M115 0v1434h536q268 0 400.5 -91.5t132.5 -283.5q0 -133 -70 -203t-188 -98v-8q143 -27 227 -105t84 -229q0 -205 -149.5 -310.5t-425.5 -105.5h-547zM500 254h145q100 0 148.5 48t48.5 136q0 182 -197 183h-145v-367zM500 860h133q176 0 176 159t-174 159h-135v-318z " />
<glyph unicode="C" horiz-adv-x="1300" d="M55 709q0 346 203 547q197 196 535 196q152 0 251 -27.5t179 -74.5v-273h-152q-104 94 -268 94t-255 -109.5t-91 -347.5q0 -458 327 -458q117 0 187.5 37t124.5 88h139v-260q-193 -139 -475 -139q-327 0 -514 189q-191 193 -191 538z" />
<glyph unicode="D" horiz-adv-x="1435" d="M115 0v1434h508q371 0 565 -175.5t194 -533.5q0 -725 -772 -725h-495zM508 264h96q193 0 285 102.5t92 348.5q0 241 -91 346q-87 100 -286 100h-96v-897z" />
<glyph unicode="E" horiz-adv-x="1189" d="M115 0v1434h987v-275h-596v-305h420v-258h-420v-330h616v-266h-1007z" />
<glyph unicode="F" horiz-adv-x="1169" d="M115 0v1434h993v-275h-600v-342h461v-262h-461v-555h-393z" />
<glyph unicode="G" horiz-adv-x="1394" d="M53 709q0 355 199 551q196 192 553 192q238 0 430 -90v-283h-145q-47 37 -111 63.5t-159 26.5t-160.5 -24.5t-110.5 -78.5q-90 -108 -90 -354.5t73.5 -357t225.5 -110.5q102 0 164 20v262h-170v238h542v-674q-222 -108 -554 -108t-509.5 188t-177.5 539z" />
<glyph unicode="H" horiz-adv-x="1456" d="M115 0v1434h393v-566h440v566h393v-1434h-393v592h-440v-592h-393z" />
<glyph unicode="I" horiz-adv-x="636" d="M121 0v1434h395v-1434h-395z" />
<glyph unicode="J" horiz-adv-x="1003" d="M33 68v264h135q73 -68 184 -68q152 0 152 148v1022h393v-1022q0 -430 -514 -430q-215 0 -350 86z" />
<glyph unicode="K" horiz-adv-x="1419" d="M115 0v1434h393v-584l485 584h338v-88l-416 -480l459 -778v-88h-383l-352 596l-131 -143v-453h-393z" />
<glyph unicode="L" horiz-adv-x="1130" d="M115 0v1434h393v-1164h563v-270h-956z" />
<glyph unicode="M" horiz-adv-x="1804" d="M115 0v1434h514l272 -852h6l273 852h510v-1434h-385v989h-7l-321 -989h-225l-318 989h-6v-989h-313z" />
<glyph unicode="N" horiz-adv-x="1447" d="M115 0v1434h420l469 -830h6v830h323v-1434h-356l-535 940h-6v-940h-321z" />
<glyph unicode="O" d="M53 715q0 342 209 545q197 192 498 192q299 0 498 -192q210 -200 210 -545q0 -343 -208 -544q-197 -189 -500 -189q-305 0 -500 189q-207 201 -207 544zM453 711q0 -242 86 -351.5t221 -109.5t221 109.5t86 351.5t-86 353.5t-221 111.5t-221 -112t-86 -353z" />
<glyph unicode="P" horiz-adv-x="1267" d="M115 0v1434h526q293 0 439.5 -113t146.5 -354q0 -463 -600 -463h-119v-504h-393zM506 750h119q121 0 167 57t46 158.5t-44 152.5t-169 51h-119v-419z" />
<glyph unicode="Q" d="M53 721q0 335 209 541q194 190 498 190q302 0 500 -192q208 -202 208 -543q0 -231 -103 -380t-273 -214v-6l424 -64v-297h-127l-668 181q-334 91 -492 263q-176 191 -176 521zM453 711q0 -354 183 -441q56 -26 124 -26q220 0 284 255q23 89 23 212q0 242 -86 353.5 t-221 111.5t-221 -112t-86 -353z" />
<glyph unicode="R" horiz-adv-x="1347" d="M115 0v1434h538q574 0 574 -439q0 -259 -213 -383l284 -520v-92h-364l-277 526h-149v-526h-393zM504 782h125q111 0 160 48.5t49 144.5t-49.5 144t-159.5 48h-125v-385z" />
<glyph unicode="S" horiz-adv-x="1134" d="M45 96v273h145q105 -115 310 -115q111 0 167 37t56 93t-20.5 84t-57.5 46t-87 30.5t-128.5 33t-153.5 55.5t-126 86q-103 102 -103 297q0 213 151 328q142 108 395 108t419 -96v-264h-142q-117 88 -270 88q-209 0 -209 -133q0 -66 59 -101q48 -27 176 -56.5t215 -66.5 t141 -90q103 -101 103 -308.5t-144 -325t-425.5 -117.5t-470.5 114z" />
<glyph unicode="T" horiz-adv-x="1234" d="M51 1161v273h1133v-273h-371v-1161h-393v1161h-369z" />
<glyph unicode="U" horiz-adv-x="1419" d="M109 545v889h393v-887q0 -225 140 -265q47 -14 106 -14t103 13.5t73 44.5q59 63 59 221v887h326v-889q0 -274 -139.5 -417.5t-444.5 -143.5t-460.5 144t-155.5 417z" />
<glyph unicode="V" horiz-adv-x="1402" d="M35 1341v93h383l305 -983h4l309 983h330v-93l-455 -1341h-422z" />
<glyph unicode="W" horiz-adv-x="1933" d="M39 1341v93h381l192 -945h4l220 945h311l225 -945h4l187 945h331v-93l-321 -1341h-414l-194 842h-4l-195 -842h-408z" />
<glyph unicode="X" horiz-adv-x="1394" d="M51 0v96l381 645l-371 596v97h390l280 -469l252 469h322v-97l-351 -600l389 -641v-96h-387l-303 514l-278 -514h-324z" />
<glyph unicode="Y" horiz-adv-x="1304" d="M29 1337v97h368l287 -560h4l277 560h311v-97l-416 -794v-543h-393v532z" />
<glyph unicode="Z" horiz-adv-x="1171" d="M53 0v285l637 868v8h-592v273h1014v-295l-637 -863v-8h637v-268h-1059z" />
<glyph unicode="[" horiz-adv-x="702" d="M125 -100v1618h524v-236h-190v-1147h190v-235h-524z" />
<glyph unicode="\" horiz-adv-x="753" d="M10 1446v72h264l476 -1547v-71h-267z" />
<glyph unicode="]" horiz-adv-x="702" d="M55 -100v235h189v1147h-189v236h523v-1618h-523z" />
<glyph unicode="^" horiz-adv-x="905" d="M31 924v77l286 433h269l288 -433v-77h-262l-157 225h-6l-156 -225h-262z" />
<glyph unicode="_" horiz-adv-x="778" d="M-6 -106h790v-226h-790v226z" />
<glyph unicode="`" horiz-adv-x="815" d="M102 1352v88h355l69 -223v-68h-215z" />
<glyph unicode="a" horiz-adv-x="1132" d="M41 307q0 166 117 253q112 83 307 83q113 0 207 -20v73q0 72 -41 105t-164 33t-234 -72h-110v248q198 86 439 86t359.5 -86t118.5 -287v-723h-200q-66 0 -98.5 24.5t-49.5 77.5q-105 -116 -309 -116q-149 0 -243 80q-99 86 -99 241zM391 332q0 -70 39 -100.5t105 -30.5 t137 59v191q-72 10 -121 10q-160 0 -160 -129z" />
<glyph unicode="b" horiz-adv-x="1243" d="M98 0v1434h234q83 0 110 -36q25 -33 25 -157v-270q139 125 321 125q277 0 373 -280q35 -103 35 -256t-37 -262.5t-99 -179.5q-121 -134 -324.5 -134t-317.5 122q-58 -106 -129 -106h-191zM467 270q61 -45 149 -45q93 0 144 57q63 73 63 246q0 245 -123 282 q-36 11 -96.5 11t-136.5 -35v-516z" />
<glyph unicode="c" horiz-adv-x="1040" d="M41 537q0 256 167 410q161 149 431 149q203 0 342 -76v-252h-133q-73 68 -186 68t-179.5 -75t-66.5 -229t62.5 -224t157.5 -70t143 23.5t83 51.5h123v-231q-148 -98 -369 -98q-272 0 -423.5 142t-151.5 411z" />
<glyph unicode="d" horiz-adv-x="1243" d="M47 524q0 295 143 446q121 126 306 126q104 0 167.5 -28t112.5 -75v441h234q86 0 110.5 -36.5t24.5 -156.5v-1241h-260q-37 0 -60.5 22.5t-36.5 90.5q-121 -131 -311 -131q-191 0 -306 132q-124 142 -124 410zM420 528q0 -166 47 -234.5t139.5 -68.5t169.5 66v493 q-59 37 -122.5 37t-101.5 -11t-68 -44q-64 -72 -64 -238z" />
<glyph unicode="e" horiz-adv-x="1140" d="M41 532q0 256 153 412q148 152 398 152q508 0 508 -543l-4 -94h-682q12 -132 78 -183q59 -47 176 -47q167 0 274 80h115v-219q-185 -106 -457.5 -106t-415.5 146t-143 402zM416 651h336q-4 125 -45 172t-113.5 47t-104.5 -34q-58 -60 -73 -185z" />
<glyph unicode="f" horiz-adv-x="733" d="M25 842v237h116v66q0 166 96.5 239.5t272.5 73.5q114 0 197 -31v-204h-72q-61 0 -93 -17.5t-32 -75.5v-51h184v-237h-184v-842h-369v842h-116z" />
<glyph unicode="g" horiz-adv-x="1243" d="M47 560.5q0 144.5 40 247.5t105 168q123 120 310.5 120t304.5 -121q35 104 139 104h199v-997q0 -215 -158 -322.5t-435 -107.5t-450 82v250h115q113 -76 269.5 -76t223 43t66.5 141v53q-114 -92 -289 -92q-307 0 -405 267q-35 96 -35 240.5zM420 563q0 -160 49 -221 q44 -55 137 -55t170 55v438q-64 41 -127 41t-100 -10t-65 -38q-64 -62 -64 -210z" />
<glyph unicode="h" horiz-adv-x="1232" d="M98 0v1434h234q83 0 110 -36q25 -33 25 -157v-287q173 142 381 142q293 0 293 -305v-791h-369v694q0 72 -30.5 95.5t-100 23.5t-174.5 -35v-778h-369z" />
<glyph unicode="i" horiz-adv-x="569" d="M94 1317q0 76 54.5 125t137.5 49t136 -49t53 -125t-53 -124t-136 -48t-137.5 48t-54.5 124zM100 0v1079h238q83 0 106 -39q23 -41 23 -168v-872h-367z" />
<glyph unicode="j" horiz-adv-x="569" d="M-80 -119h57q70 0 96.5 29t26.5 94v1075h238q81 0 106 -41q23 -39 23 -166v-886q0 -178 -91 -255t-267 -77q-108 0 -189 27v200zM94 1317q0 76 54.5 125t137.5 49t136 -49t53 -125t-53 -124t-136 -48t-137.5 48t-54.5 124z" />
<glyph unicode="k" horiz-adv-x="1183" d="M98 0v1434h234q83 0 110 -36q25 -33 25 -157v-563l336 401h307v-88l-297 -338l338 -565v-88h-346l-250 420l-88 -96v-324h-369z" />
<glyph unicode="l" horiz-adv-x="573" d="M102 0v1434h234q85 0 110 -36q25 -34 25 -157v-1241h-369z" />
<glyph unicode="m" horiz-adv-x="1861" d="M98 0v1079h256q43 0 69 -25.5t36 -107.5q171 150 374.5 150t262.5 -154q172 154 387 154q202 0 263 -159q23 -58 23 -146v-791h-368v694q0 68 -27.5 93.5t-97 25.5t-158.5 -33v-780h-368v694q0 68 -28 93.5t-92 25.5t-163 -31v-782h-369z" />
<glyph unicode="n" horiz-adv-x="1232" d="M98 0v1079h256q43 0 69 -24.5t36 -106.5q181 148 389 148q293 0 293 -305v-791h-369v694q0 72 -30.5 95.5t-100 23.5t-174.5 -35v-778h-369z" />
<glyph unicode="o" horiz-adv-x="1230" d="M41 535q0 255 166 410q161 151 409 151q250 0 409 -151q165 -156 165 -410q0 -253 -165 -405q-158 -146 -410 -146q-122 0 -226 37.5t-182 108.5q-166 151 -166 405zM414 531q0 -161 55 -233.5t146 -72.5t146.5 73t55.5 233.5t-55 236.5t-146.5 76t-146.5 -76t-55 -237z " />
<glyph unicode="p" horiz-adv-x="1243" d="M98 -332v1411h256q41 0 66.5 -22.5t36.5 -93.5q138 133 331 133q276 0 373 -278q35 -101 35 -252t-39 -258t-103 -172q-124 -126 -307 -126t-280 76v-418h-369zM467 291q61 -43 126.5 -43t102.5 11t66 44q61 69 61 234q0 232 -123 272q-36 12 -96.5 12t-136.5 -35v-495z " />
<glyph unicode="q" horiz-adv-x="1243" d="M47 535q0 292 145 437q124 124 310.5 124t304.5 -127q43 110 139 110h199v-1411h-369v436q-111 -94 -289 -94q-193 0 -309 124q-131 140 -131 401zM420 547q0 -170 46 -235q43 -62 136.5 -62t173.5 55v475q-64 41 -149 41q-207 0 -207 -274z" />
<glyph unicode="r" horiz-adv-x="849" d="M98 0v1079h256q43 0 69 -27.5t36 -119.5q121 155 297 155q33 0 65 -8v-295h-49q-184 0 -305 -51v-733h-369z" />
<glyph unicode="s" horiz-adv-x="960" d="M41 743q0 86 32.5 153t92.5 111q120 87 331.5 87t362.5 -72v-238h-117q-98 66 -237 66q-78 0 -109.5 -19.5t-31.5 -56.5t39.5 -55.5t139 -30.5t170 -33.5t116.5 -59.5q92 -75 92 -246t-117 -267t-354.5 -96t-399.5 86v241h125q33 -29 97.5 -54.5t152.5 -25.5 q160 0 160 78q0 42 -38 61q-32 17 -149 36q-271 32 -335 190q-23 59 -23 145z" />
<glyph unicode="t" horiz-adv-x="753" d="M25 842v237h116v275h369v-275h201v-237h-201v-492q0 -72 30.5 -99.5t102.5 -27.5h72v-213q-109 -30 -211 -30q-77 0 -150 17q-213 48 -213 298v547h-116z" />
<glyph unicode="u" horiz-adv-x="1249" d="M100 293v786h369v-702q0 -78 36.5 -100.5t103.5 -22.5t167 35v790h367v-1079h-256q-43 0 -67.5 21.5t-35.5 99.5q-178 -137 -368 -137q-148 0 -224 66q-92 79 -92 243z" />
<glyph unicode="v" horiz-adv-x="1175" d="M31 995v84h352l231 -673h4l213 673h314v-84l-369 -995h-364z" />
<glyph unicode="w" horiz-adv-x="1675" d="M35 993v86h354l156 -622h4l182 622h270l173 -622h4l165 622h297v-86l-301 -993h-327l-174 594h-4l-183 -594h-323z" />
<glyph unicode="x" horiz-adv-x="1169" d="M39 0v86l301 465l-281 442v86h361l194 -331l181 331h301v-86l-258 -422l292 -485v-86h-358l-209 365l-209 -365h-315z" />
<glyph unicode="y" horiz-adv-x="1165" d="M31 995v84h350l225 -612h6l209 612h316v-84l-525 -1327h-333v84l141 299z" />
<glyph unicode="z" horiz-adv-x="1040" d="M51 0v248l506 577h-479v254h903v-254l-508 -575h498v-250h-920z" />
<glyph unicode="{" horiz-adv-x="770" d="M39 600v238h45q61 0 88 34.5t27 77.5v289q0 131 78.5 205t238.5 74h199v-236h-125q-23 0 -40.5 -19.5t-17.5 -41.5v-275q0 -84 -40.5 -140t-149.5 -83v-6q109 -29 149.5 -85.5t40.5 -137.5v-297q0 -23 17.5 -42.5t40.5 -19.5h125v-235h-203q-158 0 -235.5 73.5 t-77.5 206.5v307q0 43 -27 78t-88 35h-45z" />
<glyph unicode="|" horiz-adv-x="405" d="M66 -100v1618h274v-1618h-274z" />
<glyph unicode="}" horiz-adv-x="770" d="M55 -100v235h123q25 0 42.5 19.5t17.5 42.5v297q0 84 39.5 139t148.5 84v6q-109 29 -148.5 84t-39.5 139v275q0 23 -17.5 42t-42.5 19h-123v236h199q160 0 237.5 -74t77.5 -205v-289q0 -43 27 -77.5t88 -34.5h47v-238h-47q-61 0 -88 -35t-27 -78v-307 q0 -133 -77.5 -206.5t-235.5 -73.5h-201z" />
<glyph unicode="~" horiz-adv-x="831" d="M33 422v108q20 104 83.5 172t166.5 68q60 0 117 -17.5t82.5 -25.5t43.5 -8q53 0 72 57h199v-108q-18 -104 -82 -172t-166 -68q-54 0 -112 18q-111 33 -132 33q-53 0 -72 -57h-200z" />
<glyph unicode="&#xa1;" horiz-adv-x="616" d="M113 76l73 770h242l76 -770v-215h-391v215zM115 1122q0 80 57 132q59 53 138 53t134.5 -53.5t55.5 -131.5q0 -80 -56 -134t-137 -54q-77 0 -135 54q-57 54 -57 134z" />
<glyph unicode="&#xa2;" horiz-adv-x="1064" d="M41 537q0 234 143 383q138 144 371 170v129h186v-129q144 -14 254 -70v-252h-133q-51 41 -121 59v-585q73 16 136 71h122v-231q-111 -73 -262 -90v-203h-186v199q-240 18 -375 158.5t-135 390.5zM414 532q0 -230 141 -282v567q-141 -60 -141 -285z" />
<glyph unicode="&#xa3;" horiz-adv-x="1105" d="M39 0v246q66 25 112 82t46 161q0 56 -9 101h-139v241h84q-24 108 -24 200.5t39.5 173.5t110.5 137q141 110 380 110t408 -102v-273h-142q-96 82 -225 82q-76 0 -132 -38t-56 -123t12 -167h332v-241h-301q4 -46 4 -84q0 -119 -78 -211h604v-295h-1026z" />
<glyph unicode="&#xa5;" horiz-adv-x="1241" d="M39 1337v97h360l250 -512h6l238 512h309v-97l-284 -544h245v-195h-338v-96h338v-193h-338v-309h-387v309h-338v193h338v96h-338v195h236z" />
<glyph unicode="&#xa6;" horiz-adv-x="405" d="M66 -100v731h276l-2 -731h-274zM66 799v719h274l2 -719h-276z" />
<glyph unicode="&#xa7;" horiz-adv-x="1126" d="M39 561q0 200 190 277q-100 81 -100 252q0 162 122 263q120 99 335.5 99t371.5 -74v-237h-116q-89 69 -246.5 69t-157.5 -88q0 -39 43 -67.5t156 -56.5t194.5 -58.5t136.5 -73.5q113 -87 113 -252q0 -193 -188 -276q106 -82 106 -238q0 -169 -119 -269 q-124 -105 -361 -105t-408 84v241h118q48 -48 193 -75q41 -7 82 -7q162 0 162 90q0 45 -48 70q-37 20 -158.5 54t-198.5 67t-126 77q-96 86 -96 234zM338 635q0 -49 37.5 -82t141 -62t173.5 -51q82 35 82 99.5t-46 96.5t-121 51t-109.5 29.5t-67.5 20.5q-90 -27 -90 -102z " />
<glyph unicode="&#xa8;" horiz-adv-x="815" d="M25 1309q0 72 49 118t125 46t124 -46.5t48 -117.5q0 -72 -48 -117t-124 -45t-125 45t-49 117zM444 1309q0 72 48.5 118t123.5 46q76 0 125.5 -46.5t49.5 -117.5q0 -72 -49.5 -117t-125.5 -45t-124 45t-48 117z" />
<glyph unicode="&#xa9;" horiz-adv-x="1599" d="M57 717q0 338 225 543q208 190 519 190t518 -190q223 -204 223 -543q0 -341 -223 -544q-207 -189 -518 -189q-310 0 -519 189q-225 205 -225 544zM197 717q0 -283 178 -457q166 -162 425 -162q124 0 233.5 41t191.5 121q178 174 178 457q0 284 -178 457 q-167 161 -424 161q-259 0 -426 -161q-178 -173 -178 -457zM401 717q0 192 123 303q121 110 316 110q149 0 256 -55v-194h-107q-63 49 -138 49t-120 -52.5t-45 -162.5q0 -209 162 -209q93 0 151 53h99v-176q-115 -74 -294.5 -74t-291 104.5t-111.5 303.5z" />
<glyph unicode="&#xaa;" horiz-adv-x="954" d="M39 786q0 143 98.5 213t233.5 70t194 -16v55q0 55 -33.5 82t-132.5 27t-192 -58h-101v215q183 76 384.5 76t301 -73.5t99.5 -248.5v-600h-186q-53 0 -81 21.5t-42 66.5q-89 -100 -256 -100q-198 0 -264 152q-23 51 -23 118zM346 807q0 -100 109 -100q58 0 110 45v151 q-46 8 -94 8q-125 0 -125 -104z" />
<glyph unicode="&#xab;" horiz-adv-x="1089" d="M63 467v129l232 387h274v-74l-215 -372v-5l215 -376v-74h-274zM520 467v129l232 387h274v-74l-215 -372v-5l215 -376v-74h-274z" />
<glyph unicode="&#xad;" horiz-adv-x="626" d="M61 459v280h504v-280h-504z" />
<glyph unicode="&#xae;" horiz-adv-x="786" d="M14 1083q0 166 116 271q106 96 263 96q156 0 263 -96q116 -103 116 -271q0 -167 -116 -270q-107 -96 -263 -96q-157 0 -263 96q-116 105 -116 270zM109 1083q0 -135 83 -213q76 -73 201 -73q124 0 202 73q83 77 83 213q0 137 -83 215q-78 72 -202 72q-194 0 -261 -162 q-23 -53 -23 -125zM238 903v375h168q158 0 157 -127q0 -63 -53 -96l61 -113v-39h-118l-60 123h-28v-123h-127zM362 1106h31q45 0 45 45t-45 45h-31v-90z" />
<glyph unicode="&#xaf;" horiz-adv-x="815" d="M131 1186v221h553v-221h-553z" />
<glyph unicode="&#xb0;" horiz-adv-x="716" d="M49 1151q0 132 91 214q90 81 218 81t220 -81t92 -214q0 -132 -92 -215q-90 -82 -220 -82t-218 82q-91 84 -91 215zM231 1151q0 -63 35 -102t93 -39t94 38.5t36 102.5q0 63 -35.5 101t-94 38t-93.5 -38t-35 -101z" />
<glyph unicode="&#xb2;" horiz-adv-x="712" d="M45 631v200l223 197q53 47 80 81t27 65q0 67 -82 67q-76 0 -127 -45h-107v180q117 72 281 72q319 0 319 -242q0 -116 -108 -214q-35 -31 -78 -66l-115 -95h291v-200h-604z" />
<glyph unicode="&#xb3;" horiz-adv-x="702" d="M39 678v168h98q55 -43 133 -43q113 0 113 75t-104 74h-82v162h73q111 0 111 70t-92 69q-69 0 -129 -36h-99v163q106 68 275 68q216 0 282 -121q23 -41 23 -98q0 -144 -164 -182v-7q178 -25 178 -184q0 -117 -93 -178.5t-250 -61.5t-273 62z" />
<glyph unicode="&#xb4;" horiz-adv-x="815" d="M291 1149v68l67 223h355v-88l-207 -203h-215z" />
<glyph unicode="&#xb6;" horiz-adv-x="1208" d="M43 1022q0 412 520 412h531v-1620h-234v1386h-131v-1386h-233v800h-7q-317 0 -413 222q-33 77 -33 186z" />
<glyph unicode="&#xb7;" horiz-adv-x="481" d="M47 602q0 76 57 132q53 54 136 54q125 0 176 -113q16 -34 16 -73q0 -76 -56 -131q-55 -53 -137 -53q-40 0 -75 14t-60 39q-57 55 -57 131z" />
<glyph unicode="&#xb8;" horiz-adv-x="815" d="M238 -199h63q22 -22 71.5 -22t49.5 32.5t-64 32.5h-45v156h156v-49q166 -8 166 -150q0 -72 -56.5 -115.5t-164.5 -43.5t-176 32v127z" />
<glyph unicode="&#xb9;" horiz-adv-x="563" d="M37 1124v199l223 111h211v-803h-285v545l-100 -52h-49z" />
<glyph unicode="&#xba;" horiz-adv-x="1069" d="M47 977q0 215 139 346q134 127 349 127q214 0 349 -127q138 -131 138 -346q0 -213 -138 -340q-135 -123 -349 -123q-215 0 -349 123q-139 127 -139 340zM377 976q0 -132 43 -190.5t115 -58.5t114.5 58.5t42.5 190.5t-43 192.5t-114 60.5q-72 0 -115 -60.5t-43 -192.5z " />
<glyph unicode="&#xbb;" horiz-adv-x="1089" d="M63 82v74l216 376v5l-216 372v74h275l231 -387v-129l-231 -385h-275zM520 82v74l215 376v5l-215 372v74h275l231 -387v-129l-231 -385h-275z" />
<glyph unicode="&#xbc;" horiz-adv-x="1583" d="M53 1124v199l223 111h209v-803h-284v545l-101 -52h-47zM145 -70l1010 1563h238l-1010 -1563h-238zM856 162v192l361 449h260v-473h79v-168h-79v-162h-271v162h-350zM1044 328h170v213h-4l-166 -209v-4z" />
<glyph unicode="&#xbd;" horiz-adv-x="1667" d="M53 1124v199l223 111h209v-803h-284v545l-101 -52h-47zM143 -70l1010 1563h238l-1010 -1563h-238zM1012 0v201l223 196q53 47 79.5 81t26.5 65q0 67 -81 67q-79 0 -127 -45h-107v180q117 72 281 72q319 0 319 -242q0 -114 -108 -213q-35 -32 -78 -67l-115 -94h291v-201 h-604z" />
<glyph unicode="&#xbe;" horiz-adv-x="1660" d="M59 678v168h99q55 -43 133 -43q113 0 112 76q0 74 -104 73h-82v162h74q111 0 110 72q0 68 -92 67q-66 0 -129 -36h-98v163q106 68 274 68q215 0 283 -121q23 -41 23 -98q0 -144 -164 -182v-7q178 -25 178 -184q0 -117 -93 -178.5t-250.5 -61.5t-273.5 62zM244 -70 l1009 1563h238l-1010 -1563h-237zM934 162v192l360 449h260v-473h80v-168h-80v-162h-270v162h-350zM1122 328h170v213h-4l-166 -209v-4z" />
<glyph unicode="&#xbf;" horiz-adv-x="950" d="M49 223q0 160 133 287q41 39 88 74t81 62.5t57 55.5q48 58 41 144h266q20 -120 0 -181q-34 -99 -112.5 -173t-125.5 -129.5t-47 -119.5q0 -122 133 -122t215 82h140v-254q-174 -109 -399.5 -109t-347.5 98.5t-122 284.5zM381 1122q0 77 57 132q55 53 136 53t136.5 -53.5 t55.5 -131.5q0 -80 -56 -134t-137 -54t-135 54q-57 57 -57 134z" />
<glyph unicode="&#xc0;" horiz-adv-x="1421" d="M39 0v92l457 1342h426l462 -1342v-92h-380l-101 324h-457l-96 -324h-311zM403 1671v86h355l69 -209v-67h-215zM526 590h297l-147 483h-4z" />
<glyph unicode="&#xc1;" horiz-adv-x="1421" d="M39 0v92l457 1342h426l462 -1342v-92h-380l-101 324h-457l-96 -324h-311zM526 590h297l-147 483h-4zM582 1481v67l67 209h355v-86l-207 -190h-215z" />
<glyph unicode="&#xc2;" horiz-adv-x="1421" d="M55 0v92l457 1342h426l463 -1342v-92h-381l-100 324h-457l-96 -324h-312zM412 1481v78l186 204h248l182 -204v-78h-199l-114 78l-113 -78h-190zM543 590h297l-148 483h-4z" />
<glyph unicode="&#xc3;" horiz-adv-x="1421" d="M39 0v92l457 1342h426l462 -1342v-92h-380l-101 324h-457l-96 -324h-311zM352 1481v82q16 102 72.5 156.5t144.5 54.5q49 0 104.5 -17.5t79 -25t42.5 -7.5q47 0 63 50h184v-82q-16 -102 -72.5 -156.5t-142.5 -54.5q-62 0 -111 19q-90 34 -114 34q-53 0 -65 -53h-185z M526 590h297l-147 483h-4z" />
<glyph unicode="&#xc4;" horiz-adv-x="1421" d="M39 0v92l457 1342h426l462 -1342v-92h-380l-101 324h-457l-96 -324h-311zM322 1642q0 72 49 117t125 45t124 -45t48 -117t-48 -116.5t-124 -44.5t-125 45t-49 116zM526 590h297l-147 483h-4zM741 1642q0 72 48.5 117t123.5 45q76 0 125 -45t49 -117t-49 -116.5 t-125 -44.5t-124 45t-48 116z" />
<glyph unicode="&#xc5;" horiz-adv-x="1421" d="M39 0v92l457 1342h426l462 -1342v-92h-380l-101 324h-457l-96 -324h-311zM483 1688.5q0 97.5 64.5 153.5t154.5 56t155 -56t65 -153t-65 -152.5t-155 -55.5t-154.5 55t-64.5 152.5zM526 590h297l-147 483h-4zM635 1690q0 -35 18 -54.5t49 -19.5t50.5 19.5t19.5 54.5 t-19.5 54t-50.5 19t-49 -19.5t-18 -53.5z" />
<glyph unicode="&#xc6;" horiz-adv-x="1972" d="M18 0v92l652 1342h1214v-275h-596v-305h418v-258h-418v-330h617v-266h-1008v338h-418l-155 -338h-306zM600 602h297v557h-41z" />
<glyph unicode="&#xc7;" horiz-adv-x="1292" d="M55 709q0 346 203 547q197 196 535 196q152 0 251 -27.5t179 -74.5v-273h-152q-104 94 -268 94t-255 -109.5t-91 -347.5q0 -458 327 -458q117 0 187.5 37t124.5 88h139v-260q-180 -132 -447 -139v-31q166 -8 166 -150q0 -72 -56 -115.5t-163.5 -43.5t-177.5 32v127h64 q22 -22 71 -22t49 32.5t-63 32.5h-45v146q-272 37 -423 220q-155 188 -155 499z" />
<glyph unicode="&#xc8;" horiz-adv-x="1189" d="M115 0v1434h987v-275h-596v-305h420v-258h-420v-330h616v-266h-1007zM332 1671v86h354l70 -209v-67h-215z" />
<glyph unicode="&#xc9;" horiz-adv-x="1189" d="M115 0v1434h987v-275h-596v-305h420v-258h-420v-330h616v-266h-1007zM516 1481v67l68 209h354v-86l-207 -190h-215z" />
<glyph unicode="&#xca;" horiz-adv-x="1189" d="M115 0v1434h987v-275h-596v-305h420v-258h-420v-330h616v-266h-1007zM324 1481v78l186 204h248l182 -204v-78h-199l-114 78l-113 -78h-190z" />
<glyph unicode="&#xcb;" horiz-adv-x="1189" d="M115 0v1434h987v-275h-596v-305h420v-258h-420v-330h616v-266h-1007zM250 1642q0 72 49 117t125 45t124 -45t48 -117t-48 -116.5t-124 -44.5t-125 45t-49 116zM670 1642q0 72 48 117t124 45t125 -45t49 -117t-49 -116.5t-125 -44.5t-124 45t-48 116z" />
<glyph unicode="&#xcc;" horiz-adv-x="636" d="M18 1671v86h355l69 -209v-67h-215zM121 0v1434h395v-1434h-395z" />
<glyph unicode="&#xcd;" horiz-adv-x="636" d="M121 0v1434h395v-1434h-395zM203 1481v67l67 209h355v-86l-207 -190h-215z" />
<glyph unicode="&#xce;" horiz-adv-x="636" d="M10 1481v78l187 204h247l183 -204v-78h-199l-115 78l-112 -78h-191zM121 0v1434h395v-1434h-395z" />
<glyph unicode="&#xcf;" horiz-adv-x="636" d="M-66 1642q0 72 49.5 117t125.5 45t124 -45t48 -117t-48 -116.5t-124 -44.5t-125.5 45t-49.5 116zM121 0v1434h395v-1434h-395zM354 1642q0 72 48.5 117t123.5 45q76 0 125 -45t49 -117t-49 -116.5t-125 -44.5t-124 45t-48 116z" />
<glyph unicode="&#xd0;" horiz-adv-x="1443" d="M10 588v254h113v592h508q371 0 565.5 -175.5t194.5 -533.5q0 -725 -773 -725h-495v588h-113zM516 264h96q193 0 285 102.5t92 348.5q0 241 -91 346q-87 100 -286 100h-96v-319h258v-254h-258v-324z" />
<glyph unicode="&#xd1;" horiz-adv-x="1447" d="M115 0v1434h420l469 -830h6v830h323v-1434h-356l-535 940h-6v-940h-321zM412 1481v82q16 102 72.5 156.5t144.5 54.5q48 0 104 -18q103 -32 121 -32q47 0 64 50h184v-82q-16 -102 -72.5 -156.5t-142.5 -54.5q-63 0 -112 19q-90 34 -113 34q-53 0 -66 -53h-184z" />
<glyph unicode="&#xd2;" d="M53 715q0 342 209 545q197 192 498 192q299 0 498 -192q210 -200 210 -545q0 -343 -208 -544q-197 -189 -500 -189q-305 0 -500 189q-207 201 -207 544zM453 711q0 -242 86 -351.5t221 -109.5t221 109.5t86 351.5t-86 353.5t-221 111.5t-221 -112t-86 -353zM459 1671v86 h354l70 -209v-67h-215z" />
<glyph unicode="&#xd3;" d="M53 715q0 342 209 545q197 192 498 192q299 0 498 -192q210 -200 210 -545q0 -343 -208 -544q-197 -189 -500 -189q-305 0 -500 189q-207 201 -207 544zM453 711q0 -242 86 -351.5t221 -109.5t221 109.5t86 351.5t-86 353.5t-221 111.5t-221 -112t-86 -353zM643 1481v67 l68 209h354v-86l-207 -190h-215z" />
<glyph unicode="&#xd4;" d="M53 715q0 342 209 545q197 192 498 192q299 0 498 -192q210 -200 210 -545q0 -343 -208 -544q-197 -189 -500 -189q-305 0 -500 189q-207 201 -207 544zM451 1481v78l186 204h248l182 -204v-78h-199l-114 78l-113 -78h-190zM453 711q0 -242 86 -351.5t221 -109.5 t221 109.5t86 351.5t-86 353.5t-221 111.5t-221 -112t-86 -353z" />
<glyph unicode="&#xd5;" d="M53 715q0 342 209 545q197 192 498 192q299 0 498 -192q210 -200 210 -545q0 -343 -208 -544q-197 -189 -500 -189q-305 0 -500 189q-207 201 -207 544zM414 1481v82q16 102 72.5 156.5t144.5 54.5q50 0 128.5 -25t96.5 -25q47 0 64 50h184v-82q-16 -102 -72.5 -156.5 t-142.5 -54.5q-63 0 -112 19q-90 34 -113 34q-53 0 -66 -53h-184zM453 711q0 -242 86 -351.5t221 -109.5t221 109.5t86 351.5t-86 353.5t-221 111.5t-221 -112t-86 -353z" />
<glyph unicode="&#xd6;" d="M53 715q0 342 209 545q197 192 498 192q299 0 498 -192q210 -200 210 -545q0 -343 -208 -544q-197 -189 -500 -189q-305 0 -500 189q-207 201 -207 544zM377 1642q0 72 49 117t125 45t124 -45t48 -117t-48 -116.5t-124 -44.5t-125 45t-49 116zM453 711q0 -242 86 -351.5 t221 -109.5t221 109.5t86 351.5t-86 353.5t-221 111.5t-221 -112t-86 -353zM797 1642q0 72 48 117t124 45t125 -45t49 -117t-49 -116.5t-125 -44.5t-124 45t-48 116z" />
<glyph unicode="&#xd7;" horiz-adv-x="1075" d="M59 414l285 282l-285 283l195 195l285 -285l286 285l193 -195l-285 -283l285 -282l-193 -195l-286 285l-285 -285z" />
<glyph unicode="&#xd8;" d="M53 715q0 342 209 545q197 192 498 192q221 0 397 -111l98 121h197v-57l-154 -188q170 -201 170 -502q0 -343 -208 -544q-197 -189 -500 -189q-213 0 -381 98l-100 -125h-199v57l151 187q-178 195 -178 516zM446 711q0 -113 23 -217l492 606q-78 80 -209 80 t-218.5 -112.5t-87.5 -356.5zM567 313q74 -67 193 -67q223 0 292 255q23 87 23 178q0 148 -20 234z" />
<glyph unicode="&#xd9;" horiz-adv-x="1419" d="M109 545v889h393v-887q0 -225 140 -265q47 -14 106 -14t103 13.5t73 44.5q59 63 59 221v887h326v-889q0 -274 -139.5 -417.5t-444.5 -143.5t-460.5 144t-155.5 417zM440 1671v86h355l69 -209v-67h-215z" />
<glyph unicode="&#xda;" horiz-adv-x="1419" d="M109 545v889h393v-887q0 -225 140 -265q47 -14 106 -14t103 13.5t73 44.5q59 63 59 221v887h326v-889q0 -274 -139.5 -417.5t-444.5 -143.5t-460.5 144t-155.5 417zM625 1481v67l67 209h355v-86l-207 -190h-215z" />
<glyph unicode="&#xdb;" horiz-adv-x="1419" d="M109 545v889h393v-887q0 -225 140 -265q47 -14 106 -14t103 13.5t73 44.5q59 63 59 221v887h326v-889q0 -274 -139.5 -417.5t-444.5 -143.5t-460.5 144t-155.5 417zM432 1481v78l186 204h248l183 -204v-78h-199l-115 78l-112 -78h-191z" />
<glyph unicode="&#xdc;" horiz-adv-x="1419" d="M109 545v889h393v-887q0 -225 140 -265q47 -14 106 -14t103 13.5t73 44.5q59 63 59 221v887h326v-889q0 -274 -139.5 -417.5t-444.5 -143.5t-460.5 144t-155.5 417zM356 1642q0 72 49.5 117t124.5 45q76 0 124 -45t48 -117t-48 -116.5t-124 -44.5t-125 45t-49 116z M776 1642q0 72 48 117t124 45t125 -45t49 -117t-49 -116.5t-125 -44.5t-124 45t-48 116z" />
<glyph unicode="&#xdd;" horiz-adv-x="1304" d="M29 1337v97h368l287 -560h4l277 560h311v-97l-416 -794v-543h-393v532zM555 1481v67l68 209h354v-86l-207 -190h-215z" />
<glyph unicode="&#xde;" horiz-adv-x="1267" d="M115 0v1434h393v-250h133q293 0 439.5 -110.5t146.5 -346.5q0 -455 -600 -455h-119v-272h-393zM506 520h119q121 0 167 53.5t46 151.5t-44 145.5t-169 47.5h-119v-398z" />
<glyph unicode="&#xdf;" horiz-adv-x="1335" d="M98 0v1020q0 205 142.5 320.5t405.5 115.5q525 0 525 -317q0 -78 -48 -139.5t-114.5 -111.5t-88 -75t-21.5 -50.5t23.5 -44t95.5 -48t123 -59t87 -69.5q70 -78 70 -223t-108.5 -240t-314.5 -95t-308 69v240h117q70 -64 164 -64q53 0 85 18.5t32 49.5t-35 51.5t-136.5 58 t-161 103t-59.5 176.5q0 80 29 128q45 74 109 136q45 49 70.5 81t25.5 74t-36 70.5t-107 28.5q-197 0 -197 -192v-1012h-369z" />
<glyph unicode="&#xe0;" horiz-adv-x="1132" d="M41 307q0 166 117 253q112 83 307 83q113 0 207 -20v73q0 72 -41 105t-164 33t-234 -72h-110v248q198 86 439 86t359.5 -86t118.5 -287v-723h-200q-66 0 -98.5 24.5t-49.5 77.5q-105 -116 -309 -116q-149 0 -243 80q-99 86 -99 241zM244 1352v88h354l70 -223v-68h-215z M391 331q0 -130 144 -130q66 0 137 59v191q-72 10 -121 10q-160 0 -160 -130z" />
<glyph unicode="&#xe1;" horiz-adv-x="1132" d="M41 307q0 166 117 253q112 83 307 83q113 0 207 -20v73q0 72 -41 105t-164 33t-234 -72h-110v248q198 86 439 86t359.5 -86t118.5 -287v-723h-200q-66 0 -98.5 24.5t-49.5 77.5q-105 -116 -309 -116q-149 0 -243 80q-99 86 -99 241zM391 331q0 -130 144 -130q66 0 137 59 v191q-72 10 -121 10q-160 0 -160 -130zM453 1149v68l67 223h354v-88l-206 -203h-215z" />
<glyph unicode="&#xe2;" horiz-adv-x="1132" d="M41 307q0 166 117 253q112 83 307 83q113 0 207 -20v73q0 72 -41 105t-164 33t-234 -72h-110v248q198 86 439 86t359.5 -86t118.5 -287v-723h-200q-66 0 -98.5 24.5t-49.5 77.5q-105 -116 -309 -116q-149 0 -243 80q-99 86 -99 241zM250 1149v78l186 213h248l182 -213 v-78h-198l-115 86l-113 -86h-190zM391 332q0 -70 39 -100.5t105 -30.5t137 59v191q-72 10 -121 10q-160 0 -160 -129z" />
<glyph unicode="&#xe3;" horiz-adv-x="1132" d="M41 307q0 166 117 253q112 83 307 83q113 0 207 -20v73q0 72 -41 105t-164 33t-234 -72h-110v248q198 86 439 86t359.5 -86t118.5 -287v-723h-200q-66 0 -98.5 24.5t-49.5 77.5q-105 -116 -309 -116q-149 0 -243 80q-99 86 -99 241zM213 1151v82q16 102 72.5 157.5 t144.5 55.5q53 0 107 -18q96 -31 118 -31q47 0 64 49h184v-82q-16 -102 -72.5 -157.5t-142.5 -55.5q-61 0 -111 19q-92 34 -114 34q-53 0 -66 -53h-184zM391 331q0 -130 144 -130q66 0 137 59v191q-72 10 -121 10q-160 0 -160 -130z" />
<glyph unicode="&#xe4;" horiz-adv-x="1132" d="M41 307q0 166 117 253q112 83 307 83q113 0 207 -20v73q0 72 -41 105t-164 33t-234 -72h-110v248q198 86 439 86t359.5 -86t118.5 -287v-723h-200q-66 0 -98.5 24.5t-49.5 77.5q-105 -116 -309 -116q-149 0 -243 80q-99 86 -99 241zM174 1309q0 72 49 118t125 46 t124 -46.5t48 -117.5q0 -72 -48 -117t-124 -45t-125 45t-49 117zM391 331q0 -130 144 -130q66 0 137 59v191q-72 10 -121 10q-160 0 -160 -130zM594 1309q0 72 48 118t124 46t125 -46.5t49 -117.5q0 -72 -49 -117t-125 -45t-124 45t-48 117z" />
<glyph unicode="&#xe5;" horiz-adv-x="1132" d="M41 307q0 166 117 253q112 83 307 83q113 0 207 -20v73q0 72 -41 105t-164 33t-234 -72h-110v248q198 86 439 86t359.5 -86t118.5 -287v-723h-200q-66 0 -98.5 24.5t-49.5 77.5q-105 -116 -309 -116q-149 0 -243 80q-99 86 -99 241zM338 1359q0 97 64.5 153.5t154.5 56.5 t154.5 -56.5t64.5 -153.5t-64.5 -152.5t-154.5 -55.5t-154.5 55.5t-64.5 152.5zM391 331q0 -130 144 -130q66 0 137 59v191q-72 10 -121 10q-160 0 -160 -130zM489 1360q0 -35 18.5 -54.5t49.5 -19.5t50.5 19.5t19.5 54.5t-19.5 54.5t-50.5 19.5t-49.5 -19.5t-18.5 -54.5z " />
<glyph unicode="&#xe6;" horiz-adv-x="1767" d="M41 311q0 166 119 251t325 85h187v51q0 70 -41 103t-164 33t-234 -72h-110v248q198 86 436 86t330 -101q150 101 332 101q506 0 505 -543l-4 -94h-682q16 -187 153 -219q44 -11 99 -11q165 0 277 80h114v-219q-185 -106 -461.5 -106t-426.5 163q-66 -74 -156 -117.5 t-240.5 -43.5t-254 79.5t-103.5 245.5zM391 332q0 -70 38 -100.5t99 -30.5q105 0 181 86q-29 74 -39 172h-123q-156 0 -156 -127zM1042 649h336q-4 127 -44.5 174t-114.5 47t-106 -34q-58 -60 -71 -187z" />
<glyph unicode="&#xe7;" horiz-adv-x="1040" d="M41 537q0 256 167 410q161 149 431 149q203 0 342 -76v-252h-133q-73 68 -186 68t-179.5 -75t-66.5 -229t62.5 -224t157.5 -70t143 23.5t83 51.5h123v-231q-148 -98 -367 -98v-33q166 -8 166 -150q0 -72 -56 -115.5t-163.5 -43.5t-177.5 32v127h64q22 -22 71 -22t49 32.5 t-63 32.5h-45v154q-203 37 -312.5 173t-109.5 366z" />
<glyph unicode="&#xe8;" horiz-adv-x="1140" d="M41 532q0 256 153 412q148 152 398 152q508 0 508 -543l-4 -94h-682q12 -132 78 -183q59 -47 176 -47q167 0 274 80h115v-219q-185 -106 -457.5 -106t-415.5 146t-143 402zM268 1352v88h355l69 -223v-68h-215zM416 651h336q-4 125 -45 172t-113.5 47t-104.5 -34 q-58 -60 -73 -185z" />
<glyph unicode="&#xe9;" horiz-adv-x="1140" d="M41 532q0 256 153 412q148 152 398 152q508 0 508 -543l-4 -94h-682q12 -132 78 -183q59 -47 176 -47q167 0 274 80h115v-219q-185 -106 -457.5 -106t-415.5 146t-143 402zM416 651h336q-4 125 -45 172t-113.5 47t-104.5 -34q-58 -60 -73 -185zM477 1149v68l68 223h354 v-88l-207 -203h-215z" />
<glyph unicode="&#xea;" horiz-adv-x="1140" d="M41 532q0 256 153 412q148 152 398 152q508 0 508 -543l-4 -94h-682q12 -132 78 -183q59 -47 176 -47q167 0 274 80h115v-219q-185 -106 -457.5 -106t-415.5 146t-143 402zM274 1149v78l187 213h248l182 -213v-78h-199l-114 86l-113 -86h-191zM416 651h336 q-4 125 -45 172t-113.5 47t-104.5 -34q-58 -60 -73 -185z" />
<glyph unicode="&#xeb;" horiz-adv-x="1140" d="M41 532q0 256 153 412q148 152 398 152q508 0 508 -543l-4 -94h-682q12 -132 78 -183q59 -47 176 -47q167 0 274 80h115v-219q-185 -106 -457.5 -106t-415.5 146t-143 402zM199 1309q0 72 49 118t125 46t124 -46.5t48 -117.5q0 -72 -48 -117t-124 -45t-125 45t-49 117z M416 651h336q-4 125 -45 172t-113.5 47t-104.5 -34q-58 -60 -73 -185zM618 1309q0 72 48.5 118t124.5 46t125 -46.5t49 -117.5q0 -72 -49 -117t-125 -45t-124.5 45t-48.5 117z" />
<glyph unicode="&#xec;" horiz-adv-x="569" d="M-14 1352v88h354l70 -223v-68h-215zM100 0v1079h238q83 0 106 -39q23 -41 23 -168v-872h-367z" />
<glyph unicode="&#xed;" horiz-adv-x="569" d="M100 0v1079h238q83 0 106 -39q23 -41 23 -168v-872h-367zM156 1149v68l67 223h355v-88l-207 -203h-215z" />
<glyph unicode="&#xee;" horiz-adv-x="569" d="M-23 1149v78l187 213h248l182 -213v-78h-199l-114 86l-113 -86h-191zM100 0v1079h238q83 0 106 -39q23 -41 23 -168v-872h-367z" />
<glyph unicode="&#xef;" horiz-adv-x="569" d="M-98 1309q0 72 49 118t125 46t124 -46.5t48 -117.5q0 -72 -48 -117t-124 -45t-125 45t-49 117zM100 0v1079h238q83 0 106 -39q23 -41 23 -168v-872h-367zM322 1309q0 72 48 118t124 46t125 -46.5t49 -117.5q0 -72 -49 -117t-125 -45t-124 45t-48 117z" />
<glyph unicode="&#xf0;" horiz-adv-x="1230" d="M41 514q0 240 141 382q130 132 328 132q96 0 141 -20q65 -30 117 -80q-47 117 -168 192l-59 -51h-207v57l82 70q-52 14 -113 27v211h143q102 -14 199 -48l53 46h207v-56l-82 -69q176 -104 271.5 -284.5t95.5 -434.5q0 -303 -167 -459q-155 -145 -417 -145 q-255 0 -406 140q-159 147 -159 390zM414 511q0 -148 58.5 -217t150.5 -69q194 0 194 287t-194 287q-92 0 -150.5 -70t-58.5 -218z" />
<glyph unicode="&#xf1;" horiz-adv-x="1232" d="M98 0v1079h256q43 0 69 -24.5t36 -106.5q181 148 389 148q293 0 293 -305v-791h-369v694q0 72 -30.5 95.5t-100 23.5t-174.5 -35v-778h-369zM279 1151v82q16 102 72.5 157.5t144.5 55.5q54 0 106 -18q95 -31 119 -31q47 0 63 49h185v-82q-16 -102 -72.5 -157.5 t-142.5 -55.5q-63 0 -112 19q-90 34 -114 34q-53 0 -65 -53h-184z" />
<glyph unicode="&#xf2;" horiz-adv-x="1230" d="M41 535q0 255 166 410q161 151 409 151q250 0 409 -151q165 -156 165 -410q0 -253 -165 -405q-158 -146 -410 -146q-122 0 -226 37.5t-182 108.5q-166 151 -166 405zM301 1352v88h354l70 -223v-68h-215zM414 531q0 -161 55 -233.5t146 -72.5t146.5 73t55.5 233.5 t-55 236.5t-146.5 76t-146.5 -76t-55 -237z" />
<glyph unicode="&#xf3;" horiz-adv-x="1230" d="M41 535q0 255 166 410q161 151 409 151q250 0 409 -151q165 -156 165 -410q0 -253 -165 -405q-158 -146 -410 -146q-122 0 -226 37.5t-182 108.5q-166 151 -166 405zM414 531q0 -161 55 -233.5t146 -72.5t146.5 73t55.5 233.5t-55 236.5t-146.5 76t-146.5 -76t-55 -237z M510 1149v68l68 223h354v-88l-207 -203h-215z" />
<glyph unicode="&#xf4;" horiz-adv-x="1230" d="M41 535q0 255 166 410q161 151 409 151q250 0 409 -151q165 -156 165 -410q0 -253 -165 -405q-158 -146 -410 -146q-122 0 -226 37.5t-182 108.5q-166 151 -166 405zM307 1149v78l187 213h247l183 -213v-78h-199l-115 86l-112 -86h-191zM414 531q0 -161 55 -233.5 t146 -72.5t146.5 73t55.5 233.5t-55 236.5t-146.5 76t-146.5 -76t-55 -237z" />
<glyph unicode="&#xf5;" horiz-adv-x="1230" d="M41 535q0 255 166 410q161 151 409 151q250 0 409 -151q165 -156 165 -410q0 -253 -165 -405q-158 -146 -410 -146q-122 0 -226 37.5t-182 108.5q-166 151 -166 405zM270 1151v82q16 102 72.5 157.5t144.5 55.5q55 0 108 -18q94 -31 118 -31q47 0 63 49h185v-82 q-16 -102 -73 -157.5t-143 -55.5q-62 0 -111 19q-90 34 -114 34q-53 0 -65 -53h-185zM414 531q0 -161 55 -233.5t146 -72.5t146.5 73t55.5 233.5t-55 236.5t-146.5 76t-146.5 -76t-55 -237z" />
<glyph unicode="&#xf6;" horiz-adv-x="1230" d="M41 535q0 255 166 410q161 151 409 151q250 0 409 -151q165 -156 165 -410q0 -253 -165 -405q-158 -146 -410 -146q-122 0 -226 37.5t-182 108.5q-166 151 -166 405zM231 1309q0 72 49.5 118t125.5 46t124 -46.5t48 -117.5q0 -72 -48 -117t-124 -45t-125.5 45t-49.5 117z M414 531q0 -161 55 -233.5t146 -72.5t146.5 73t55.5 233.5t-55 236.5t-146.5 76t-146.5 -76t-55 -237zM651 1309q0 72 48.5 118t123.5 46q76 0 125 -46.5t49 -117.5q0 -72 -49 -117t-125 -45t-124 45t-48 117z" />
<glyph unicode="&#xf7;" horiz-adv-x="1093" d="M49 565v285h995v-285h-995zM356 311q0 79 56 133t136 54q40 0 74.5 -14.5t60.5 -39.5q54 -53 54 -133q0 -78 -54 -129q-57 -53 -136.5 -53t-135 52t-55.5 130zM356 1101q0 79 55.5 132t135 53t135 -52t55.5 -131t-55 -132t-133 -53q-81 0 -137 52t-56 131z" />
<glyph unicode="&#xf8;" horiz-adv-x="1230" d="M41 535q0 255 166 410q161 151 409 151q164 0 295 -72l74 92h168v-53l-111 -137q148 -152 148 -391q0 -253 -165 -405q-158 -146 -409 -146q-160 0 -290 63l-82 -100h-168v53l117 143q-152 152 -152 392zM403 530q0 -62 9 -116l325 397q-45 41 -130 41t-144.5 -78 t-59.5 -244zM492 252q46 -39 131 -39t143.5 78t58.5 239q0 72 -8 119z" />
<glyph unicode="&#xf9;" horiz-adv-x="1249" d="M100 293v786h369v-702q0 -78 36.5 -100.5t103.5 -22.5t167 35v790h367v-1079h-256q-43 0 -67.5 21.5t-35.5 99.5q-178 -137 -368 -137q-148 0 -224 66q-92 79 -92 243zM311 1352v88h355l69 -223v-68h-215z" />
<glyph unicode="&#xfa;" horiz-adv-x="1249" d="M100 293v786h369v-702q0 -78 36.5 -100.5t103.5 -22.5t167 35v790h367v-1079h-256q-43 0 -67.5 21.5t-35.5 99.5q-178 -137 -368 -137q-148 0 -224 66q-92 79 -92 243zM520 1149v68l68 223h354v-88l-207 -203h-215z" />
<glyph unicode="&#xfb;" horiz-adv-x="1249" d="M100 293v786h369v-702q0 -78 36.5 -100.5t103.5 -22.5t167 35v790h367v-1079h-256q-43 0 -67.5 21.5t-35.5 99.5q-178 -137 -368 -137q-148 0 -224 66q-92 79 -92 243zM315 1149v78l187 213h248l182 -213v-78h-199l-115 86l-112 -86h-191z" />
<glyph unicode="&#xfc;" horiz-adv-x="1249" d="M100 293v786h369v-702q0 -78 36.5 -100.5t103.5 -22.5t167 35v790h367v-1079h-256q-43 0 -67.5 21.5t-35.5 99.5q-178 -137 -368 -137q-148 0 -224 66q-92 79 -92 243zM242 1309q0 72 49 118t125 46t124 -46.5t48 -117.5q0 -72 -48 -117t-124 -45t-125 45t-49 117z M662 1309q0 72 48 118t124 46t125 -46.5t49 -117.5q0 -72 -49 -117t-125 -45t-124 45t-48 117z" />
<glyph unicode="&#xfd;" horiz-adv-x="1165" d="M31 995v84h350l225 -612h6l209 612h316v-84l-525 -1327h-333v84l141 299zM502 1149v68l67 223h355v-88l-207 -203h-215z" />
<glyph unicode="&#xfe;" horiz-adv-x="1239" d="M98 -332v1766h234q83 0 110 -36q25 -33 25 -157v-268q137 123 321 123q275 0 373 -282q35 -101 35 -250t-36 -256t-98 -174q-122 -132 -325 -132q-165 0 -270 80v-414h-369zM467 287q61 -43 126.5 -43t102.5 12t66 44q61 67 61 237q0 232 -123 272q-36 12 -96.5 12 t-136.5 -35v-499z" />
<glyph unicode="&#xff;" horiz-adv-x="1165" d="M31 995v84h350l225 -612h6l209 612h316v-84l-525 -1327h-333v84l141 299zM223 1309q0 72 49.5 118t124.5 46q76 0 124 -46.5t48 -117.5q0 -72 -48 -117t-124 -45t-125 45t-49 117zM643 1309q0 72 48 118t124 46t125 -46.5t49 -117.5q0 -72 -49 -117t-125 -45t-124 45 t-48 117z" />
<glyph unicode="&#x152;" horiz-adv-x="1982" d="M53 709q0 725 770 725h1071v-275h-583v-305h407v-258h-407v-330h604v-266h-1102q-760 0 -760 709zM453 717q0 -244 91 -346.5t285 -102.5h91v897h-91q-195 0 -284 -100q-92 -104 -92 -348z" />
<glyph unicode="&#x153;" horiz-adv-x="1912" d="M41 535q0 252 164 410q157 151 399.5 151t390.5 -158q137 158 377 158q500 0 500 -543l-4 -94h-682q12 -132 78 -183q59 -47 198.5 -47t251.5 80h115v-219q-185 -106 -444 -106t-394 147q-143 -147 -381 -147q-246 0 -404 146q-165 152 -165 405zM414 531 q0 -161 55 -234.5t146 -73.5t146.5 74t55.5 234.5t-55 235.5t-146.5 75t-146.5 -75t-55 -236zM1188 651h336q-4 125 -45 172t-113.5 47t-104.5 -34q-58 -60 -73 -185z" />
<glyph unicode="&#x178;" horiz-adv-x="1304" d="M29 1337v97h368l287 -560h4l277 560h311v-97l-416 -794v-543h-393v532zM297 1642q0 72 49 117t125 45t124 -45t48 -117t-48 -116.5t-124 -44.5t-125 45t-49 116zM717 1642q0 72 48 117t124 45t125 -45t49 -117t-49 -116.5t-125 -44.5t-124 45t-48 116z" />
<glyph unicode="&#x2c6;" horiz-adv-x="815" d="M98 1149v78l187 213h247l183 -213v-78h-199l-115 86l-112 -86h-191z" />
<glyph unicode="&#x2dc;" horiz-adv-x="815" d="M51 1151v82q16 102 72.5 157.5t144.5 55.5q55 0 108 -18q94 -31 118 -31q47 0 63 49h184v-82q-16 -102 -72.5 -157.5t-142.5 -55.5q-62 0 -111 19q-90 34 -114 34q-53 0 -65 -53h-185z" />
<glyph unicode="&#x2000;" horiz-adv-x="949" />
<glyph unicode="&#x2001;" horiz-adv-x="1898" />
<glyph unicode="&#x2002;" horiz-adv-x="949" />
<glyph unicode="&#x2003;" horiz-adv-x="1898" />
<glyph unicode="&#x2004;" horiz-adv-x="632" />
<glyph unicode="&#x2005;" horiz-adv-x="474" />
<glyph unicode="&#x2006;" horiz-adv-x="316" />
<glyph unicode="&#x2007;" horiz-adv-x="316" />
<glyph unicode="&#x2008;" horiz-adv-x="237" />
<glyph unicode="&#x2009;" horiz-adv-x="379" />
<glyph unicode="&#x200a;" horiz-adv-x="105" />
<glyph unicode="&#x2010;" horiz-adv-x="626" d="M61 459v280h504v-280h-504z" />
<glyph unicode="&#x2011;" horiz-adv-x="626" d="M61 459v280h504v-280h-504z" />
<glyph unicode="&#x2012;" horiz-adv-x="626" d="M61 459v280h504v-280h-504z" />
<glyph unicode="&#x2013;" horiz-adv-x="915" d="M78 442v271h758v-271h-758z" />
<glyph unicode="&#x2014;" horiz-adv-x="1531" d="M78 440v273h1374v-273h-1374z" />
<glyph unicode="&#x2018;" horiz-adv-x="473" d="M51 1083q0 164 90 251t281 104v-150q-131 -17 -131 -78q0 -29 22.5 -38t48.5 -27q60 -48 60 -119.5t-49 -114.5t-106.5 -43t-93.5 12.5t-63 39.5q-59 59 -59 163z" />
<glyph unicode="&#x2019;" horiz-adv-x="473" d="M51 881v149q131 17 131 76q0 29 -22.5 38t-46.5 30q-62 41 -62 115.5t49.5 117.5t126.5 43q78 0 136.5 -52t58.5 -163q0 -164 -90 -252t-281 -102z" />
<glyph unicode="&#x201a;" horiz-adv-x="473" d="M51 -59q61 6 96 26.5t35 48.5q0 29 -22.5 38t-46.5 30q-62 41 -62 116t49.5 117.5t126.5 42.5q78 0 136.5 -52t58.5 -163q0 -166 -90 -253t-281 -103v152z" />
<glyph unicode="&#x201c;" horiz-adv-x="913" d="M51 1083q0 164 90 251t281 104v-150q-131 -17 -131 -78q0 -29 22.5 -38t48.5 -27q60 -48 60 -119.5t-49 -114.5t-106.5 -43t-93.5 12.5t-63 39.5q-59 59 -59 163zM492 1083q0 164 90 251t278 104v-150q-129 -17 -129 -78q0 -29 22.5 -38t48.5 -28q60 -44 60 -117 t-49 -116t-107.5 -43t-93 12.5t-61.5 39.5q-59 57 -59 163z" />
<glyph unicode="&#x201d;" horiz-adv-x="913" d="M51 881v149q131 17 131 76q0 29 -22.5 38t-46.5 30q-62 41 -62 115.5t49.5 117.5t126.5 43q78 0 136.5 -52t58.5 -163q0 -164 -90 -252t-281 -102zM492 881v149q131 17 131 76q0 29 -22.5 38t-48.5 28q-60 46 -60 119t49 116t106.5 43t93 -13.5t61.5 -38.5 q60 -58 60 -163q0 -164 -90 -252t-280 -102z" />
<glyph unicode="&#x201e;" horiz-adv-x="913" d="M51 -59q61 6 96 26.5t35 48.5q0 29 -22.5 38t-46.5 30q-62 41 -62 116t49.5 117.5t126.5 42.5q78 0 136.5 -52t58.5 -163q0 -166 -90 -253t-281 -103v152zM492 -59q61 6 96 26.5t35 48.5q0 29 -22.5 38t-48.5 28q-60 46 -60 119.5t49 116t106.5 42.5t93 -13t61.5 -39 q60 -57 60 -163q0 -166 -90 -253t-280 -103v152z" />
<glyph unicode="&#x2022;" horiz-adv-x="731" d="M61 571q0 139 90 221q87 80 216 80q130 0 215 -80q88 -82 88 -221q0 -136 -88 -218q-85 -79 -215 -79q-129 0 -216 79q-90 81 -90 218z" />
<glyph unicode="&#x2026;" horiz-adv-x="1472" d="M47 172q0 76 57 132q53 54 136 54q125 0 176 -113q16 -34 16 -73q0 -74 -56 -132q-53 -54 -137 -54q-40 0 -75 14t-60 40q-57 58 -57 132zM545 172q0 81 55 132q57 54 137 54t135 -54q58 -55 58 -132q0 -76 -58 -132q-55 -54 -136 -54q-40 0 -74.5 14t-61.5 40 q-55 53 -55 132zM1040 172q0 76 56 132q54 54 137 54q81 0 136 -54q56 -54 56 -132q0 -76 -56 -132q-54 -54 -137 -54q-40 0 -75 14t-61 40q-56 58 -56 132z" />
<glyph unicode="&#x202f;" horiz-adv-x="379" />
<glyph unicode="&#x2039;" horiz-adv-x="632" d="M63 467v129l232 387h274v-74l-215 -372v-5l215 -376v-74h-274z" />
<glyph unicode="&#x203a;" horiz-adv-x="632" d="M63 82v74l216 376v5l-216 372v74h275l231 -387v-129l-231 -385h-275z" />
<glyph unicode="&#x205f;" horiz-adv-x="474" />
<glyph unicode="&#x20ac;" horiz-adv-x="1257" d="M39 477v191h98v96h-98v190h125q57 248 228 373t421 125q131 0 219 -21.5t168 -66.5v-264h-151q-92 74 -220 74q-215 0 -268 -220h357l-35 -190h-342v-96h323l-37 -191h-266q25 -117 84.5 -168t169.5 -51q154 0 262 98h133v-247q-173 -127 -419.5 -127t-411 122.5 t-219.5 372.5h-121z" />
<glyph unicode="&#x2122;" horiz-adv-x="1449" d="M53 1288v146h516v-146h-159v-428h-199v428h-158zM647 860v574h281l82 -285h2l84 285h282v-574h-194v395h-2l-119 -395h-135l-117 395h-2v-395h-162z" />
<glyph unicode="&#xe000;" horiz-adv-x="1075" d="M0 0v1075h1075v-1075h-1075z" />
<glyph unicode="&#xfb01;" horiz-adv-x="1263" d="M25 842v237h116v66q0 166 95.5 239.5t269.5 73.5q109 0 186 -28v-207h-57q-61 0 -93 -17.5t-32 -75.5v-51h182v-237h-182v-842h-369v842h-116zM788 1317q0 76 54.5 125t136.5 49t136 -49t54 -125t-54 -124t-136 -48t-136.5 48t-54.5 124zM795 0v1079h237q83 0 106 -39 q23 -41 23 -168v-872h-366z" />
<glyph unicode="&#xfb02;" horiz-adv-x="1261" d="M25 842v237h116v66q0 166 95.5 239.5t269.5 73.5q109 0 186 -28v-207h-57q-61 0 -93 -17.5t-32 -75.5v-51h182v-237h-182v-842h-369v842h-116zM795 0v1434h233q83 0 108 -36q25 -34 25 -157v-1241h-366z" />
</font>
</defs>
</svg>
