<?xml version="1.0" encoding="utf-8"?>
<!-- Generator: Adobe Illustrator 16.0.0, SVG Export Plug-In . SVG Version: 6.00 Build 0)  -->
<!DOCTYPE svg PUBLIC "-//W3C//DTD SVG 1.1//EN" "http://www.w3.org/Graphics/SVG/1.1/DTD/svg11.dtd">
<svg version="1.1" id="Layer_1" xmlns="http://www.w3.org/2000/svg" xmlns:xlink="http://www.w3.org/1999/xlink" x="0px" y="0px"
	 width="419.33px" height="370px" viewBox="0 0 419.33 370" enable-background="new 0 0 419.33 370" xml:space="preserve">
<filter  height="130%" id="dropshadow">
	<feGaussianBlur  in="SourceAlpha" stdDeviation="5"></feGaussianBlur>
	<!--     stdDeviation is how much to blur     -->
	<feOffset  dx="2" dy="3" result="offsetblur"></feOffset>
	<!--     how much to offset     -->
	<feMerge>
		<feMergeNode></feMergeNode>
		<!--     this contains the offset blurred image     -->
		<feMergeNode  in="SourceGraphic"></feMergeNode>
		<!--     this contains the element that the filter is applied to     -->
	</feMerge>
</filter>
<g opacity="0.9" filter="url(#dropshadow)">
	
		<linearGradient id="SVGID_1_" gradientUnits="userSpaceOnUse" x1="612.5166" y1="204.665" x2="-5.7569" y2="-71.0297" gradientTransform="matrix(1 0 0 -1 -121 250)">
		<stop  offset="0" style="stop-color:#BD2B91"/>
		<stop  offset="1" style="stop-color:#EF435E"/>
	</linearGradient>
	<path fill="url(#SVGID_1_)" d="M13.97,332.86c-0.01,5.5,4.45,9.52,9.92,8.939l370.72-39.55c5.47-0.58,9.96-5.561,9.989-11.061
		L405.4,115.46c0.029-5.5-4.391-10.75-9.811-11.67L24.53,41c-5.42-0.92-9.87,2.83-9.88,8.33L13.97,332.86z"/>
</g>
<g opacity="0.9" filter="url(#dropshadow)">
	
		<linearGradient id="SVGID_2_" gradientUnits="userSpaceOnUse" x1="8271.9258" y1="-78.3604" x2="8910.3047" y2="263.0379" gradientTransform="matrix(-1 0 0 -1 8710.0547 250)">
		<stop  offset="0" style="stop-color:#ED1C24"/>
		<stop  offset="1" style="stop-color:#EF435E"/>
	</linearGradient>
	<path fill="url(#SVGID_2_)" d="M29.13,353.44c0,5.5,4.47,9.5,9.94,8.88l364.88-41.101c5.47-0.62,9.96-5.62,9.979-11.12l1.04-236.51
		c0.021-5.5-4.41-10.64-9.85-11.42L39.02,9.47c-5.44-0.78-9.9,3.08-9.9,8.58V353.44H29.13z"/>
</g>
</svg>
