<?xml version="1.0" encoding="utf-8"?>
<!-- Generator: Adobe Illustrator 16.0.0, SVG Export Plug-In . SVG Version: 6.00 Build 0)  -->
<!DOCTYPE svg PUBLIC "-//W3C//DTD SVG 1.1//EN" "http://www.w3.org/Graphics/SVG/1.1/DTD/svg11.dtd">
<svg version="1.1" id="Layer_1" xmlns="http://www.w3.org/2000/svg" xmlns:xlink="http://www.w3.org/1999/xlink" x="0px" y="0px" width="420px" height="415px" viewBox="0 0 420 415" enable-background="new 0 0 420 415" xml:space="preserve" preserveAspectRatio="none">

	<defs>
		<linearGradient id="grad1" gradientUnits="userSpaceOnUse" x1="3.7207" y1="308.3018" x2="313.4942" y2="95.3844">
			<stop  offset="0" style="stop-color:#864098"/>
			<stop  offset="1" style="stop-color:#EF435E"/>
		</linearGradient>
		<linearGradient id="grad2" gradientUnits="userSpaceOnUse" x1="8441.9844" y1="365.1133" x2="9067.6836" y2="30.4957" gradientTransform="matrix(-1 0 0 1 8836.4004 0)">
			<stop  offset="0" style="stop-color:#F15622"/>
			<stop  offset="1" style="stop-color:#FDC214"/>
		</linearGradient>
	</defs>

	<g opacity="0.9">
		<path fill="url(#grad1)" d="M20.94,350.63c0,5.5,4.47,9.52,9.94,8.94l375.9-40.11c5.47-0.58,9.96-5.56,9.97-11.06l0.75-239.97 c0.02-5.5-4.42-10.64-9.87-11.42L30.84,2.85c-5.44-0.78-9.9,3.08-9.9,8.58V350.63z"/>
	</g>
	<g opacity="0.9">
		<path fill="url(#grad2)" d="M0.5,404.37c0,5.5,4.47,9.47,9.93,8.83l342.52-40.34c5.46-0.64,9.94-5.67,9.96-11.17l0.76-261.5 c0.02-5.5-4.42-10.64-9.87-11.42L10.4,39.41c-5.44-0.78-9.9,3.08-9.9,8.58V404.37z"/>
	</g>
</svg>
