<?xml version="1.0" encoding="utf-8"?>
<!-- Generator: Adobe Illustrator 16.0.0, SVG Export Plug-In . SVG Version: 6.00 Build 0)  -->
<!DOCTYPE svg PUBLIC "-//W3C//DTD SVG 1.1//EN" "http://www.w3.org/Graphics/SVG/1.1/DTD/svg11.dtd">
<svg version="1.1" id="Layer_1" xmlns="http://www.w3.org/2000/svg" xmlns:xlink="http://www.w3.org/1999/xlink" x="0px" y="0px"
	 width="420px" height="415px" viewBox="0 0 420 415" enable-background="new 0 0 420 415" xml:space="preserve">
<def>
	<linearGradient  id="grad1" gradientUnits="userSpaceOnUse" y2="95.3844" y1="308.3018" x2="313.4942" x1="3.7207">
		<stop  style="stop-color:#864098" offset="0"></stop>
		<stop  style="stop-color:#EF435E" offset="1"></stop>
	</linearGradient>
	
		<linearGradient  id="grad2" gradientUnits="userSpaceOnUse" y2="30.4957" y1="365.1133" x2="9067.6836" x1="8441.9844" gradientTransform="matrix(-1 0 0 1 8836.4004 0)">
		<stop  style="stop-color:#F15622" offset="0"></stop>
		<stop  style="stop-color:#FDC214" offset="1"></stop>
	</linearGradient>
</def>
<g opacity="0.9">
	
		<linearGradient id="SVGID_1_" gradientUnits="userSpaceOnUse" x1="124.7192" y1="-13.3003" x2="434.4927" y2="199.6171" gradientTransform="matrix(1 0 0 -1 -121 295)">
		<stop  offset="0" style="stop-color:#864098"/>
		<stop  offset="1" style="stop-color:#EF435E"/>
	</linearGradient>
	<path fill="url(#SVGID_1_)" d="M20.94,350.63c0,5.5,4.47,9.521,9.94,8.94l375.9-40.11c5.47-0.58,9.96-5.56,9.97-11.06l0.75-239.97
		c0.02-5.5-4.42-10.64-9.87-11.42L30.84,2.85c-5.44-0.78-9.9,3.08-9.9,8.58V350.63z"/>
</g>
<g opacity="0.9">
	
		<linearGradient id="SVGID_2_" gradientUnits="userSpaceOnUse" x1="8191.9824" y1="-70.1128" x2="8817.6816" y2="264.5048" gradientTransform="matrix(-1 0 0 -1 8586.4004 295)">
		<stop  offset="0" style="stop-color:#F15622"/>
		<stop  offset="1" style="stop-color:#FDC214"/>
	</linearGradient>
	<path fill="url(#SVGID_2_)" d="M0.5,404.37c0,5.5,4.47,9.47,9.93,8.83l342.52-40.34c5.46-0.641,9.94-5.67,9.96-11.17l0.76-261.5
		c0.02-5.5-4.42-10.64-9.87-11.42L10.4,39.41c-5.44-0.78-9.9,3.08-9.9,8.58V404.37z"/>
</g>
</svg>
