<?xml version="1.0" standalone="no"?>
<!DOCTYPE svg PUBLIC "-//W3C//DTD SVG 1.1//EN" "http://www.w3.org/Graphics/SVG/1.1/DTD/svg11.dtd" >
<svg xmlns="http://www.w3.org/2000/svg">
<metadata>
Created by FontPrep 20130207 at Fri May 31 13:36:22 2013
 By lifu
Copyright (c) Christian Schwartz, 2007. All rights reserved.
</metadata>
<defs>
<font id="dea6adb41a90a5f04c8918bb7015af66" >
  <font-face 
    font-family="-Regular"
    font-weight="500"
    font-stretch="normal"
    units-per-em="2048"
    panose-1="2 11 5 3 4 0 0 2 0 4"
    ascent="1638"
    descent="-410"
    x-height="1071"
    cap-height="1434"
    bbox="-346 -344 6420 2011"
    underline-thickness="102"
    underline-position="-153"
    unicode-range="U+0020-FFFD"
  />
<missing-glyph horiz-adv-x="993" 
 />
    <glyph glyph-name=".notdef" horiz-adv-x="993" 
 />
    <glyph glyph-name=".null" horiz-adv-x="0" 
 />
    <glyph glyph-name="nonmarkingreturn" horiz-adv-x="614" 
 />
    <glyph glyph-name="space" unicode=" " horiz-adv-x="614" 
 />
    <glyph glyph-name="exclam" unicode="!" horiz-adv-x="543" 
d="M270 -10q-26 0 -48.5 9.5t-39.5 27t-27 40.5t-10 50t10 50.5t27 41t39.5 27.5t48.5 10t49 -10t40.5 -27.5t27.5 -41t10 -50.5t-10 -50t-27.5 -40.5t-40.5 -27t-49 -9.5zM160 1434h223v-134l-39 -931h-145l-39 931v134z" />
    <glyph glyph-name="quotedbl" unicode="&#x22;" horiz-adv-x="627" 
d="M362 1434h199v-125l-37 -291h-127l-35 291v125zM66 1434h198v-125l-35 -291h-125l-38 291v125z" />
    <glyph glyph-name="numbersign" unicode="#" 
d="M481 625h236l35 235h-238zM178 1024h213l62 410h145l-61 -410h237l60 410h147l-61 -410h192v-164h-215l-35 -235h193v-164h-215l-68 -461h-147l67 461h-235l-68 -461h-145l67 461h-192v164h215l35 235h-191v164z" />
    <glyph glyph-name="dollar" unicode="$" 
d="M324 1073q0 -128 81 -164.5t134 -52.5v432q-111 -15 -163 -72.5t-52 -142.5zM897 385q0 103 -54.5 150.5t-178.5 82.5v-471q233 33 233 238zM1010 1176h-76q-117 99 -258 114v-471q223 -61 319.5 -148t96.5 -263q0 -283 -164 -346t-264 -70v-201h-138v197
q-230 10 -393 125v176h78q124 -130 315 -146v514q-201 61 -295 148t-94 252t107 266t295 119v123h137v-121q187 -10 334 -105v-163z" />
    <glyph glyph-name="percent" unicode="%" horiz-adv-x="1638" 
d="M897 360q0 178 95 273.5t232 95.5q138 0 232 -96t94 -273t-95 -274.5t-231 -97.5q-137 0 -232 97t-95 275zM1224 111q75 0 118.5 62t43.5 185t-43.5 184.5t-118.5 61.5t-119 -61.5t-44 -184.5t44 -185t119 -62zM1241 1493h164l-1010 -1563h-164zM183 804q-95 97 -95 275
q0 177 95 272t232 95t231.5 -95.5t94.5 -271.5q0 -177 -94.5 -274.5t-231.5 -97.5t-232 97zM415 829q75 0 119 61.5t44 185.5t-44 185.5t-119 61.5t-119 -61.5t-44 -185.5t44 -185.5t119 -61.5z" />
    <glyph glyph-name="ampersand" unicode="&#x26;" horiz-adv-x="1346" 
d="M588 154q146 0 254 112l-379 441q-84 -50 -128 -115t-44 -168q0 -184 108.5 -227t188.5 -43zM948 147q-159 -159 -394 -159t-359.5 114.5t-124.5 303.5q0 281 303 413q-88 125 -88 277t111.5 251t298.5 99q188 0 298 -88v-164h-82q-84 82 -213 82q-89 0 -145.5 -51
t-56.5 -127t29 -129t98 -133l333 -385q88 193 103 385h180v-54q-39 -253 -164 -469l213 -245v-68h-211z" />
    <glyph glyph-name="quotesingle" unicode="'" horiz-adv-x="332" 
d="M66 1434h198v-125l-35 -291h-125l-38 291v125z" />
    <glyph glyph-name="parenleft" unicode="(" horiz-adv-x="643" 
d="M276 712q0 -298 92.5 -455.5t221.5 -215.5v-141h-47q-190 56 -329.5 257.5t-139.5 553.5t138.5 550t330.5 257h47v-144q-206 -91 -260 -294.5t-54 -367.5z" />
    <glyph glyph-name="parenright" unicode=")" horiz-adv-x="643" 
d="M51 41q318 141 318 699q0 266 -95 422.5t-223 211.5v144h51q187 -60 327 -254.5t140 -548.5q0 -460 -174.5 -620t-292.5 -195h-51v141z" />
    <glyph glyph-name="asterisk" unicode="*" horiz-adv-x="766" 
d="M299 1434h166v-84l-33 -183l150 90l75 25l52 -164l-74 -24l-170 -21l129 -123l49 -67l-133 -99l-49 68l-80 168l-76 -168l-49 -68l-133 99l49 67l129 123l-170 21l-76 24l54 164l73 -25l150 -90l-33 183v84z" />
    <glyph glyph-name="plus" unicode="+" 
d="M707 623v-385h-181v385h-362v170h362v385h181v-385h360v-170h-360z" />
    <glyph glyph-name="comma" unicode="," horiz-adv-x="614" 
d="M281 -26q0 20 -4.5 28t-11.5 13t-17 10t-26 16q-42 28 -42 84q0 55 26 79.5t48.5 33t63.5 8.5t79.5 -40.5t38.5 -119.5q0 -135 -65.5 -203t-198.5 -84v103q53 9 81 30.5t28 41.5z" />
    <glyph glyph-name="hyphen" unicode="-" horiz-adv-x="565" 
d="M76 698h413v-178h-413v178z" />
    <glyph glyph-name="period" unicode="." horiz-adv-x="614" 
d="M307 -10q-26 0 -49 9.5t-40.5 27t-27.5 40.5t-10 50t10 50.5t27.5 41t40.5 27.5t49 10t49.5 -10t41 -27.5t28 -41t10.5 -50.5t-10.5 -50t-28 -40.5t-41 -27t-49.5 -9.5z" />
    <glyph glyph-name="slash" unicode="/" horiz-adv-x="688" 
d="M27 -100v47l467 1571h161v-48l-469 -1570h-159z" />
    <glyph glyph-name="zero" unicode="0" 
d="M651 147q106 0 187.5 136.5t81.5 429.5q0 436 -118.5 503.5t-225 67.5t-188 -138.5t-81.5 -432.5q0 -433 119 -499.5t225 -66.5zM82 716q0 356 152.5 543t379.5 187t380 -187.5t153 -542.5t-153 -541.5t-380 -186.5t-379.5 186t-152.5 542z" />
    <glyph glyph-name="one" unicode="1" 
d="M584 0v1198l-314 -176h-65v145l452 267h150v-1434h-223z" />
    <glyph glyph-name="two" unicode="2" 
d="M590 1276q-182 0 -330 -127h-78v151q184 146 420 146q338 0 400.5 -147.5t62.5 -234.5q0 -152 -89.5 -280.5t-275.5 -304.5l-319 -303h692v-176h-944v178l416 406q161 158 230 259t69 207q0 105 -64.5 165.5t-189.5 60.5z" />
    <glyph glyph-name="three" unicode="3" 
d="M1040 1071q0 -244 -254 -323v-7q282 -57 284 -345q0 -86 -37.5 -165t-141.5 -161t-351 -82t-405 121v159h88q116 -116 307 -116q228 0 273 101t45 251.5t-303 150.5h-117v162h100q144 0 223.5 58.5t79.5 177.5q0 227 -253 227q-184 0 -310 -104h-82v145q176 125 406 125
q327 0 387.5 -140t60.5 -235z" />
    <glyph glyph-name="four" unicode="4" 
d="M274 494h478v659h-9l-469 -653v-6zM752 0v334h-646v192l658 908h205v-940h170v-160h-170v-334h-217z" />
    <glyph glyph-name="five" unicode="5" 
d="M180 639v795h830v-179h-666v-430h6q109 97 297 97t312 -112.5t124 -334.5q0 -223 -155 -355t-392 -132t-403 112v162h86q112 -112 284 -112t265.5 85t93.5 233t-74 220t-196 72q-169 0 -273 -121h-139z" />
    <glyph glyph-name="six" unicode="6" 
d="M654 737q-202 0 -332 -139q26 -459 317 -459q142 0 215.5 83.5t73.5 234.5q0 209 -108.5 244.5t-165.5 35.5zM324 745q144 148 359 148t338.5 -112t123.5 -323t-139 -340.5t-374 -129.5t-383.5 176t-148.5 532t179 553t489 197q171 0 295 -64v-165h-86q-81 67 -219 67
q-206 0 -315 -138.5t-119 -400.5z" />
    <glyph glyph-name="seven" unicode="7" 
d="M920 1255h-777v179h942v-195l-555 -1239h-206v94l596 1155v6z" />
    <glyph glyph-name="eight" unicode="8" 
d="M614 838q122 0 188 60t66 166t-66 167t-188 61t-188 -61t-66 -167t66 -166t188 -60zM614 137q78 0 136 20.5t96.5 57.5t57 86.5t18.5 108.5t-19 109.5t-57.5 87.5t-96 58t-135.5 21t-135.5 -21t-96 -58t-57 -87.5t-18.5 -109.5t18.5 -108.5t56 -86.5t96 -57.5
t136.5 -20.5zM848 762q287 -84 287 -376q0 -180 -134.5 -289t-386.5 -109q-251 0 -386.5 108.5t-135.5 308.5t112 269.5t177 87.5v6q-229 76 -229 320q0 72 33 141t93 117t145.5 74t243 26t284 -100t126.5 -272t-89 -230.5t-140 -75.5v-6z" />
    <glyph glyph-name="nine" unicode="9" 
d="M576 696q194 0 329 135q-17 358 -131 410.5t-184 52.5q-141 0 -216 -86.5t-75 -234.5q0 -208 110.5 -242.5t166.5 -34.5zM236 215q74 -68 266 -68q78 0 233.5 67t167.5 468q-143 -141 -357 -141t-340 109.5t-126 320t140.5 343t377 132.5t383.5 -176t147 -533
q0 -358 -174 -553.5t-497 -195.5q-175 0 -307 59v168h86z" />
    <glyph glyph-name="colon" unicode=":" horiz-adv-x="614" 
d="M306 -10q-26 0 -49.5 9.5t-41 27t-27.5 40.5t-10 63.5t37.5 78t77.5 37.5t63 -10t40.5 -27.5t27.5 -41t10 -50.5t-10 -50t-27.5 -40.5t-41 -27t-49.5 -9.5zM306 602q-26 0 -49.5 9.5t-41 27t-27.5 40.5t-10 63.5t37.5 78t77.5 37.5t63 -10t40.5 -27.5t27.5 -41t10 -50.5
t-10 -50t-27.5 -40.5t-41 -27t-49.5 -9.5z" />
    <glyph glyph-name="semicolon" unicode=";" horiz-adv-x="614" 
d="M306 602q-26 0 -49.5 9.5t-41 27t-27.5 40.5t-10 63.5t37.5 78t77.5 37.5t63 -10t40.5 -27.5t27.5 -41t10 -50.5t-10 -50t-27.5 -40.5t-41 -27t-49.5 -9.5zM276 -26q0 20 -4 28t-11 13t-17 10t-26 16q-42 28 -42 84q0 55 26 79.5t48.5 33t63.5 8.5t79.5 -40.5
t38.5 -119.5q0 -135 -65.5 -203t-198.5 -84v103q53 9 80.5 30.5t27.5 41.5z" />
    <glyph glyph-name="less" unicode="&#x3c;" 
d="M1026 1145v-158l-620 -307v-4l620 -311v-160h-53l-778 397v146l778 397h53z" />
    <glyph glyph-name="equal" unicode="=" 
d="M172 367v165h887v-165h-887zM172 756v166h887v-166h-887z" />
    <glyph glyph-name="greater" unicode="&#x3e;" 
d="M203 205v157l620 308v4l-620 311v160h55l776 -400v-143l-776 -397h-55z" />
    <glyph glyph-name="question" unicode="?" horiz-adv-x="903" 
d="M360 -10q-26 0 -49 9.5t-39.5 27t-26 40.5t-9.5 63.5t35.5 78t74.5 37.5q40 0 63 -10t40.5 -27.5t27.5 -41t10 -50.5t-10 -50t-27.5 -40.5t-40.5 -27t-49 -9.5zM424 1446q293 0 349 -131.5t56 -207.5q0 -127 -55 -209.5t-167 -183.5q-112 -102 -150 -166.5t-27 -178.5
h-156q-20 131 11 215t128 183q98 100 145.5 169.5t47.5 158.5t-51.5 135t-142.5 46q-170 0 -260 -107h-86v162q144 115 358 115z" />
    <glyph glyph-name="at" unicode="@" horiz-adv-x="1757" 
d="M944 805q-123 0 -209 -118t-86 -269q0 -72 32.5 -105.5t73.5 -33.5q118 0 236 133l82 360q-66 33 -129 33zM1440 -113q-202 -149 -568 -149q-327 0 -564.5 189.5t-237.5 568.5q0 265 126.5 462t323.5 298.5t379 101.5q352 0 570.5 -179.5t218.5 -490.5q0 -269 -136 -409
t-334 -140t-227 152q-126 -152 -291 -152t-201 105t-36 186t32.5 175t130 217.5t296.5 123.5q121 0 202 -76q22 32 46.5 50t66.5 18h66l-119 -518q-13 -71 3.5 -108.5t73.5 -37.5q120 0 194.5 102.5t74.5 311.5q0 248 -165.5 390.5t-440.5 142.5q-276 0 -482 -189.5
t-206 -557.5q0 -144 97.5 -371.5t559.5 -227.5q300 0 491 141h56v-129z" />
    <glyph glyph-name="A" unicode="A" horiz-adv-x="1309" 
d="M428 565h418l-207 633h-4zM1245 0h-211l-133 401h-526l-129 -401h-183v68l474 1366h237l471 -1366v-68z" />
    <glyph glyph-name="B" unicode="B" horiz-adv-x="1204" 
d="M846 1051q0 215 -254 215h-215v-437h213q256 0 256 222zM614 168q133 0 209 62t76 188t-77 188t-216 62h-229v-500h237zM1067 1065q0 -241 -246 -305v-6q305 -66 305 -346q0 -200 -132.5 -304t-372.5 -104h-463v1434h440q346 0 407.5 -134.5t61.5 -234.5z" />
    <glyph glyph-name="C" unicode="C" horiz-adv-x="1255" 
d="M1174 141q-177 -153 -458 -153q-282 0 -455 192.5t-173 534t184.5 536.5t470.5 195q144 0 232.5 -27.5t181.5 -87.5v-174h-86q-119 119 -320 119t-318.5 -143.5t-117.5 -417.5t110 -416.5t318 -142.5t359 155h72v-170z" />
    <glyph glyph-name="D" unicode="D" horiz-adv-x="1368" 
d="M561 168q257 0 375.5 128.5t118.5 421.5t-118.5 419.5t-375.5 126.5h-182v-1096h182zM1284 721q0 -721 -723 -721h-403v1434h409q536 0 626.5 -263t90.5 -450z" />
    <glyph glyph-name="E" unicode="E" horiz-adv-x="1139" 
d="M158 1434h878v-172h-657v-447h481v-164h-481v-483h680v-168h-901v1434z" />
    <glyph glyph-name="F" unicode="F" horiz-adv-x="1116" 
d="M158 0v1434h882v-172h-661v-480h502v-166h-502v-616h-221z" />
    <glyph glyph-name="G" unicode="G" horiz-adv-x="1354" 
d="M1214 98q-204 -110 -495 -110t-464 188t-173 538t182.5 541t493.5 191q186 0 273.5 -37t129.5 -59v-185h-80q-123 109 -319 109q-321 0 -383 -202t-62 -347q0 -290 106.5 -432.5t309.5 -142.5q158 0 260 51v370h-239v156h460v-629z" />
    <glyph glyph-name="H" unicode="H" horiz-adv-x="1395" 
d="M158 0v1434h221v-615h637v615h223v-1434h-223v651h-637v-651h-221z" />
    <glyph glyph-name="I" unicode="I" horiz-adv-x="549" 
d="M162 0v1434h225v-1434h-225z" />
    <glyph glyph-name="J" unicode="J" horiz-adv-x="905" 
d="M530 360v1074h226v-1078q0 -176 -101.5 -273t-291.5 -97t-314 75v170h78q80 -75 207 -75q196 0 196 204z" />
    <glyph glyph-name="K" unicode="K" horiz-adv-x="1294" 
d="M158 1434h221v-713l620 713h181v-68l-451 -510l500 -788v-68h-207l-438 694l-205 -223v-471h-221v1434z" />
    <glyph glyph-name="L" unicode="L" horiz-adv-x="1096" 
d="M158 0v1434h221v-1266h639v-168h-860z" />
    <glyph glyph-name="M" unicode="M" horiz-adv-x="1690" 
d="M158 1434h309l379 -1088h4l379 1088h303v-1434h-221v1169h-6l-410 -1169h-139l-406 1169h-8v-1169h-184v1434z" />
    <glyph glyph-name="N" unicode="N" horiz-adv-x="1391" 
d="M158 1434h256l624 -1055h4v1055h193v-1434h-205l-678 1149h-4v-1149h-190v1434z" />
    <glyph glyph-name="O" unicode="O" horiz-adv-x="1462" 
d="M1034.5 1134q-116.5 146 -304.5 146q-189 0 -304 -145t-115 -421t114.5 -418t304.5 -142q189 0 305 142.5t116 417t-116.5 420.5zM709 -12q-109 0 -227 47.5t-207 139.5t-141 228.5t-52 395.5t186.5 453t460.5 194t425.5 -156.5t187.5 -305.5t36 -267t-24 -218
t-66.5 -181t-102.5 -143t-131.5 -103.5t-153.5 -62.5t-191 -21z" />
    <glyph glyph-name="P" unicode="P" horiz-adv-x="1174" 
d="M379 715h192q160 0 234 67t74 211q0 212 -114 241.5t-194 29.5h-192v-549zM1104 993.5q0 -440.5 -533 -440.5h-192v-553h-221v1434h417q529 0 529 -440.5z" />
    <glyph glyph-name="Q" unicode="Q" horiz-adv-x="1464" 
d="M1151 713q0 277 -115.5 422t-305.5 145t-304.5 -144.5t-114.5 -421.5t116.5 -420.5t304.5 -143.5q189 0 304 143t115 420zM82 724q0 170 52 306.5t141 228.5t207 139.5t321 47.5t389 -193.5t186 -535.5q0 -262 -117.5 -436.5t-318.5 -231.5v-4l479 -90v-176h-94l-657 184
q-285 83 -436.5 262.5t-151.5 498.5z" />
    <glyph glyph-name="R" unicode="R" horiz-adv-x="1255" 
d="M381 762h197q221 0 256.5 91.5t35.5 160.5q0 133 -75.5 191.5t-216.5 58.5h-197v-502zM1096 1026q0 -285 -236 -383l309 -575v-68h-202l-316 600q-15 -2 -19 -2h-251v-598h-221v1434h424q372 0 442 -151.5t70 -256.5z" />
    <glyph glyph-name="S" unicode="S" horiz-adv-x="1065" 
d="M274 1067q0 -103 65.5 -148t196.5 -80t212 -68.5t161 -104.5t80 -266t-128.5 -303.5t-375.5 -108.5t-426 121v180h78q126 -131 352 -131q140 0 217.5 57t77.5 174t-69.5 159t-129 59t-140.5 41q-185 54 -275 145.5t-90 267.5t122.5 280.5t342.5 104.5t373 -96v-174h-76
q-127 100 -281 100q-287 0 -287 -209z" />
    <glyph glyph-name="T" unicode="T" horiz-adv-x="1167" 
d="M471 0v1266h-412v168h1047v-168h-412v-1266h-223z" />
    <glyph glyph-name="U" unicode="U" horiz-adv-x="1380" 
d="M714 164q157 0 237.5 79.5t80.5 278.5v912h199v-906q0 -273 -131.5 -406.5t-397.5 -133.5q-396 0 -474 201.5t-78 338.5v906h223v-912q0 -290 133.5 -324t207.5 -34z" />
    <glyph glyph-name="V" unicode="V" horiz-adv-x="1296" 
d="M61 1434h209l385 -1160h4l388 1160h188v-68l-473 -1366h-232l-469 1366v68z" />
    <glyph glyph-name="W" unicode="W" horiz-adv-x="1812" 
d="M66 1434h210l256 -1125h5l282 1125h197l280 -1125h4l256 1125h191v-68l-338 -1366h-235l-263 1081h-4l-268 -1081h-236l-337 1366v68z" />
    <glyph glyph-name="X" unicode="X" horiz-adv-x="1280" 
d="M94 1434h209l350 -549l328 549h180v-72l-385 -629l426 -661v-72h-207l-379 598l-360 -598h-178v72l418 676l-402 614v72z" />
    <glyph glyph-name="Y" unicode="Y" horiz-adv-x="1190" 
d="M494 0v573l-439 789v72h203l352 -650h2l344 650h179v-72l-420 -782v-580h-221z" />
    <glyph glyph-name="Z" unicode="Z" horiz-adv-x="1108" 
d="M807 1266h-696v168h931v-183l-749 -1081v-6h741v-164h-979v178l752 1082v6z" />
    <glyph glyph-name="bracketleft" unicode="[" horiz-adv-x="645" 
d="M158 1518h417v-148h-219v-1323h219v-147h-417v1618z" />
    <glyph glyph-name="backslash" unicode="\" horiz-adv-x="688" 
d="M33 1518h160l469 -1571v-47h-162l-467 1570v48z" />
    <glyph glyph-name="bracketright" unicode="]" horiz-adv-x="643" 
d="M485 -100h-417v147h221v1323h-221v148h417v-1618z" />
    <glyph glyph-name="asciicircum" unicode="^" horiz-adv-x="854" 
d="M809 936h-170l-209 305h-6l-209 -305h-170v57l297 441h172l295 -441v-57z" />
    <glyph glyph-name="underscore" unicode="_" horiz-adv-x="729" 
d="M10 -332v144h709v-144h-709z" />
    <glyph glyph-name="grave" unicode="`" horiz-adv-x="834" 
d="M176 1434h209l102 -224v-49h-118l-193 205v68z" />
    <glyph glyph-name="a" unicode="a" horiz-adv-x="1057" 
d="M272 319q0 -188 199 -188q137 0 246 123v227q-95 21 -174 21q-271 0 -271 -183zM528 1087q296 0 348 -119.5t52 -207.5v-760h-82q-64 0 -89.5 25t-33.5 94q-121 -131 -320 -131q-150 0 -242.5 83t-92.5 239t113 239.5t302 83.5q118 0 234 -29v141q0 96 -54.5 139.5
t-160.5 43.5q-172 0 -293 -88h-66v155q184 92 385 92z" />
    <glyph glyph-name="b" unicode="b" horiz-adv-x="1169" 
d="M883 530q0 218 -73.5 304t-199.5 86t-264 -123v-557q95 -99 248 -99q198 0 243.5 135.5t45.5 253.5zM694 1087q273 0 337.5 -192.5t64.5 -346.5q0 -287 -129.5 -423.5t-325.5 -136.5t-317 114q-17 -45 -44.5 -73.5t-56.5 -28.5h-86v1434h115q60 0 77 -25t17 -115v-360
q153 153 348 153z" />
    <glyph glyph-name="c" unicode="c" horiz-adv-x="1001" 
d="M588 -12q-245 0 -381.5 146t-136.5 400t148 403.5t380 149.5q190 0 322 -86v-163h-86q-88 88 -233 88t-231.5 -103t-86.5 -288q0 -288 119 -338t190 -50q163 0 260 103h78v-152q-141 -110 -342 -110z" />
    <glyph glyph-name="d" unicode="d" horiz-adv-x="1171" 
d="M287 530q0 -389 254 -389q88 0 155 39t127 105v544q-95 91 -245 91q-199 0 -245 -136t-46 -254zM823 1434h115q61 0 77.5 -24.5t16.5 -115.5v-1294h-137q-35 0 -50.5 28t-19.5 117q-128 -157 -323 -157q-194 0 -310 133.5t-116 411.5t129 416t316 138t302 -110v457z" />
    <glyph glyph-name="e" unicode="e" horiz-adv-x="1077" 
d="M560 944q-113 0 -184.5 -75t-86.5 -236h512q-6 246 -96.5 278.5t-144.5 32.5zM610 145q179 0 297 99h68v-146q-159 -110 -399 -110q-239 0 -372.5 145t-133.5 398t138 404.5t351 151.5q328 0 388.5 -193t60.5 -325l-2 -73h-721q12 -274 131 -312.5t194 -38.5z" />
    <glyph glyph-name="f" unicode="f" horiz-adv-x="649" 
d="M476 1448q81 0 140 -23v-131h-90q-75 0 -111 -30.5t-36 -108.5v-84h219v-147h-219v-924h-209v924h-129v147h129v92q0 285 306 285z" />
    <glyph glyph-name="g" unicode="g" horiz-adv-x="1169" 
d="M287 552q0 -203 68 -287.5t202 -84.5q133 0 266 133v512q-99 95 -245 95q-199 0 -245 -129t-46 -239zM1032 1071v-1034q0 -185 -132 -283t-372 -98t-401 90v158h68q117 -92 315 -92q313 0 313 239v115q-132 -139 -320 -139t-307.5 125.5t-119.5 393.5q0 269 131 405
t321 136t310 -116q21 100 98 100h96z" />
    <glyph glyph-name="h" unicode="h" horiz-adv-x="1159" 
d="M756 1087q274 0 274 -294v-793h-209v743q0 139 -61.5 154.5t-100.5 15.5q-129 0 -313 -106v-807h-209v1434h115q60 0 77 -25t17 -115v-358q190 151 410 151z" />
    <glyph glyph-name="i" unicode="i" horiz-adv-x="492" 
d="M246 1190q-24 0 -46.5 9.5t-39.5 25.5t-27 37.5t-10 59.5t37.5 74t73.5 36t58.5 -10t39.5 -26.5t27 -39t10 -47.5t-10 -46.5t-27 -37.5t-39.5 -25.5t-46.5 -9.5zM139 0v1071h117q60 0 76 -28.5t16 -131.5v-911h-209z" />
    <glyph glyph-name="j" unicode="j" horiz-adv-x="492" 
d="M246 1190q-24 0 -46.5 9.5t-39.5 25.5t-27 37.5t-10 59.5t37.5 74t73.5 36t58.5 -10t39.5 -26.5t27 -39t10 -47.5t-10 -46.5t-27 -37.5t-39.5 -25.5t-46.5 -9.5zM78 -340q-79 0 -129 16v129h59q72 0 101.5 36.5t29.5 111.5v1118h117q59 0 75.5 -28t16.5 -132v-970
q0 -281 -270 -281z" />
    <glyph glyph-name="k" unicode="k" horiz-adv-x="1057" 
d="M958 1071v-61l-331 -369l366 -578v-63h-190l-318 496l-139 -154v-342h-209v1434h115q60 0 77 -25t17 -115v-725l438 502h174z" />
    <glyph glyph-name="l" unicode="l" horiz-adv-x="489" 
d="M139 0v1434h117q61 0 77.5 -24.5t16.5 -115.5v-1294h-211z" />
    <glyph glyph-name="m" unicode="m" horiz-adv-x="1772" 
d="M635 913q-131 0 -289 -102v-811h-209v1071h131q40 0 57 -25.5t21 -105.5q189 147 384 147t245 -155q188 155 387 155q278 0 278 -284v-803h-206v748q0 130 -57.5 147.5t-94.5 17.5q-128 0 -289 -102v-811h-209v748q0 93 -38.5 129t-110.5 36z" />
    <glyph glyph-name="n" unicode="n" horiz-adv-x="1159" 
d="M659 913q-129 0 -313 -106v-807h-209v1071h131q41 0 57.5 -26.5t20.5 -108.5q190 151 410 151q274 0 274 -294v-793h-209v743q0 139 -61.5 154.5t-100.5 15.5z" />
    <glyph glyph-name="o" unicode="o" horiz-adv-x="1163" 
d="M582 145q68 0 123.5 24t94.5 72.5t60 121t21 169.5t-21 171.5t-60 124.5t-94.5 76t-123.5 26t-123 -26t-94 -76t-60.5 -124.5t-21.5 -171.5t21.5 -169.5t60.5 -121t94 -72.5t123 -24zM70 533q0 251 145 402.5t367 151.5t367 -151t145 -403q0 -251 -145 -398t-367 -147
t-367 147t-145 398z" />
    <glyph glyph-name="p" unicode="p" horiz-adv-x="1169" 
d="M592 160q291 0 291 380t-270 380q-123 0 -267 -123v-543q94 -94 246 -94zM694 1087q272 0 337 -190.5t65 -341.5q0 -282 -131.5 -415.5t-316.5 -133.5t-302 96v-434h-209v1403h131q41 0 57.5 -26.5t20.5 -110.5q153 153 348 153z" />
    <glyph glyph-name="q" unicode="q" horiz-adv-x="1169" 
d="M287 544q0 -210 67.5 -297t206.5 -87t262 135v530q-97 95 -248 95q-197 0 -242.5 -132.5t-45.5 -243.5zM823 145q-125 -139 -341 -139q-68 0 -144.5 29t-169 128.5t-92.5 374.5t130.5 412t321.5 137q190 0 310 -118q25 102 98 102h96v-1403h-209v477z" />
    <glyph glyph-name="r" unicode="r" horiz-adv-x="768" 
d="M346 0h-209v1071h131q40 0 57 -27.5t21 -119.5q137 157 307 157q31 0 58 -8v-172q-11 0 -21 1l-26 1q-180 0 -318 -121v-782z" />
    <glyph glyph-name="s" unicode="s" horiz-adv-x="907" 
d="M264 786q0 -63 51 -95t158 -47q107 -16 172 -38.5t108 -59.5t64 -91.5t21 -171.5t-102.5 -205t-309.5 -88t-348 94v162h67q101 -96 273 -96q223 0 223 155q0 68 -48 102t-153 50q-197 30 -279.5 100t-82.5 217t103 228t286 81t311 -75v-160h-67q-96 76 -246 76
q-201 0 -201 -138z" />
    <glyph glyph-name="t" unicode="t" horiz-adv-x="680" 
d="M473 -12q-157 0 -230 65.5t-73 210.5v660h-129v147h129v291h209v-291h237v-147h-237v-635q0 -119 56.5 -132.5t96.5 -13.5h97v-135q-73 -20 -156 -20z" />
    <glyph glyph-name="u" unicode="u" horiz-adv-x="1171" 
d="M137 272v799h209v-752q0 -139 64.5 -154t101.5 -15q131 0 303 102v819h209v-1071h-131q-39 0 -55.5 23.5t-20.5 97.5q-186 -135 -387 -135q-293 0 -293 286z" />
    <glyph glyph-name="v" unicode="v" horiz-adv-x="1081" 
d="M55 1071h195l303 -819h4l289 819h180v-59l-379 -1012h-203l-389 1012v59z" />
    <glyph glyph-name="w" unicode="w" horiz-adv-x="1548" 
d="M59 1071h195l215 -774h4l234 774h163l232 -774h4l213 774h170v-61l-295 -1010h-186l-230 766h-4l-233 -766h-185l-297 1010v61z" />
    <glyph glyph-name="x" unicode="x" horiz-adv-x="1055" 
d="M78 1071h194l263 -399l241 399h172v-61l-286 -451l327 -498v-61h-192l-285 440l-272 -440h-177v61l324 488l-309 461v61z" />
    <glyph glyph-name="y" unicode="y" horiz-adv-x="1077" 
d="M55 1071h197l305 -752h2l285 752h180v-57l-535 -1346h-180v60l148 333l-402 953v57z" />
    <glyph glyph-name="z" unicode="z" horiz-adv-x="977" 
d="M113 918v153h794v-153l-600 -762h586v-156h-817v154l598 764h-561z" />
    <glyph glyph-name="braceleft" unicode="{" horiz-adv-x="705" 
d="M485 -100q-262 0 -262 252v380q0 48 -28.5 81.5t-88.5 33.5h-51v148h51q60 0 88.5 33.5t28.5 82.5v357q0 250 262 250h152v-148h-125q-43 0 -66.5 -28.5t-23.5 -71.5v-350q0 -79 -36.5 -126t-117.5 -69v-4q81 -22 117.5 -70t36.5 -127v-374q0 -44 23.5 -73.5t66.5 -29.5
h125v-147h-152z" />
    <glyph glyph-name="bar" unicode="|" horiz-adv-x="399" 
d="M283 -100h-168v1618h168v-1618z" />
    <glyph glyph-name="braceright" unicode="}" horiz-adv-x="705" 
d="M221 1518q260 0 260 -250v-357q0 -81 43 -98.5t74 -17.5h49v-148h-49q-62 0 -89.5 -33.5t-27.5 -81.5v-380q0 -252 -260 -252h-153v147h122q44 0 69.5 29.5t25.5 73.5v374q0 79 36 127t117 70v4q-81 22 -117 69t-36 126v350q0 43 -25.5 71.5t-69.5 28.5h-122v148h153z
" />
    <glyph glyph-name="asciitilde" unicode="~" horiz-adv-x="754" 
d="M260 535q-56 0 -76 -76h-129v71q30 131 93 159t101 28t73 -10.5t66.5 -22.5t58 -22.5t47.5 -10.5q55 0 73 74h129v-70q-26 -130 -90 -158t-102 -28t-71.5 10.5t-65 22.5t-59 22.5t-48.5 10.5z" />
    <glyph glyph-name="uni00A0" unicode="&#xa0;" horiz-adv-x="614" 
 />
    <glyph glyph-name="sterling" unicode="&#xa3;" 
d="M305 428q0 98 -24 209h-136v149h103q-35 158 -35 252q0 188 133 298t328 110t272.5 -43t112.5 -68v-161h-80q-121 102 -281 102q-189 0 -227.5 -88t-38.5 -166t31 -236h379v-149h-355q19 -121 19 -205q0 -152 -109 -256h688v-176h-948v154q168 79 168 274z" />
    <glyph glyph-name="brokenbar" unicode="&#xa6;" horiz-adv-x="342" 
d="M86 1518h168l2 -721h-170v721zM86 633h170l-2 -733h-168v733z" />
    <glyph glyph-name="section" unicode="&#xa7;" horiz-adv-x="1055" 
d="M795 557q0 80 -63 125.5t-189 77.5q-26 6 -50 13t-47 13q-103 -14 -149.5 -59.5t-46.5 -95.5q0 -86 52.5 -132t178.5 -81q35 -11 69.5 -20.5t63.5 -20.5q181 42 181 180zM281 860q-123 84 -123 251q0 158 104 246.5t297 88.5t318 -80v-158h-68q-100 78 -256 78
q-100 0 -156.5 -40.5t-56.5 -112.5q0 -103 90 -139t172 -56q192 -48 287.5 -126.5t95.5 -225.5q0 -204 -209 -281q125 -83 125 -242q0 -238 -156.5 -285.5t-263.5 -47.5q-210 0 -362 92v162h67q67 -64 155.5 -80.5t137.5 -16.5q219 0 219 156q0 74 -55 110.5t-184 74.5
q-130 38 -263 98.5t-133 263.5t218 270z" />
    <glyph glyph-name="dieresis" unicode="&#xa8;" horiz-adv-x="834" 
d="M592 1190q-24 0 -45 9t-36.5 24.5t-24.5 36.5t-9 45t9 44.5t24.5 36t36.5 24.5t45 9t45 -9t37 -24.5t25.5 -36t9.5 -44.5t-9.5 -45t-25.5 -36.5t-37 -24.5t-45 -9zM240 1190q-24 0 -45.5 9t-37 24.5t-25 36.5t-9.5 45t9.5 44.5t25 36t37 24.5t45.5 9t45.5 -9t37 -24.5
t24.5 -36t9 -44.5t-9 -45t-24.5 -36.5t-37 -24.5t-45.5 -9z" />
    <glyph glyph-name="copyright" unicode="&#xa9;" horiz-adv-x="1587" 
d="M602 717q0 -268 224 -268q110 0 175 71h68v-121q-100 -82 -269 -82t-270.5 107t-101.5 293.5t110.5 295.5t265.5 109t259 -61v-135h-74q-57 65 -168 65q-154 0 -186.5 -103.5t-32.5 -170.5zM1397 717q0 297 -171 469t-432 172q-260 0 -432 -172t-172 -469t172 -468
t432 -171q262 0 432.5 171t170.5 468zM818 -14q-118 0 -208 21.5t-168.5 63t-144.5 103.5t-113 143t-73.5 181.5t-26.5 218.5t26.5 218.5t96 220.5t232 206t330.5 86q167 0 295.5 -47.5t226 -140.5t155 -229.5t57.5 -313.5t-57.5 -313.5t-155 -229.5t-226 -140.5
t-246.5 -47.5z" />
    <glyph glyph-name="ordfeminine" unicode="&#xaa;" horiz-adv-x="893" 
d="M246 798q0 -148 160 -149q115 0 200 96v185q-99 16 -157 16q-203 0 -203 -148zM457 1446q255 0 298.5 -103t43.5 -182v-633h-90q-49 0 -70 22t-29 77q-103 -109 -268 -109q-199 0 -242 100t-43 169q0 135 96 206.5t230 71.5t223 -25v105q0 83 -44 117t-138 34
q-146 0 -242 -71h-61v143q156 78 336 78z" />
    <glyph glyph-name="guillemotleft" unicode="&#xab;" horiz-adv-x="977" 
d="M897 977v-55l-254 -385v-5l254 -391v-53h-166l-270 397v93l270 399h166zM514 977v-55l-252 -385v-5l252 -391v-53h-164l-270 397v93l270 399h164z" />
    <glyph glyph-name="registered" unicode="&#xae;" horiz-adv-x="829" 
d="M420 1106q57 0 57 56t-57 55h-47v-111h47zM575 1161q0 -71 -65 -102l72 -125v-35h-90l-74 139h-45v-139h-101v385h156q147 0 147 -123zM414 786q60 0 112 19t90.5 56t61 92.5t22.5 163t-80 185.5t-206 78q-199 0 -244 -111.5t-45 -185.5t22.5 -129.5t61.5 -92.5t92 -56
t113 -19zM153.5 817.5q-108.5 100.5 -108.5 266.5t108.5 266t259.5 100t260 -100t109 -266q0 -167 -109.5 -267t-259.5 -100q-151 0 -259.5 100.5z" />
    <glyph glyph-name="macron" unicode="&#xaf;" horiz-adv-x="834" 
d="M657 1221h-481v147h481v-147z" />
    <glyph glyph-name="degree" unicode="&#xb0;" horiz-adv-x="692" 
d="M346 1006q66 0 110 45t44 100q0 93 -43.5 138.5t-110.5 45.5q-103 0 -126 -63.5t-23 -101.5t11 -68t41.5 -63t96.5 -33zM152.5 970q-80.5 77 -80.5 199t79.5 199.5t195 77.5t195 -77.5t79.5 -199.5t-80.5 -199t-194 -77t-194 77z" />
    <glyph glyph-name="acute" unicode="&#xb4;" horiz-adv-x="834" 
d="M346 1161v49l103 224h210v-68l-192 -205h-121z" />
    <glyph glyph-name="uni00B6" unicode="&#xb6;" horiz-adv-x="1422" 
d="M571.5 95.5q60.5 50.5 60.5 132.5q0 44 -17.5 68t-35.5 39.5t-41 31t-51 35.5q-93 28 -186.5 -1t-125 -80t-31.5 -89t17.5 -72t66 -74.5t166.5 -40.5q117 0 177.5 50.5zM519.5 706q39.5 61 27.5 150t-68 152.5t-124.5 65.5t-108 -58t-27.5 -150t68.5 -153.5t124.5 -65.5
t107.5 59zM561 1067q113 -46 113 -215q0 -45 -27.5 -90.5t-60.5 -71.5q-55 -42 -67.5 -62t-12.5 -40q0 -48 93 -115q71 -51 97 -102.5t26 -113.5q0 -117 -93 -192.5t-248 -75.5t-259.5 56.5t-104.5 153t100.5 173t244.5 76.5q17 0 31.5 0.5t29.5 0.5q-47 47 -47 88t17 75
q-8 -1 -11 -1h-22q-118 0 -192.5 73t-74.5 179t93 184t213 78h351l-78 -58h-111zM1361 840h-229v-228h-56v228h-227v56h227v229h56v-229h229v-56z" />
    <glyph glyph-name="periodcentered" unicode="&#xb7;" horiz-adv-x="403" 
d="M201 492q-26 0 -49 9.5t-40 26.5t-26.5 40t-9.5 50t9.5 50.5t26.5 41.5t40 28t49 10t49 -10t40.5 -28t27.5 -41.5t10 -50.5t-10 -50t-27.5 -40t-40.5 -26.5t-49 -9.5z" />
    <glyph glyph-name="uni00BB" unicode="&#xbb;" horiz-adv-x="1843" 
d="M582 672l-582 579v158l14 14l748 -749l-748 -748l-14 13v151z" />
    <glyph glyph-name="Aacute" unicode="&#xc1;" horiz-adv-x="1309" 
d="M428 565h418l-207 633h-4zM1245 0h-211l-133 401h-526l-129 -401h-183v68l474 1366h237l471 -1366v-68zM875 1724v-65l-176 -180h-121v51l88 194h209z" />
    <glyph glyph-name="Egrave" unicode="&#xc8;" horiz-adv-x="1139" 
d="M158 1434h878v-172h-657v-447h481v-164h-481v-483h680v-168h-901v1434zM393 1724h211l88 -194v-51h-118l-181 180v65z" />
    <glyph glyph-name="Eacute" unicode="&#xc9;" horiz-adv-x="1139" 
d="M158 1434h878v-172h-657v-447h481v-164h-481v-483h680v-168h-901v1434zM846 1724v-65l-176 -180h-121v51l88 194h209z" />
    <glyph glyph-name="Igrave" unicode="&#xcc;" horiz-adv-x="549" 
d="M162 0v1434h225v-1434h-225zM50 1724h211l88 -194v-51h-118l-181 180v65z" />
    <glyph glyph-name="Iacute" unicode="&#xcd;" horiz-adv-x="549" 
d="M162 0v1434h225v-1434h-225zM505 1724v-65l-176 -180h-121v51l88 194h209z" />
    <glyph glyph-name="Oacute" unicode="&#xd3;" horiz-adv-x="1462" 
d="M1035 1134q-117 146 -305 146q-189 0 -304 -145t-115 -421t115 -418q114 -142 304 -142q189 0 301 137q120 148 120 423q0 274 -116 420zM709 -12q-109 0 -227 48t-207 139q-89 93 -141 229t-52 313q0 341 187 535t460 194q274 0 456 -188q121 -126 169 -324
q24 -100 24 -217q0 -118 -24 -218t-66 -181t-103 -143q-59 -61 -131 -103t-154 -63t-191 -21zM959 1724v-65l-176 -180h-121v51l88 194h209z" />
    <glyph glyph-name="multiply" unicode="&#xd7;" 
d="M616 578l-307 -308l-112 117l305 307l-305 307l112 117l307 -307l306 307l112 -117l-305 -307l305 -307l-112 -117z" />
    <glyph glyph-name="agrave" unicode="&#xe0;" horiz-adv-x="1057" 
d="M272 319q0 -188 199 -188q137 0 246 123v227q-95 21 -174 21q-271 0 -271 -183zM528 1087q296 0 373 -177q27 -62 27 -150v-760h-82q-64 0 -89 25q-26 25 -34 94q-121 -131 -320 -131q-150 0 -243 83q-92 83 -92 239t113 240q113 83 302 83q118 0 234 -29v141
q-1 95 -55 139t-160 44q-172 0 -293 -88h-66v155q184 92 385 92zM276 1434h209l102 -224v-49h-118l-193 205v68z" />
    <glyph glyph-name="aacute" unicode="&#xe1;" horiz-adv-x="1057" 
d="M272 319q0 -188 199 -188q137 0 246 123v227q-95 21 -174 21q-271 0 -271 -183zM528 1087q296 0 373 -177q27 -62 27 -150v-760h-82q-64 0 -89 25q-26 25 -34 94q-121 -131 -320 -131q-150 0 -243 83q-92 83 -92 239t113 240q113 83 302 83q118 0 234 -29v141
q-1 95 -55 139t-160 44q-172 0 -293 -88h-66v155q184 92 385 92zM469 1161v49l103 224h210v-68l-192 -205h-121z" />
    <glyph glyph-name="adieresis" unicode="&#xe4;" horiz-adv-x="1057" 
d="M272 319q0 -188 199 -188q137 0 246 123v227q-95 21 -174 21q-271 0 -271 -183zM528 1087q296 0 373 -177q27 -62 27 -150v-760h-82q-64 0 -89 25q-26 25 -34 94q-121 -131 -320 -131q-150 0 -243 83q-92 83 -92 239t113 240q113 83 302 83q118 0 234 -29v141
q-1 95 -55 139t-160 44q-172 0 -293 -88h-66v155q184 92 385 92zM704 1190q-24 0 -45 9t-37 25t-24 36q-9 21 -9 45q0 25 9 45q8 20 24 36t37 24q21 9 45 9t45 -9q21 -8 37 -24t26 -36t9 -45q1 -24 -9 -45q-10 -20 -26 -36t-37 -25t-45 -9zM352 1190q-24 0 -46 9t-36 25
q-16 16 -26 36q-10 21 -9 45q-1 25 9 45t26 36t36 24q22 9 46 9t46 -9q22 -8 36 -24q16 -16 25 -36t9 -45q0 -24 -9 -45q-9 -20 -25 -36t-36 -25q-22 -9 -46 -9z" />
    <glyph glyph-name="egrave" unicode="&#xe8;" horiz-adv-x="1077" 
d="M560 944q-113 0 -184 -75q-72 -75 -87 -236h512q-7 246 -143 295q-44 16 -98 16zM610 145q179 0 297 99h68v-146q-159 -110 -399 -110q-239 0 -372 145q-134 145 -134 398t138 404q138 152 351 152q329 -1 419 -289q30 -98 30 -229l-2 -73h-721q12 -274 191 -332
q59 -19 134 -19zM305 1434h209l102 -224v-49h-118l-193 205v68z" />
    <glyph glyph-name="eacute" unicode="&#xe9;" horiz-adv-x="1077" 
d="M560 944q-113 0 -184 -75q-72 -75 -87 -236h512q-7 246 -143 295q-44 16 -98 16zM610 145q179 0 297 99h68v-146q-159 -110 -399 -110q-239 0 -372 145q-134 145 -134 398t138 404q138 152 351 152q329 -1 419 -289q30 -98 30 -229l-2 -73h-721q12 -274 191 -332
q59 -19 134 -19zM496 1161v49l103 224h210v-68l-192 -205h-121z" />
    <glyph glyph-name="edieresis" unicode="&#xeb;" horiz-adv-x="1077" 
d="M560 944q-113 0 -184 -75q-72 -75 -87 -236h512q-7 246 -143 295q-44 16 -98 16zM610 145q179 0 297 99h68v-146q-159 -110 -399 -110q-239 0 -372 145q-134 145 -134 398t138 404q138 152 351 152q329 -1 419 -289q30 -98 30 -229l-2 -73h-721q12 -274 191 -332
q59 -19 134 -19zM729 1190q-24 0 -45 9q-20 9 -36 25t-25 36q-9 21 -9 45q0 25 9 45t25 36t36 24q21 9 45 9t45 -9q21 -8 37 -24q15 -16 25 -36t10 -45q0 -24 -10 -45q-10 -20 -25 -36q-16 -16 -37 -25t-45 -9zM377 1190q-23 0 -45 9t-38 25t-24 36q-10 21 -10 45
q0 25 10 45t24 36q16 16 38 24q22 9 45 9t45 -9q22 -8 38 -24t24 -36q9 -20 9 -45q0 -24 -9 -45q-8 -20 -24 -36t-38 -25t-45 -9z" />
    <glyph glyph-name="igrave" unicode="&#xec;" horiz-adv-x="492" 
d="M6 1434h209l102 -224v-49h-118l-193 205v68zM139 0v1071h117q60 0 76 -28.5t16 -131.5v-911h-209z" />
    <glyph glyph-name="iacute" unicode="&#xed;" horiz-adv-x="492" 
d="M167 1161v49l103 224h210v-68l-192 -205h-121zM139 0v1071h117q60 0 76 -28.5t16 -131.5v-911h-209z" />
    <glyph glyph-name="idieresis" unicode="&#xef;" horiz-adv-x="492" 
d="M424 1190q-24 0 -45 9t-36.5 24.5t-24.5 36.5t-9 45t9 44.5t24.5 36t36.5 24.5t45 9t45 -9t37 -24.5t25.5 -36t9.5 -44.5t-9.5 -45t-25.5 -36.5t-37 -24.5t-45 -9zM72 1190q-24 0 -45.5 9t-37 24.5t-25 36.5t-9.5 45t9.5 44.5t25 36t37 24.5t45.5 9t45.5 -9t37 -24.5
t24.5 -36t9 -44.5t-9 -45t-24.5 -36.5t-37 -24.5t-45.5 -9zM139 0v1071h117q60 0 76 -28.5t16 -131.5v-911h-209z" />
    <glyph glyph-name="ograve" unicode="&#xf2;" horiz-adv-x="1163" 
d="M582 145q68 0 124 24q56 25 94 73q39 48 60 120t21 170t-21 172t-60 124q-38 50 -94 76t-124 26t-123 -26t-94 -76t-61 -124t-21 -172q-1 -98 21 -170t61 -120t94 -73q55 -24 123 -24zM70 533q0 251 145 403q145 151 367 151t367 -151t145 -403q0 -251 -145 -398
t-367 -147t-367 147t-145 398zM330 1434h209l102 -224v-49h-118l-193 205v68z" />
    <glyph glyph-name="oacute" unicode="&#xf3;" horiz-adv-x="1163" 
d="M582 145q68 0 124 24q56 25 94 73q39 48 60 120t21 170t-21 172t-60 124q-38 50 -94 76t-124 26t-123 -26t-94 -76t-61 -124t-21 -172q-1 -98 21 -170t61 -120t94 -73q55 -24 123 -24zM70 533q0 251 145 403q145 151 367 151t367 -151t145 -403q0 -251 -145 -398
t-367 -147t-367 147t-145 398zM520 1161v49l103 224h210v-68l-192 -205h-121z" />
    <glyph glyph-name="odieresis" unicode="&#xf6;" horiz-adv-x="1163" 
d="M582 145q68 0 124 24q56 25 94 73q39 48 60 120t21 170t-21 172t-60 124q-38 50 -94 76t-124 26t-123 -26t-94 -76t-61 -124t-21 -172q-1 -98 21 -170t61 -120t94 -73q55 -24 123 -24zM70 533q0 251 145 403q145 151 367 151t367 -151t145 -403q0 -251 -145 -398
t-367 -147t-367 147t-145 398zM758 1190q-24 0 -45 9t-37 25t-24 36q-9 21 -9 45q0 25 9 45q8 20 24 36t37 24q21 9 45 9t45 -9q21 -8 37 -24t26 -36t9 -45q1 -24 -9 -45q-10 -20 -26 -36t-37 -25t-45 -9zM406 1190q-24 0 -46 9t-36 25q-16 16 -26 36q-10 21 -9 45
q-1 25 9 45t26 36t36 24q22 9 46 9t46 -9q22 -8 36 -24q16 -16 25 -36t9 -45q0 -24 -9 -45q-9 -20 -25 -36t-36 -25q-22 -9 -46 -9z" />
    <glyph glyph-name="divide" unicode="&#xf7;" 
d="M616 1169q26 0 49 -9.5t40.5 -26.5t27.5 -40t10 -49t-10 -48.5t-27.5 -39.5t-40.5 -26.5t-49 -9.5t-48.5 9.5t-39.5 26.5t-26.5 39.5t-9.5 48.5t9.5 49t26.5 40t39.5 26.5t48.5 9.5zM705 459.5q38 -36.5 38 -76.5t-10 -62.5t-27.5 -39t-40.5 -26t-61.5 -9.5t-75 35
t-36.5 75t9.5 63t36.5 50t78 27t89 -36.5zM164 623v170h903v-170h-903z" />
    <glyph glyph-name="ugrave" unicode="&#xf9;" horiz-adv-x="1171" 
d="M137 272v799h209v-752q0 -139 98 -162q30 -7 68 -7q131 0 303 102v819h209v-1071h-131q-39 0 -56 24q-16 24 -20 97q-186 -135 -387 -135q-293 0 -293 286zM332 1434h209l102 -224v-49h-118l-193 205v68z" />
    <glyph glyph-name="uacute" unicode="&#xfa;" horiz-adv-x="1171" 
d="M137 272v799h209v-752q0 -139 98 -162q30 -7 68 -7q131 0 303 102v819h209v-1071h-131q-39 0 -56 24q-16 24 -20 97q-186 -135 -387 -135q-293 0 -293 286zM522 1161v49l103 224h210v-68l-192 -205h-121z" />
    <glyph glyph-name="udieresis" unicode="&#xfc;" horiz-adv-x="1171" 
d="M137 272v799h209v-752q0 -139 98 -162q30 -7 68 -7q131 0 303 102v819h209v-1071h-131q-39 0 -56 24q-16 24 -20 97q-186 -135 -387 -135q-293 0 -293 286zM757 1190q-24 0 -45 9q-20 9 -36 25t-25 36q-9 21 -9 45q0 25 9 45t25 36t36 24q21 9 45 9t45 -9q21 -8 37 -24
q15 -16 25 -36t10 -45q0 -24 -10 -45q-10 -20 -25 -36q-16 -16 -37 -25t-45 -9zM405 1190q-23 0 -45 9t-38 25t-24 36q-10 21 -10 45q0 25 10 45t24 36q16 16 38 24q22 9 45 9t45 -9q22 -8 38 -24t24 -36q9 -20 9 -45q0 -24 -9 -45q-8 -20 -24 -36t-38 -25t-45 -9z" />
    <glyph glyph-name="florin" unicode="&#x192;" 
d="M817 1448q86 0 146 -23v-127h-84q-75 0 -115.5 -32t-48.5 -111l-33 -262h246v-145h-264l-113 -938h-215l113 938h-173v145h191l33 272q18 147 98 215t219 68z" />
    <glyph glyph-name="circumflex" unicode="&#x2c6;" horiz-adv-x="834" 
d="M668 1161h-117l-137 131l-142 -131h-108v60l180 213h150l174 -213v-60z" />
    <glyph glyph-name="caron" unicode="&#x2c7;" horiz-adv-x="834" 
d="M164 1434h117l137 -131l141 131h109v-60l-181 -213h-149l-174 213v60z" />
    <glyph glyph-name="breve" unicode="&#x2d8;" horiz-adv-x="834" 
d="M416 1311q101 0 114 110h136v-59q-28 -134 -112 -166.5t-138 -32.5q-102 0 -167.5 57.5t-80.5 141.5v59h135q12 -110 113 -110z" />
    <glyph glyph-name="dotaccent" unicode="&#x2d9;" horiz-adv-x="834" 
d="M418 1190q-24 0 -46.5 9.5t-39 25.5t-26 37.5t-9.5 59.5t36.5 74t72.5 36t58 -10t38.5 -26.5t26.5 -39t10 -47.5t-10 -46.5t-26.5 -37.5t-38.5 -25.5t-46 -9.5z" />
    <glyph glyph-name="ring" unicode="&#x2da;" horiz-adv-x="834" 
d="M417 1268q36 0 60.5 25t24.5 66t-24.5 66t-60.5 25t-60.5 -25t-24.5 -66t24.5 -66t60.5 -25zM416 1167q-39 0 -74.5 13t-61.5 38t-41.5 60t-15.5 80t15.5 80.5t41.5 61t61.5 39t74.5 13.5t74 -13.5t62 -39t42.5 -61t15.5 -80.5t-15.5 -80t-42.5 -60t-62 -38t-74 -13z" />
    <glyph glyph-name="ogonek" unicode="&#x2db;" horiz-adv-x="823" 
d="M285 -186q0 109 118 186h138q-42 -35 -67 -67t-25 -70q0 -70 86 -70h49v-104q-48 -27 -125 -27q-78 0 -126 40t-48 112z" />
    <glyph glyph-name="tilde" unicode="&#x2dc;" horiz-adv-x="834" 
d="M311 1245q-60 0 -73 -69h-123v59q15 78 60 123t104 45t109 -22.5t73 -33t43 -10.5q56 0 74 70h118v-61q-15 -79 -59.5 -123.5t-104.5 -44.5t-108.5 23t-71 33.5t-41.5 10.5z" />
    <glyph glyph-name="hungarumlaut" unicode="&#x2dd;" horiz-adv-x="834" 
d="M752 1434v-68l-136 -205h-116v43l78 230h174zM465 1434v-68l-135 -205h-117v43l80 230h172z" />
    <glyph glyph-name="endash" unicode="&#x2013;" horiz-adv-x="883" 
d="M92 670h699v-172h-699v172z" />
    <glyph glyph-name="emdash" unicode="&#x2014;" horiz-adv-x="1460" 
d="M92 670h1276v-172h-1276v172z" />
    <glyph glyph-name="quoteleft" unicode="&#x2018;" horiz-adv-x="397" 
d="M225 1269q0 -19 3.5 -27t10 -13t15 -10t24.5 -15q38 -24 39 -80q0 -56 -32.5 -86t-70.5 -30q-140 0 -140 153q0 251 250 279v-103q-48 -8 -73.5 -28.5t-25.5 -39.5z" />
    <glyph glyph-name="quoteright" unicode="&#x2019;" horiz-adv-x="397" 
d="M176 1185q0 19 -4 27t-11 13.5t-44 23t-37 77.5t33 90t71 30q67 0 103.5 -39.5t36.5 -114.5q0 -128 -61.5 -196t-188.5 -82v102q49 8 75.5 29t26.5 40z" />
    <glyph glyph-name="quotesinglbase" unicode="&#x201a;" horiz-adv-x="397" 
d="M176 -13q0 19 -4 27t-11 13.5t-44 23t-37 77.5t33 90t71 30q67 0 103.5 -39.5t36.5 -114.5q0 -127 -61.5 -194.5t-188.5 -81.5v102q49 6 75.5 27t26.5 40z" />
    <glyph glyph-name="quotedblleft" unicode="&#x201c;" horiz-adv-x="750" 
d="M575 1269q0 -19 4.5 -27t11.5 -13t16 -10t25 -15q40 -26 40 -82q0 -55 -34 -84.5t-73 -29.5q-139 0 -139 153q0 251 250 279v-103q-50 -8 -75.5 -28.5t-25.5 -39.5zM225 1269q0 -19 3.5 -27t10 -13t15 -10t24.5 -15q38 -24 39 -80q0 -56 -32.5 -86t-70.5 -30
q-140 0 -140 153q0 251 250 279v-103q-48 -8 -73.5 -28.5t-25.5 -39.5z" />
    <glyph glyph-name="quotedblright" unicode="&#x201d;" horiz-adv-x="750" 
d="M176 1185q0 19 -4 27t-11 13.5t-44 23t-37 77.5t33 90t71 30q67 0 103.5 -39.5t36.5 -114.5q0 -128 -61.5 -196t-188.5 -82v102q49 8 75.5 29t26.5 40zM526 1185q0 19 -4 27t-10.5 13.5t-43 24t-36.5 77.5t33 89t71 30q67 0 103.5 -39.5t36.5 -114.5q0 -128 -61.5 -196
t-188.5 -82v102q48 8 74 29t26 40z" />
    <glyph glyph-name="quotedblbase" unicode="&#x201e;" horiz-adv-x="750" 
d="M176 -13q0 19 -4 27t-11 13.5t-44 23t-37 77.5t33 90t71 30q67 0 103.5 -39.5t36.5 -114.5q0 -127 -61.5 -194.5t-188.5 -81.5v102q49 6 75.5 27t26.5 40zM526 -13q0 19 -4 27t-10.5 13.5t-43 24t-36.5 77.5t33 89t71 30q67 0 103.5 -39.5t36.5 -114.5
q0 -127 -61.5 -194.5t-188.5 -81.5v102q48 6 74 27t26 40z" />
    <glyph glyph-name="dagger" unicode="&#x2020;" horiz-adv-x="918" 
d="M66 864v209h112l215 -47l-37 201v207h205v-207l-39 -201l217 47h111v-209h-111l-217 45l45 -215v-139l-30 -655h-156l-31 655v137l43 217l-215 -45h-112z" />
    <glyph glyph-name="daggerdbl" unicode="&#x2021;" horiz-adv-x="918" 
d="M66 256v207h112l215 -45l-43 178v139l45 180l-217 -45h-112v207h112l217 -45l-39 199v203h205v-203l-39 -199l217 45h111v-207h-111l-217 45l47 -178v-139l-49 -180l219 45h111v-207h-111l-219 45l41 -199v-202h-205v202l37 199l-215 -45h-112z" />
    <glyph glyph-name="bullet" unicode="&#x2022;" horiz-adv-x="657" 
d="M72 590q0 119 73 190.5t183 71.5t183 -71.5t73 -190.5t-73 -188.5t-183 -69.5t-183 69.5t-73 188.5z" />
    <glyph glyph-name="uni2023" unicode="&#x2023;" horiz-adv-x="1841" 
d="M541 1028l6 6l409 -411l-409 -414l-6 10v160l237 244l-237 241v164zM166 637q0 -109 41.5 -205t112.5 -167t167 -112.5t205 -41.5t205 41.5t167.5 112.5t113 167t41.5 205t-41.5 205t-113 167t-167.5 112.5t-205 41.5t-205 -41.5t-167 -112.5t-112.5 -167t-41.5 -205z
M0 663q0 119 54 244.5t147 219.5t218.5 148t268.5 54t268.5 -54t219.5 -148t148 -219.5t54 -268.5t-54 -268.5t-148 -218.5t-219.5 -147t-244.5 -54t-207 24.5t-164.5 69t-139.5 107.5t-107.5 139.5t-69 164.5t-24.5 207z" />
    <glyph glyph-name="ellipsis" unicode="&#x2026;" horiz-adv-x="1278" 
d="M1076 -10q-26 0 -49.5 9.5t-41 27t-27.5 40.5t-10 63.5t37.5 78t77.5 37.5t63 -10t40.5 -27.5t27.5 -41t10 -50.5t-10 -50t-27.5 -40.5t-41 -27t-49.5 -9.5zM638 -10q-26 0 -49 9.5t-40.5 27t-27 40.5t-9.5 64t37 78t77 37t63 -10t40.5 -27.5t28 -41t10.5 -50.5
t-10.5 -50t-28 -40.5t-41.5 -27t-50 -9.5zM201 -10q-26 0 -49.5 9.5t-40.5 27t-27 40.5t-10 50t10 50.5t27 41t40.5 27.5t49.5 10t49.5 -10t41 -27.5t28 -41t10.5 -50.5t-10.5 -50t-28 -40.5t-41 -27t-49.5 -9.5z" />
    <glyph glyph-name="perthousand" unicode="&#x2030;" horiz-adv-x="2458" 
d="M1706 360q0 177 94 273t234 96q139 0 233 -96t94 -273t-94.5 -274.5t-232.5 -97.5q-139 0 -233.5 97.5t-94.5 274.5zM2033 111q75 0 118.5 62t43.5 185t-43.5 184.5t-118.5 61.5t-119 -61.5t-44 -184.5t44 -185t119 -62zM946 360q0 177 94 273t232 96t232.5 -96
t94.5 -273t-94.5 -274.5t-230.5 -97.5q-139 0 -233.5 97.5t-94.5 274.5zM1274 111q74 0 118 62t44 185t-44 184.5t-118 61.5t-119 -61.5t-45 -184.5t45 -185t119 -62zM1270 1493h166l-1010 -1563h-166zM191 804q-95 97 -95 275q0 177 95 272t233 95t233 -95t95 -272
t-95 -274.5t-233 -97.5t-233 97zM424 829q74 0 118 61.5t44 185.5t-44 185.5t-118 61.5t-118 -61.5t-44 -185.5t44 -185.5t118 -61.5z" />
    <glyph glyph-name="guilsinglleft" unicode="&#x2039;" horiz-adv-x="594" 
d="M514 977v-55l-252 -385v-5l252 -391v-53h-164l-270 397v93l270 399h164z" />
    <glyph glyph-name="guilsinglright" unicode="&#x203a;" horiz-adv-x="594" 
d="M80 88v53l252 391v7l-252 383v55h166l268 -399v-91l-268 -399h-166z" />
    <glyph glyph-name="fraction" unicode="&#x2044;" horiz-adv-x="446" 
d="M-186 -70h-160l981 1563h158z" />
    <glyph glyph-name="Euro" unicode="&#x20ac;" 
d="M178 667v52q0 48 2 65h-119v134h138q48 252 201.5 390t377.5 138q123 0 199.5 -24t157.5 -74v-158h-86q-91 69 -153 80.5t-110 11.5q-149 0 -241 -92.5t-123 -271.5h444l-26 -134h-434v-129h409l-27 -131h-368q28 -188 112 -280t252 -92t293 120h78v-149
q-159 -135 -391 -135t-379.5 137.5t-189.5 398.5h-134v131h119q-2 8 -2 12z" />
    <glyph glyph-name="trademark" unicode="&#x2122;" horiz-adv-x="1329" 
d="M608 1434h201l111 -359h2l114 359h201v-570h-131v455h-2l-143 -455h-97l-143 455h-2v-455h-111v570zM223 864v467h-164v103h461v-103h-164v-467h-133z" />
    <glyph glyph-name="uni21B6" unicode="&#x21b6;" horiz-adv-x="1841" 
d="M530 999q281 -45 423.5 -165.5t126.5 -276t-188.5 -315t-363.5 -283.5q164 171 222.5 266.5t74 158t-21.5 141t-275 104.5v-242l-522 444l524 431v-263z" />
    <glyph glyph-name="uni21BA" unicode="&#x21ba;" horiz-adv-x="1845" 
d="M1341 657v-4q0 -183 -92.5 -338.5t-247.5 -247.5t-339 -92h-5v207h5q193 0 332 137.5t141 335.5v2q0 195 -138.5 335.5t-332.5 142.5h-5q-102 0 -192.5 -40.5t-153.5 -111.5l160 -166h-467v479l158 -166q94 100 221.5 155.5t273.5 55.5h7q279 -3 440.5 -165.5t198 -293.5
t36.5 -225z" />
    <glyph glyph-name="uni21DF" unicode="&#x21df;" horiz-adv-x="1847" 
d="M932 -14q0 252 -124.5 466t-338.5 340t-469 126v233q317 0 584 -157t424 -424t157 -584h-233zM0 758q210 0 386.5 -103.5t281 -280t104.5 -388.5h-225q0 228 -160.5 387t-386.5 159v226zM160 305q33 0 62 -12.5t50.5 -34.5t34 -51t12.5 -62t-12.5 -62t-34 -50.5
t-50.5 -34t-62 -12.5t-62 12.5t-51 34t-34.5 50.5t-12.5 62t12.5 62t34.5 51t51 34.5t62 12.5z" />
    <glyph glyph-name="minus" unicode="&#x2212;" 
d="M164 623v170h903v-170h-903z" />
    <glyph glyph-name="uni2302" unicode="&#x2302;" horiz-adv-x="1845" 
d="M1169 -12h-352v413h-270v-413h-352v450l487 494l487 -494v-450zM682 1294l686 -682l-129 -129l-557 553l-555 -553l-129 129z" />
    <glyph glyph-name="uni25A3" unicode="&#x25a3;" horiz-adv-x="1843" 
d="M1087 651v271l-270 -2l98 -95l-419 -407v2l-90 -96l-95 98l4 -277h275l-98 91l501 514zM1260 1118q70 0 120 -51.5t50 -120.5v-796q0 -71 -49.5 -120.5t-120.5 -49.5h-1096q-71 0 -120.5 49.5t-49.5 120.5v796q0 69 50 120.5t120 51.5h1096z" />
    <glyph glyph-name="uni25B2" unicode="&#x25b2;" horiz-adv-x="1841" 
d="M1087 2l-385 379l-385 -379h-262l-10 10l657 658l658 -658l-10 -10h-263z" />
    <glyph glyph-name="uni25BA" unicode="&#x25ba;" horiz-adv-x="1841" 
d="M866 610l-864 -501v1001z" />
    <glyph glyph-name="uni25BC" unicode="&#x25bc;" horiz-adv-x="1841" 
d="M1087 633h263l10 -10l-658 -658l-657 658l10 10h262l385 -379z" />
    <glyph glyph-name="uni25C4" unicode="&#x25c4;" horiz-adv-x="1845" 
d="M866 1110v-1001l-864 501z" />
    <glyph glyph-name="uni25C6" unicode="&#x25c6;" horiz-adv-x="6422" 
d="M3587 1820h271q37 0 63.5 -26.5t26.5 -63.5v-153q0 -38 -26.5 -64t-63.5 -26h-271q-38 0 -64 26t-26 64v153q0 37 26 63.5t64 26.5zM5622 1273q154 133 444 133q84 0 158 -27.5t135 -95t61 -235.5v-1049h-415v936q0 108 -54.5 119.5t-124.5 11.5t-204 -34v-1033h-415
v1821h277q78 0 108 -41t30 -116v-390zM4699 -37q-326 0 -501.5 199t-175.5 521.5t175 522.5t502 200q288 0 411 -115v-261q-173 34 -295 34q-123 0 -183.5 -26.5t-100.5 -76t-60 -120t-20 -203.5t81.5 -233t243.5 -100q161 0 334 34v-261q-123 -115 -411 -115zM3514 -1v1371
h416v-1371h-416zM2599 1273q155 133 443 133q84 0 158.5 -27.5t135.5 -95t61 -235.5v-1049h-416v936q0 108 -54 119.5t-124 11.5t-204 -34v-1033h-416v1821h277q110 0 124.5 -60t14.5 -97v-390zM1079 1820q89 0 131 -38t68 -143l215 -900l206 1081h419l-429 -1821h-374
l-283 1041l-277 -1041h-382l-424 1821h440l220 -1081l251 1081h219z" />
    <glyph glyph-name="uni25C8" unicode="&#x25c8;" horiz-adv-x="1835" 
d="M244 303h858v-315h-1102v864h244v-549zM1300 483v662h-872v-662h872zM311 1231h1100v-862h-1100v862z" />
    <glyph glyph-name="uni2605" unicode="&#x2605;" horiz-adv-x="1837" 
d="M280.5 7q-8.5 0 -18.5 7t-6 27l150 477l-396 287q-16 11 -10 33t29 22h487l160 467q7 19 24.5 19t22.5 -19l160 -467h489q24 0 29 -23t-12 -32l-396 -287l150 -477q6 -17 -8 -29q-10 -4 -16.5 -4t-12.5 4l-406 295l-405 -295q-6 -5 -14.5 -5z" />
    <glyph glyph-name="uni2606" unicode="&#x2606;" horiz-adv-x="1841" 
d="M432 2h-434v434h434v-434zM432 674h-434v432h434v-432zM1118 2h-545l545 172v-172zM1118 264h-545l545 174v-174zM1118 936h-545l545 176v-176zM1118 676h-545l545 172v-172z" />
    <glyph glyph-name="uni260E" unicode="&#x260e;" horiz-adv-x="1845" 
d="M778 1237q58 0 107 -49t49 -107v-311q0 -58 -49 -107t-107 -49h-389l-233 -233v233q-58 0 -107 49t-49 107v311q0 58 49 107t107 49h622zM1090 848q59 0 107 -49.5t48 -106.5v-311q0 -57 -48 -106.5t-107 -49.5v-233l-234 233h-389q-58 0 -107 49t-49 107v45l111 111h356
q90 0 162 70.5t72 162.5v78h78z" />
    <glyph glyph-name="uni2610" unicode="&#x2610;" horiz-adv-x="1839" 
d="M166 637q0 -109 41.5 -205t112.5 -167t167 -112.5t205 -41.5t205 41.5t167.5 112.5t113 167t41.5 205t-41.5 205t-113 167t-167.5 112.5t-205 41.5t-205 -41.5t-167 -112.5t-112.5 -167t-41.5 -205zM0 663q0 119 54 244.5t147 219.5t218.5 148t268.5 54t268.5 -54
t219.5 -148t148 -219.5t54 -268.5t-54 -268.5t-148 -218.5t-219.5 -147t-244.5 -54t-207 24.5t-164.5 69t-139.5 107.5t-107.5 139.5t-69 164.5t-24.5 207zM690 940q0 35 30 61.5t55 26.5q42 0 67.5 -22t25.5 -49q0 -46 -29 -72.5t-67 -26.5q-82 0 -82 82zM806 463
q13 0 13 -13t-22.5 -41.5t-86 -81.5t-139.5 -53q-29 0 -51 16t-22 42t7 52.5t16.5 51t18 45t11.5 29.5l82 205q11 26 -21 26q-22 0 -50 -34.5t-42 -50t-26 -15.5t-13 15q0 15 9 24l61 61q79 74 161 74q120 0 72 -143l-86 -223q-18 -47 -18 -65q0 -19 12 -19t29.5 15.5
t35 33.5t31.5 33.5t18 15.5z" />
    <glyph glyph-name="uni2611" unicode="&#x2611;" horiz-adv-x="1849" 
d="M1378 262q0 -122 -86.5 -208.5t-208.5 -86.5h-790q-122 0 -207.5 85.5t-85.5 209.5v789q0 123 86 209t207 86h756l-148 -148h-608q-61 0 -103.5 -44t-42.5 -103v-789q0 -60 42 -103.5t104 -43.5h790q62 0 105 43t43 104v316l147 147v-463zM1589 1343
q-349 -316 -545.5 -641t-246.5 -456l-574 583l146 119l331 -260q231 277 464.5 459.5t389.5 277.5z" />
    <glyph glyph-name="uni2612" unicode="&#x2612;" horiz-adv-x="1853" 
d="M930 674l264 223l-78 94l-268 -221l-92 104l-21 -286l283 -19zM635 535l-266 20l92 -106l-273 -224l76 -90l264 217l86 -98zM1425 160q0 -70 -49.5 -121t-118.5 -51h-1089q-70 0 -120 51.5t-50 120.5v788q0 70 50 120t120 50h1089q69 0 118.5 -49.5t49.5 -120.5v-788z
" />
    <glyph glyph-name="uni261D" unicode="&#x261d;" horiz-adv-x="1841" 
d="M911 664q72 0 72 -113q0 -54 -13.5 -83.5t-58.5 -29.5q56 -16 56 -110q0 -47 -14 -78t-58 -31h-51q47 -15 47 -117t-66 -102h-522q-122 0 -211.5 91t-89.5 220v316q0 89 45.5 160.5t120.5 111.5q139 72 206.5 177.5t86.5 172.5v131q89 7 157 -36t68 -152
q0 -146 -49.5 -212.5t-38 -73t42.5 -7.5h197q77 0 77 -119q0 -52 -10 -81t-45 -35h51z" />
    <glyph glyph-name="uni261F" unicode="&#x261f;" horiz-adv-x="1837" 
d="M895 1108q72 0 72 -103t-56 -116q45 0 58.5 -29.5t13.5 -83.5q0 -112 -72 -112h-51q35 -7 45 -36t10 -81q0 -119 -77 -119h-197q-31 -1 -40 -6t-4 -16.5t47 -68t42 -198.5t-113 -179q-49 -18 -112 -13v131q-34 119 -122 213t-167 136q-79 41 -124.5 112.5t-45.5 160.5
v316q0 129 89.5 220t211.5 91h522q66 0 66 -102t-47 -117h51z" />
    <glyph glyph-name="uni2638" unicode="&#x2638;" horiz-adv-x="1845" 
d="M0 995h283v-919h-283v919zM449 995h282v-919h-282v919zM1180 995v-919h-283v919h283z" />
    <glyph glyph-name="uni2639" unicode="&#x2639;" horiz-adv-x="1904" 
d="M1221 762q52 0 88.5 -37t36.5 -89t-36 -88t-88 -36t-89 36t-37 88t36.5 89t88.5 37zM790 637q0 -52 -37 -88.5t-89 -36.5t-88.5 36t-36.5 88t36.5 89t88.5 37t89 -36.5t37 -88.5zM940 183q-184 0 -297 89q-11 9 -13 23.5t8 25.5t25 12.5t25 -7.5q90 -75 252 -75t251 75
q10 9 24.5 7.5t24.5 -12.5t8.5 -25.5t-12.5 -23.5q-112 -89 -296 -89zM1795 773q0 64 -41.5 106t-93.5 42t-91 -24q132 -107 174 -230q52 42 52 106zM938 48q206 0 381.5 65.5t277 178.5t101.5 245v35q-10 48 -15 64q-36 115 -157 211q-240 178 -586 178q-345 0 -587 -178
q-121 -96 -157 -211q-5 -16 -15 -64v-35q0 -132 101.5 -245t275.5 -178.5t380 -65.5zM84 773q0 -64 52 -106q42 123 174 230q-38 24 -90 24t-94 -42t-42 -106zM1570 1469q-44 0 -76 -32.5t-32 -76.5t32 -76t76 -32t76.5 32t32.5 76t-32.5 76.5t-76.5 32.5zM119 597
q-101 61 -101 195q0 70 62 133t144 63t142 -52q233 153 554 155l118 389q12 30 39 23l333 -75q21 48 64.5 78t105.5 30t113.5 -51.5t51.5 -123.5t-51 -123.5t-123 -51.5t-122.5 51t-50.5 123v4l-304 68l-106 -341q307 -12 525 -155q60 52 142 52t144 -63t62 -133
q0 -134 -101 -195q4 -19 4 -60q0 -112 -63 -213.5t-181 -179.5q-242 -159 -581 -160q-338 0 -578 158q-119 79 -182.5 181t-63.5 214q0 41 4 60z" />
    <glyph glyph-name="uni263A" unicode="&#x263a;" horiz-adv-x="702" 
d="M440 991q-61 0 -61 -61v-121h188l-22 -213h-166v-596h-252v596h-127v213h127v121q0 121 55 191.5t197 74.5h188v-205h-127z" />
    <glyph glyph-name="uni263B" unicode="&#x263b;" horiz-adv-x="1278" 
d="M1077 748q0 -169 -107 -377.5t-293.5 -266t-295.5 -57.5q-207 0 -383 111q30 -4 88 -4q59 0 136.5 27.5t142.5 78.5q-128 3 -174 68t-58 102q26 -4 56 -4t55 8q-134 29 -165.5 113t-31.5 129v4q55 -31 113 -31q-51 32 -81 86t-30 119t33 123q93 -113 223 -181.5
t285 -76.5q-6 27 -6 67q0 90 71.5 163t175.5 73q103 0 179 -78q85 16 155 60q-28 -87 -106 -136q73 9 141 39q-55 -79 -123 -129v-30z" />
    <glyph glyph-name="uni264B" unicode="&#x264b;" horiz-adv-x="1841" 
d="M778 340q-27 0 -50.5 10.5t-41.5 28t-28.5 41.5t-10.5 51t10.5 50.5t28.5 41t41.5 27.5t50.5 10t50.5 -10t41 -27.5t27.5 -41t10 -50.5t-10 -51t-27.5 -41.5t-41 -28t-50.5 -10.5zM485 340q-27 0 -50.5 10.5t-41.5 28t-28.5 41.5t-10.5 51t10.5 50.5t28.5 41t41.5 27.5
t50.5 10t51 -10t41.5 -27.5t28 -41t10.5 -50.5t-10.5 -51t-28 -41.5t-41.5 -28t-51 -10.5zM993 680h-719v-420h719v420zM1415 745v-548h-104l-174 106v-225h-1010v629h-23l-63 -41h-41v159h41l68 -43h18v82h1010v-227l174 108h104z" />
    <glyph glyph-name="uni265A" unicode="&#x265a;" horiz-adv-x="1841" 
d="M592 690h211v115q0 46 -31.5 79.5t-63.5 33.5q-54 0 -85 -33t-31 -80v-115zM444 670q0 20 23 20h29v115q0 86 59.5 147.5t142.5 61.5t142 -62t59 -147v-115h29q20 0 20 -20v-305q0 -23 -20 -23h-461q-9 0 -16 6.5t-7 16.5v305zM166 637q0 -109 41.5 -205t112.5 -167
t167 -112.5t205 -41.5t205 41.5t167.5 112.5t113 167t41.5 205t-41.5 205t-113 167t-167.5 112.5t-205 41.5t-205 -41.5t-167 -112.5t-112.5 -167t-41.5 -205zM0 663q0 119 54 244.5t147 219.5t218.5 148t268.5 54t268.5 -54t219.5 -148t148 -219.5t54 -268.5t-54 -268.5
t-148 -218.5t-219.5 -147t-244.5 -54t-207 24.5t-164.5 69t-139.5 107.5t-107.5 139.5t-69 164.5t-24.5 207z" />
    <glyph glyph-name="uni265C" unicode="&#x265c;" horiz-adv-x="1843" 
d="M166 637q0 -109 41.5 -205t112.5 -167t167 -112.5t205 -41.5t205 41.5t167.5 112.5t113 167t41.5 205t-41.5 205t-113 167t-167.5 112.5t-205 41.5t-205 -41.5t-167 -112.5t-112.5 -167t-41.5 -205zM0 663q0 119 54 244.5t147 219.5t218.5 148t268.5 54t268.5 -54
t219.5 -148t148 -219.5t54 -268.5t-54 -268.5t-148 -218.5t-219.5 -147t-244.5 -54t-207 24.5t-164.5 69t-139.5 107.5t-107.5 139.5t-69 164.5t-24.5 207zM627 625v297h147v-297h221l-295 -295l-297 295h224z" />
    <glyph glyph-name="uni265F" unicode="&#x265f;" horiz-adv-x="1425" 
d="M580 1327q102 0 174.5 -72.5t72.5 -176.5t-71.5 -176.5t-175.5 -72.5t-176 73.5t-72 175.5q0 103 73 176t175 73zM931.5 518.5q145.5 -145.5 145.5 -350.5q0 -71 -47.5 -118.5t-118.5 -47.5h-663q-69 0 -116.5 47.5t-47.5 134.5t39 177t144.5 196.5t312 106.5t352 -145.5
z" />
    <glyph glyph-name="uni266B" unicode="&#x266b;" horiz-adv-x="1837" 
d="M727 720q0 -56 -38 -94t-79 -38q-68 0 -106.5 38.5t-38.5 79.5q0 68 37.5 106t79.5 38t66 -10t51.5 -37t27.5 -83zM597 545q136 0 171 -88q15 -204 -98 -469q-34 -15 -72 -15t-76 15q-61 142 -82.5 265.5t-15.5 203.5q19 48 68.5 68t104.5 20zM1018 1059
q174 -174 174 -422q0 -190 -110.5 -333.5t-290.5 -199.5l10 25q137 69 223 209.5t86 298.5q0 214 -150 364t-364 150t-364 -150.5t-150 -363.5q0 -114 47 -213q65 -146 146.5 -209.5t127.5 -85.5l11 -23q-257 66 -359 285q-53 112 -53 241t46.5 237.5t174 236t374.5 127.5
t421 -174zM375 391q-166 89 -166 263q0 64 30.5 134.5t113 153t243.5 82.5h2q161 0 274 -113t113 -272t-166 -248q86 126 86 250t-89.5 213.5t-217.5 89.5h-2q-127 0 -216 -89t-90 -214q-1 -124 85 -250z" />
    <glyph glyph-name="uni26A0" unicode="&#x26a0;" horiz-adv-x="1835" 
d="M887 983h-172v-207l45 -379h82l45 379v207zM883 172v160h-164v-160h164zM805 1356l780 -1348h-1560z" />
    <glyph glyph-name="uni2706" unicode="&#x2706;" horiz-adv-x="1845" 
d="M1260 535q117 -24 385 -191q-25 -188 -144.5 -291t-306.5 -82q-112 6 -416 150t-461.5 418.5t-192.5 373.5t-38.5 149.5t7.5 131t69.5 169.5t152.5 120q135 43 220 -90.5t112 -302.5l-174 -175q4 -66 75 -163t187 -213t237 -179q50 -26 85 -28z" />
    <glyph glyph-name="uni2709" unicode="&#x2709;" horiz-adv-x="1845" 
d="M1532 0h-1532v782l766 -655l766 649v-776zM766 322l-746 639h1502z" />
    <glyph glyph-name="uni270D" unicode="&#x270d;" horiz-adv-x="1841" 
d="M1378 246q0 -122 -86.5 -208.5t-208.5 -86.5h-790q-122 0 -207.5 85.5t-85.5 209.5v788q0 123 86 209t207 86h756l-148 -147h-608q-61 0 -103.5 -44t-42.5 -104v-788q0 -61 42 -104.5t104 -43.5h790q62 0 105 43t43 105v315l147 148v-463zM662 596h129v-129h55l561 561
l-184 184l-561 -559v-57zM1316 1382q110 0 186 -76t75 -185q0 -109 -76 -185l-602 -600h-369v371l600 600q76 75 186 75z" />
    <glyph glyph-name="uni270E" unicode="&#x270e;" horiz-adv-x="1847" 
d="M487 672h127v-123h56l536 541l-178 176l-541 -541v-53zM940 1358q76 76 180 76t176 -76q76 -68 76 -176q0 -107 -76 -181l-577 -583h-361v362zM88 45h881v426l88 88v-602h-1057v1124l27 25l325 328h459l-88 -88h-258q-82 0 -82 -158q0 -70 16 -158q-85 19 -153 20
q-155 0 -158 -85v-920z" />
    <glyph glyph-name="uni2711" unicode="&#x2711;" horiz-adv-x="1837" 
d="M884 954q-36 0 -56 -20q-32 -32 -32.5 -69.5t25.5 -63.5t62.5 -26t63.5 26t27 63.5t-27 63.5t-63 26zM1061 952v-352l-617 -616l-434 432l627 624h334z" />
    <glyph glyph-name="uni2713" unicode="&#x2713;" horiz-adv-x="1851" 
d="M1618 1253q-411 -371 -639 -749.5t-291 -538.5l-678 684l174 137l394 -305q259 322 536.5 539t462.5 328z" />
    <glyph glyph-name="uni2716" unicode="&#x2716;" horiz-adv-x="1632" 
d="M1370 1038l-409 -405l409 -408l-270 -268l-406 408l-407 -408l-269 268l408 408l-408 405l269 271l407 -410l406 410z" />
    <glyph glyph-name="uni2724" unicode="&#x2724;" horiz-adv-x="1841" 
d="M883 19q-69 -68 -163 -68t-163.5 68t-69.5 165q0 32 15 90l-168 172q-52 -16 -99 -16q-95 0 -164 69t-69 163t69 162.5t165 68.5q46 0 98 -16l168 172q-15 45 -15 91q0 95 69.5 163.5t163.5 68.5t163 -68t69 -164.5t-69 -165.5t-164 -69q-57 0 -105 21l-163 -164
q16 -74 16 -118t-16 -81l163 -166q48 21 101 21q52 0 94 -18.5t92.5 -69t50.5 -147t-69 -164.5z" />
    <glyph glyph-name="uni2726" unicode="&#x2726;" horiz-adv-x="0" 
d="M233 370h261q62 0 78.5 -38t16.5 -57v-181q0 -38 -27 -66.5t-68 -28.5h-261q-62 0 -78.5 37.5t-16.5 57.5v181q0 62 37.5 78.5t57.5 16.5zM297 1631q-190 0 -371 -39v272q137 105 293.5 126t221.5 21q289 0 445 -148.5t156 -390.5q0 -167 -61.5 -291.5t-186.5 -226.5
q-52 -42 -93.5 -76.5t-85 -90t-43.5 -165.5v-136h-416v185q0 182 61 260.5t116.5 122.5t95.5 78t75 64t72.5 77.5t37.5 143.5q0 214 -317 214z" />
    <glyph glyph-name="uni272E" unicode="&#x272e;" horiz-adv-x="1841" 
d="M166 637q0 -109 41.5 -205t112.5 -167t167 -112.5t205 -41.5t205 41.5t167.5 112.5t113 167t41.5 205t-41.5 205t-113 167t-167.5 112.5t-205 41.5t-205 -41.5t-167 -112.5t-112.5 -167t-41.5 -205zM0 663q0 119 54 244.5t147 219.5t218.5 148t268.5 54t268.5 -54
t219.5 -148t148 -219.5t54 -268.5t-54 -268.5t-148 -218.5t-219.5 -147t-244.5 -54t-207 24.5t-164.5 69t-139.5 107.5t-107.5 139.5t-69 164.5t-24.5 207zM971 639l-432 -250v502z" />
    <glyph glyph-name="uni2738" unicode="&#x2738;" horiz-adv-x="1841" 
d="M2 12v256h1393v-256h-1393zM2 416v254h1393v-254h-1393zM2 817v254h1393v-254h-1393z" />
    <glyph glyph-name="uni2739" unicode="&#x2739;" horiz-adv-x="1845" 
d="M692 377q54 0 102 21t84 57t57 84t21 102t-21 102t-57 84t-84 57t-102 21t-102 -21t-84 -57t-57 -84t-21 -102t21 -102t57 -84t84 -57t102 -21zM1031.5 43q-9.5 0 -15.5 8l-82 76l-137 -45l-15 -109q-5 -22 -41 -22h-98q-36 0 -41 22l-14 109l-137 45l-84 -76
q-7 -8 -16 -8t-15 6l-96 66q-18 15 -7 39l43 96l-81 123l-111 -21q-9 -3 -19.5 4.5t-13.5 20.5l-35 112q-3 8 1 17t12 12l100 43v160l-100 43q-19 12 -13 31l35 110q3 11 13.5 19t19.5 6l111 -23l81 123l-43 98q-12 23 7 39l96 66q11 15 31 -2l84 -76l137 45l14 109
q4 22 41 22h98q38 0 41 -22l15 -109l137 -45l84 76q15 18 31 2l96 -66q17 -17 6 -39l-45 -98l84 -123l108 23q22 4 35 -25l33 -110q5 -18 -10 -31l-101 -43v-160l97 -43q9 -3 13 -12t1 -17l-33 -112q-12 -31 -35 -25l-108 21l-84 -123l45 -96q10 -23 -6 -39l-96 -66
q-8 -6 -17.5 -6z" />
    <glyph glyph-name="uni2764" unicode="&#x2764;" horiz-adv-x="1847" 
d="M1582.5 1074.5q58.5 -160.5 -15.5 -308.5q-59 -129 -417 -481q-157 -154 -345 -324q-670 606 -762 805q-74 148 -16.5 308.5t213.5 233.5q155 73 315 16t236 -212q3 -11 7 -25.5t7 -31.5q8 43 14 57q76 155 235.5 212t314.5 -16t213.5 -233.5z" />
    <glyph glyph-name="uni27A4" unicode="&#x27a4;" horiz-adv-x="720" 
d="M0 1067h549v-1079l-275 272l-274 -272v1079z" />
    <glyph glyph-name="uni27B2" unicode="&#x27b2;" horiz-adv-x="1845" 
d="M590 213q179 0 299 133q135 120 135 300.5t-133 307.5q-111 129 -299 133h-2q-187 0 -313.5 -126.5t-127.5 -308.5t126 -310.5t313 -128.5h2zM1480 -56.5q0 -26.5 -22 -49.5l-115 -115q-23 -20 -49.5 -20t-46.5 20l-370 368q-126 -81 -287 -81h-6q-245 0 -416.5 171.5
t-169.5 414.5t175.5 415t416.5 172h2q245 -3 413.5 -177.5t165.5 -418.5q0 -154 -81 -283l368 -370q22 -20 22 -46.5z" />
    <glyph glyph-name="uni27F1" unicode="&#x27f1;" horiz-adv-x="1835" 
d="M658 345h558v-108h-558v108zM1216 450h-558v71h558v-71zM1586 793q26 0 47 18.5t21 48.5t-21 49.5t-47 19.5t-43.5 -19.5t-17.5 -49.5t17.5 -48.5t43.5 -18.5zM934 -174h395v705h93v-177h101v317h-1189v-314h101v174h91v-303q3 -92 179 -87q77 3 175 24
q-63 -260 -18 -299.5t72 -39.5zM526 995h803v185h-803v-185zM1685 995q50 0 64.5 -31.5t14.5 -46.5v-698h-342v-491h-619l-368 375v118h-342v696q0 49 31.5 63.5t47.5 14.5h263v283h987v-283h263z" />
    <glyph glyph-name="uni27F2" unicode="&#x27f2;" horiz-adv-x="1841" 
d="M1161 178q-196 -196 -481 -196q-168 0 -319.5 89.5t-240.5 241.5t-89 332h202q0 -190 134 -328q137 -133 328 -133q190 0 325 135l-168 173h461v-463zM227 1116q183 191 477 191q169 0 321.5 -89.5t241.5 -241.5t89 -331h-203q0 191 -133 326q-137 133 -326 133
t-325 -129l176 -178h-471v475z" />
    <glyph glyph-name="uni8675" unicode="&#x8675;" horiz-adv-x="1841" 
d="M166 637q0 -109 41.5 -205t112.5 -167t167 -112.5t205 -41.5t205 41.5t167.5 112.5t113 167t41.5 205t-41.5 205t-113 167t-167.5 112.5t-205 41.5t-205 -41.5t-167 -112.5t-112.5 -167t-41.5 -205zM0 663q0 119 54 244.5t147 219.5t218.5 148t268.5 54t268.5 -54
t219.5 -148t148 -219.5t54 -268.5t-54 -268.5t-148 -218.5t-219.5 -147t-244.5 -54t-207 24.5t-164.5 69t-139.5 107.5t-107.5 139.5t-69 164.5t-24.5 207zM627 625v297h147v-297h221l-295 -295l-297 295h224z" />
    <glyph glyph-name="uni9635" unicode="&#x9635;" horiz-adv-x="1194" 
d="M710 494q30 0 30 -40v-197q0 -34 -26 -34q-17 0 -34 17v238q16 16 30 16zM940 447q0 45 31 45t31 -45v-38h-62v38zM969 157q106 0 106 118v29h-73v-27q0 -33 -6 -43t-25 -10t-25 11t-6 42v73h135v97q0 112 -101 112q-47 0 -78 -31q-29 -32 -29 -81v-172q0 -55 27 -87
t75 -31zM748 163q65 0 65 84v212q0 95 -69 95q-33 0 -64 -35v166h-71v-518h71v30q28 -34 68 -34zM386 162q44 0 82 48v-43h72v383h-72v-290q-21 -29 -40 -29q-20 0 -20 26v293h-71v-320q0 -68 49 -68zM255 610h83v75h-246v-75h83v-443h80v443zM587 25q-247 0 -346 4
q-98 4 -128.5 17t-67 48.5t-36.5 105.5q-8 110 -8 219t4 181t17.5 102.5t49.5 66.5t106 36q162 8 409 8t345 -4t129 -17t67 -49t36 -105q10 -110 10 -219t-5 -182q-5 -72 -18 -102.5t-36 -53t-54 -35.5t-129 -17t-345 -4zM610 991v319h71v-293q1 -25 19 -25t42 28v290h71
v-382h-71v42q-41 -47 -82 -47q-50 0 -50 68zM254 928h-80v206l-95 312h80l52 -207h5l50 207h81l-93 -303v-215zM477 1226q0 28 -30 28t-30 -28v-208q0 -33 30 -33t30 33v208zM344 1223q0 44 28 71q30 26 76 26t74 -28t28 -71v-198q0 -49 -28 -77t-75 -28t-76 29
q-27 30 -27 78v198z" />
    <glyph glyph-name="uniFFFD" unicode="&#xfffd;" horiz-adv-x="1847" 
d="M166 637q0 -109 41.5 -205t112.5 -167t167 -112.5t205 -41.5t205 41.5t167.5 112.5t113 167t41.5 205t-41.5 205t-113 167t-167.5 112.5t-205 41.5t-205 -41.5t-167 -112.5t-112.5 -167t-41.5 -205zM0 663q0 119 54 244.5t147 219.5t218.5 148t268.5 54t268.5 -54
t219.5 -148t148 -219.5t54 -268.5t-54 -268.5t-148 -218.5t-219.5 -147t-244.5 -54t-207 24.5t-164.5 69t-139.5 107.5t-107.5 139.5t-69 164.5t-24.5 207zM610 416h150v-140h-150v140zM780 780q0 99 -89 99t-102.5 -48.5t-13.5 -66.5h-137q4 143 97 197q54 34 151 34
t172 -49q68 -50 68 -160q0 -59 -29 -106q-20 -27 -74 -64l-30 -24q-31 -35 -37 -53q-3 -21 -6 -56h-136q4 84 21 113q11 28 61 70l33 30q24 13 33 29q18 24 18 55z" />
    <glyph glyph-name="paragraph" horiz-adv-x="1165" 
d="M541 651h-19q-323 0 -387.5 141.5t-64.5 253.5q0 213 131 300.5t362 87.5h447v-1620h-158v1462h-154v-1462h-157v837z" />
    <glyph glyph-name="grave.cap" horiz-adv-x="834" 
d="M188 1724h211l88 -194v-51h-118l-181 180v65z" />
    <glyph glyph-name="dieresis.cap" horiz-adv-x="834" 
d="M586 1489q-48 0 -81.5 33.5t-33.5 69.5t9 57t24.5 37t36.5 25t57.5 9t70 -35t33.5 -69q0 -35 -9.5 -56.5t-34 -46t-72.5 -24.5zM246 1489q-49 0 -83 34t-34 70t9.5 56.5t25 36.5t37 25t58.5 9t70 -34.5t33 -69.5t-9 -56.5t-33.5 -46t-73.5 -24.5z" />
    <glyph glyph-name="macron.cap" horiz-adv-x="834" 
d="M666 1518h-498v149h498v-149z" />
    <glyph glyph-name="acute.cap" horiz-adv-x="834" 
d="M643 1724v-65l-176 -180h-121v51l88 194h209z" />
    <glyph glyph-name="circumflex.cap" horiz-adv-x="834" 
d="M666 1479h-117l-135 110l-138 -110h-110v59l178 193h150l172 -193v-59z" />
    <glyph glyph-name="caron.cap" horiz-adv-x="834" 
d="M166 1731h115l137 -109l137 109h111v-60l-181 -192h-147l-172 192v60z" />
    <glyph glyph-name="breve.cap" horiz-adv-x="834" 
d="M416 1630q101 0 114 94h136v-59q-27 -123 -111.5 -152.5t-138.5 -29.5q-102 0 -167.5 52.5t-80.5 129.5v59h135q5 -42 33.5 -68t79.5 -26z" />
    <glyph glyph-name="dotaccent.cap" horiz-adv-x="834" 
d="M418 1491q-24 -1 -47 9t-39 26t-26 38t-9 46q0 51 36 87q37 36 73 36t58 -10q22 -11 38 -27t27 -38q10 -22 10 -48q0 -24 -10 -46q-11 -22 -27 -38t-38 -26t-46 -9z" />
    <glyph glyph-name="ring.cap" horiz-adv-x="834" 
d="M417 1587q36 0 60.5 24t24.5 66t-24.5 67t-60.5 25t-60.5 -25t-24.5 -67t24.5 -66t60.5 -24zM416 1485q-39 0 -74.5 13.5t-61.5 38.5t-41.5 60.5t-15.5 79.5t15.5 79.5t41.5 61t61.5 39t74.5 13.5t74 -13.5t62 -39t42.5 -61t15.5 -79.5t-15.5 -79.5t-42.5 -60.5
t-62 -38.5t-74 -13.5z" />
    <glyph glyph-name="tilde.cap" horiz-adv-x="834" 
d="M311 1559q-60 0 -73 -72h-123v61q15 79 60 123.5t106 44.5t130 -32.5t93 -32.5q57 0 74 67h118v-59q-15 -79 -59.5 -123.5t-105.5 -44.5t-108.5 23.5t-70 34t-41.5 10.5z" />
    <glyph glyph-name="hungarumlaut.cap" horiz-adv-x="834" 
d="M741 1724v-65l-125 -180h-116v45l69 200h172zM457 1724v-65l-127 -180h-117v45l70 200h174z" />
    <glyph glyph-name="uni00AB" horiz-adv-x="1847" 
d="M180 692l582 -581v-152l-14 -12l-748 747l748 750l14 -14v-158z" />
  </font>
</defs>
</svg>
