<?xml version="1.0" encoding="utf-8"?>
<!-- Generator: Adobe Illustrator 16.0.0, SVG Export Plug-In . SVG Version: 6.00 Build 0)  -->
<!DOCTYPE svg PUBLIC "-//W3C//DTD SVG 1.1//EN" "http://www.w3.org/Graphics/SVG/1.1/DTD/svg11.dtd">
<svg version="1.1" id="Layer_1" xmlns="http://www.w3.org/2000/svg" xmlns:xlink="http://www.w3.org/1999/xlink" x="0px" y="0px" width="419.33px" height="370px" viewBox="0 0 419.33 370" enable-background="new 0 0 419.33 370" xml:space="preserve" preserveAspectRatio="none">

	<defs>
		<filter id="dropshadow" height="130%">
		  <feGaussianBlur in="SourceAlpha" stdDeviation="2"/> <!-- stdDeviation is how much to blur -->
			<feOffset dx="2" dy="2" result="offsetblur"/> <!-- how much to offset -->
			<feMerge> 
			  <feMergeNode/> <!-- this contains the offset blurred image -->
			  <feMergeNode in="SourceGraphic"/> <!-- this contains the element that the filter is applied to -->
		   </feMerge>
		</filter>

		<linearGradient id="grad1" gradientUnits="userSpaceOnUse" x1="491.5137" y1="45.3364" x2="-126.7571" y2="321.03">
			<stop  offset="0" style="stop-color:#ED1C24"/>
			<stop  offset="1" style="stop-color:#EF435E"/>
		</linearGradient>
	</defs>

	<g opacity="0.9" style="filter:url(#dropshadow)">
		<path fill="url(#grad1)" d="M13.97,332.86c-0.01,5.5,4.45,9.52,9.92,8.94l370.72-39.55c5.47-0.58,9.96-5.56,9.99-11.06 l0.8-175.73c0.03-5.5-4.39-10.75-9.81-11.67L24.53,41c-5.42-0.92-9.87,2.83-9.88,8.33L13.97,332.86z"/>
	</g>
	<g opacity="0.9" style="filter:url(#dropshadow)">
		<path fill="url(#grad1)" d="M29.13,353.44c0,5.5,4.47,9.5,9.94,8.88l364.88-41.1c5.47-0.62,9.96-5.62,9.98-11.12l1.04-236.51 c0.02-5.5-4.41-10.64-9.85-11.42L39.02,9.47c-5.44-0.78-9.9,3.08-9.9,8.58V353.44z"/>
	</g>
</svg>
