<?xml version="1.0" standalone="no"?> <!DOCTYPE svg PUBLIC "-//W3C//DTD SVG 1.0//EN" "http://www.w3.org/TR/2001/REC-SVG-20010904/DTD/svg10.dtd" > <svg xmlns="http://www.w3.org/2000/svg" width="100%" height="100%">
<defs >
<font id="stagsanswebbook" horiz-adv-x="547" ><font-face
    font-family="Stag Sans"
    units-per-em="1000"
    panose-1="2 11 5 3 4 0 0 2 0 4"
    ascent="800"
    descent="-200"
    alphabetic="0" />
<missing-glyph horiz-adv-x="485" />
<glyph unicode=" " glyph-name="space" horiz-adv-x="216" />
<glyph unicode="!" glyph-name="exclam" horiz-adv-x="265" d="M78 635V700H187V635L168 180H97L78 635ZM132 -5Q106 -5 89 13T71 57Q71 83 88 101T132 120Q158 120 176 102T194 57Q194 31 176 13T132 -5Z" />
<glyph unicode="&quot;" glyph-name="quotedbl" horiz-adv-x="306" d="M32 639V700H129V639L112 497H51L32 639ZM177 639V700H274V639L256 497H194L177 639Z" />
<glyph unicode="#" glyph-name="numbersign" horiz-adv-x="507" d="M57 502H146L174 700H247L217 502H328L356 700H428L400 502H476V420H388L372 305H448V223H360L329 0H257L288 223H179L148 0H75L107 223H29V305H119L134 420H57V502ZM190 305H300L316 420H206L190 305Z" />
<glyph unicode="$" glyph-name="dollar" horiz-adv-x="519" d="M290 705Q341 701 378 688T447 655V571H410Q386 593 357 608T290 628V400Q340 386 377 370T438 332T474 277T486 200Q486 106 433 55T284 -4V-102H217V-5Q154 -2 111 13T31 55V143H69Q91 119 127
98T217 72V320Q173 333 139 349T81 388T45 441T32 514Q32 598 83 647T223 704V764H290V705ZM391 188Q391 214 384 232T364 262T330 283T284 300V74Q391 91 391 188ZM123 524Q123 479 148 457T223 419V627Q171 619 147 592T123 524Z" />
<glyph unicode="%" glyph-name="percent" horiz-adv-x="772" d="M191 406Q227 406 248 435T269 525Q269 585 248 614T191 644Q156 644 135 615T114 525Q114 465 135 436T191 406ZM191 344Q159 344 130 355T79 389T44 446T30 526Q30 572 43 605T79 661T130 695T191
706Q223 706 252 695T304 662T339 606T352 526Q352 480 339 446T304 390T253 356T191 344ZM584 729H665L186 -34H106L584 729ZM580 56Q615 56 636 85T658 175Q658 235 637 264T580 294Q545 294 524 265T503 175Q503 115 524 86T580 56ZM580 -6Q548 -6 519 5T468
39T432 96T419 176Q419 222 432 255T467 311T519 345T580 356Q612 356 641 345T692 312T728 256T741 176Q741 130 728 96T693 40T641 6T580 -6Z" />
<glyph unicode="&amp;" glyph-name="ampersand" horiz-adv-x="657" d="M463 72Q427 36 379 15T269 -6Q211 -6 167 9T94 51T49 115T34 198Q34 236 46 267T78 324T125 368T182 400Q163 426 151 457T139 531Q139 570 153 602T193 657T256 693T340 706Q392 706 426
695T485 663V583H445Q428 600 404 611T341 623Q296 623 269 598T242 530Q242 498 257 472T304 408L467 220Q485 261 499 309T517 408H605V382Q595 319 574 260T525 153L629 33V0H526L463 72ZM286 75Q327 75 357 89T411 130L226 345Q190 324 166 293T142 207Q142
181 150 157T176 115T221 86T286 75Z" />
<glyph unicode="&apos;" glyph-name="quotesingle" horiz-adv-x="162" d="M32 639V700H129V639L112 497H51L32 639Z" />
<glyph unicode="(" glyph-name="parenleft" horiz-adv-x="314" d="M288 671Q264 660 237 638T188 578T150 484T135 349Q135 267 149 210T186 114T236 54T288 20V-49H265Q226 -37 185 -9T111 67T57 184T36 349Q36 442 57 510T111 626T185 701T265 741H288V671Z" />
<glyph unicode=")" glyph-name="parenright" horiz-adv-x="314" d="M25 741H50Q89 729 129 702T203 627T257 511T278 349Q278 254 257 185T203 67T130 -9T50 -49H25V20Q50 31 77 53T127 114T165 209T180 349Q180 428 165 484T127 578T77 638T25 671V741Z" />
<glyph unicode="*" glyph-name="asterisk" horiz-adv-x="374" d="M211 570L284 614L321 626L346 546L310 534L227 524L290 464L314 431L249 383L225 416L186 498L149 416L125 383L60 431L84 464L147 524L64 534L27 546L53 626L89 614L162 570L146 659V700H227V659L211
570Z" />
<glyph unicode="+" glyph-name="plus" horiz-adv-x="500" d="M294 303V115H207V303H34V388H207V576H294V388H466V303H294Z" />
<glyph unicode="," glyph-name="comma" horiz-adv-x="197" d="M32 -48Q58 -43 71 -33T85 -9Q85 4 78 7T60 18Q49 26 43 36T36 65Q36 88 53 104T96 120Q122 120 141 102T161 42Q161 -24 130 -57T32 -98V-48V-48Z" />
<glyph unicode="-" glyph-name="hyphen" horiz-adv-x="276" d="M37 341H239V254H37V341Z" />
<glyph unicode="." glyph-name="period" horiz-adv-x="197" d="M98 -5Q72 -5 54 13T36 57Q36 83 54 101T98 120Q124 120 142 102T161 57Q161 31 143 13T98 -5Z" />
<glyph unicode="/" glyph-name="slash" horiz-adv-x="336" d="M320 718L91 -49H13V-26L241 741H320V718Z" />
<glyph unicode="0" glyph-name="zero" horiz-adv-x="649" d="M325 -6Q268 -6 216 15T125 81T62 192T39 350Q39 440 62 507T124 618T216 684T325 706Q382 706 433 685T524 619T587 507T610 350Q610 259 587 192T525 81T434 16T325 -6ZM325 74Q364 74 396 89T451
138T486 223T499 348Q499 421 487 473T451 559T396 609T325 625Q245 625 198 560T151 348Q151 275 163 223T198 138T253 90T325 74Z" />
<glyph unicode="1" glyph-name="one" horiz-adv-x="346" d="M145 0V581L53 529H21V603L181 700H253V0H145Z" />
<glyph unicode="2" glyph-name="two" horiz-adv-x="518" d="M476 0H27V90L224 287Q259 322 285 352T328 408T355 460T364 511Q364 562 334 591T246 621Q192 621 155 602T91 559H53V636Q85 662 137 684T252 706Q358 706 415 658T473 515Q473 477 461 442T425 374T371
306T300 234L152 89H476V0Z" />
<glyph unicode="3" glyph-name="three" horiz-adv-x="507" d="M219 -6Q152 -6 105 10T25 52V133H69Q88 112 124 95T213 77Q282 77 321 110T361 204Q361 266 323 292T219 319H164V400H212Q279 400 316 428T353 513Q353 622 235 622Q184 622 148 606T90 572H51V645Q86
671 133 688T243 706Q343 706 399 662T456 523Q456 489 447 464T422 419T384 386T335 365V361Q396 349 433 310T470 201Q470 151 452 113T402 48T323 8T219 -6Z" />
<glyph unicode="4" glyph-name="four" horiz-adv-x="564" d="M347 0V162H26V258L354 700H455V243H539V162H455V0H347ZM109 243H347V562H345L109 246V243Z" />
<glyph unicode="5" glyph-name="five" horiz-adv-x="519" d="M482 232Q482 176 463 132T408 58T324 11T217 -6Q150 -6 107 10T30 49V130H73Q92 110 127 93T215 76Q287 76 330 116T374 228Q374 265 365 291T338 335T298 360T249 368Q224 368 204 363T168 349T141
330T121 310H54V700H447V610H134V404H136Q153 419 188 434T275 450Q317 450 355 437T421 398T465 330T482 232Z" />
<glyph unicode="6" glyph-name="six" horiz-adv-x="583" d="M302 -6Q246 -6 198 14T115 77T60 183T39 335Q39 425 62 494T128 611T230 682T364 706Q414 706 448 698T508 675V591H466Q452 603 425 613T359 624Q259 624 208 558T150 366Q182 400 230 418T332 436Q377
436 416 423T485 383T531 318T548 226Q548 173 530 131T480 58T402 11T302 -6ZM307 358Q260 358 218 340T149 294Q153 175 195 123T302 70Q371 70 406 111T441 223Q441 292 404 325T307 358Z" />
<glyph unicode="7" glyph-name="seven" horiz-adv-x="509" d="M116 47L396 607V610H30V700H477V602L217 0H116V47Z" />
<glyph unicode="8" glyph-name="eight" horiz-adv-x="574" d="M286 -6Q163 -6 99 48T34 196Q34 264 72 309T172 373V376Q124 393 94 430T64 526Q64 568 80 601T125 657T195 693T286 706Q336 706 377 694T447 658T493 601T509 526Q509 468 480 431T402 376V373Q465
354 502 309T540 196Q540 102 475 48T286 -6ZM286 70Q360 70 397 107T435 201Q435 258 398 296T286 335Q212 335 176 297T139 201Q139 145 175 108T286 70ZM286 412Q343 412 375 440T407 519Q407 570 375 599T286 629Q230 629 199 600T167 519Q167 468 198 440T286
412Z" />
<glyph unicode="9" glyph-name="nine" horiz-adv-x="582" d="M216 -6Q167 -6 132 1T68 22V107H111Q122 96 150 86T220 75Q274 75 313 92T377 141T416 220T433 329Q399 297 351 281T252 264Q206 264 166 277T97 316T51 381T34 472Q34 524 52 567T102 641T180 689T280
706Q335 706 383 686T466 623T522 517T542 365Q542 183 457 89T216 -6ZM276 342Q323 342 365 360T433 406Q430 466 418 508T387 578T340 617T280 630Q211 630 177 588T142 475Q142 406 179 374T276 342Z" />
<glyph unicode=":" glyph-name="colon" horiz-adv-x="200" d="M100 294Q74 294 56 312T37 356Q37 382 55 400T100 419Q126 419 144 401T162 356Q162 330 144 312T100 294ZM100 -5Q74 -5 56 13T37 57Q37 83 55 101T100 120Q126 120 144 102T162 57Q162 31 144 13T100 -5Z" />
<glyph unicode=";" glyph-name="semicolon" horiz-adv-x="200" d="M32 -48Q58 -43 71 -33T85 -9Q85 4 78 7T60 18Q49 26 43 36T36 65Q36 88 53 104T96 120Q122 120 141 102T161 42Q161 -24 130 -57T32 -98V-48ZM100 294Q74 294 56 312T37 356Q37 382 55 400T100
419Q126 419 144 401T162 356Q162 330 144 312T100 294Z" />
<glyph unicode="&lt;" glyph-name="less" horiz-adv-x="465" d="M33 366L402 560H428V480L137 332V330L428 180V99H402L33 293V366Z" />
<glyph unicode="=" glyph-name="equal" horiz-adv-x="492" d="M35 368V453H456V368H35ZM35 176V261H456V176H35Z" />
<glyph unicode="&gt;" glyph-name="greater" horiz-adv-x="465" d="M432 293L63 99H37V179L329 327V329L37 479V560H63L432 366V293Z" />
<glyph unicode="?" glyph-name="question" horiz-adv-x="441" d="M134 180Q129 213 130 238T139 286T164 331T206 380Q222 397 238 414T267 449T288 489T296 535Q296 578 271 600T201 623Q154 623 124 608T74 571H32V650Q62 673 104 689T207 706Q299 706 352 664T405
535Q405 503 397 478T373 431T338 389T293 346Q272 327 256 311T228 275T212 234T210 180H134ZM176 -5Q150 -5 133 13T115 57Q115 83 132 101T176 120Q202 120 220 102T238 57Q238 31 220 13T176 -5Z" />
<glyph unicode="@" glyph-name="at" horiz-adv-x="858" d="M430 -128Q355 -128 284 -107T157 -41T68 74T34 242Q34 344 71 423T169 555T303 635T452 663Q528 663 595 642T714 579T794 476T824 336Q824 266 805 216T754 132T681 84T598 68Q541 68 515 89T484 142Q461
113 427 91T345 68Q292 68 259 102T226 204Q226 249 242 295T287 378T357 438T450 462Q488 462 510 451T549 425Q560 441 572 449T604 458H636L578 205Q572 174 579 154T618 134Q643 134 666 145T708 181T736 243T747 336Q747 397 726 445T666 527T573 578T452
596Q389 596 329 574T221 508T144 398T115 242Q115 161 139 104T207 10T307 -44T430 -61Q504 -61 567 -43T676 8H703V-55Q658 -88 586 -108T430 -128ZM372 136Q405 136 432 155T484 201L524 377Q512 383 499 388T461 393Q430 393 404 377T359 335T328 274T317 204Q317
169 333 153T372 136Z" />
<glyph unicode="A" glyph-name="A" horiz-adv-x="639" d="M31 33L262 700H378L608 33V0H505L440 196H183L120 0H31V33ZM209 276H413L312 585H310L209 276Z" />
<glyph unicode="B" glyph-name="B" horiz-adv-x="588" d="M77 700H292Q346 700 388 690T460 659T505 603T521 520Q521 454 488 420T401 371V368Q433 361 460 349T507 317T538 268T550 199Q550 99 484 50T303 0H77V700ZM300 82Q365 82 402 112T439 204Q439 266
402 296T296 326H184V82H300ZM288 405Q346 405 379 430T413 513Q413 570 380 594T289 618H184V405H288Z" />
<glyph unicode="C" glyph-name="C" horiz-adv-x="613" d="M354 -6Q284 -6 227 17T129 86T66 198T43 350Q43 435 67 501T135 612T236 682T363 706Q400 706 429 702T482 691T525 673T565 650V565H523Q498 589 462 606T366 623Q318 623 279 606T213 555T170 471T154
354Q154 214 207 145T358 76Q391 76 418 82T466 98T505 123T538 152H573V69Q537 37 484 16T354 -6Z" />
<glyph unicode="D" glyph-name="D" horiz-adv-x="668" d="M77 700H277Q447 700 537 618T627 352Q627 170 537 85T274 0H77V700ZM274 82Q336 82 381 96T456 143T500 227T515 351Q515 423 501 473T457 556T382 602T274 617H185V82H274Z" />
<glyph unicode="E" glyph-name="E" horiz-adv-x="556" d="M77 700H506V616H185V398H420V318H185V82H517V0H77V700Z" />
<glyph unicode="F" glyph-name="F" horiz-adv-x="545" d="M77 0V700H508V616H185V382H430V301H185V0H77Z" />
<glyph unicode="G" glyph-name="G" horiz-adv-x="661" d="M358 -6Q284 -6 225 17T125 85T62 196T40 350Q40 437 64 503T131 615T235 683T370 706Q437 706 481 694T567 659V569H528Q502 592 467 607T372 622Q323 622 283 607T215 559T171 476T155 354Q155 211 206
142T358 73Q405 73 434 80T485 98V279H368V355H593V48Q548 24 491 9T358 -6Z" />
<glyph unicode="H" glyph-name="H" horiz-adv-x="681" d="M77 0V700H185V400H496V700H605V0H496V318H185V0H77Z" />
<glyph unicode="I" glyph-name="I" horiz-adv-x="268" d="M79 0V700H189V0H79Z" />
<glyph unicode="J" glyph-name="J" horiz-adv-x="442" d="M168 -7Q118 -7 84 3T24 30V113H62Q76 99 99 88T163 76Q259 76 259 176V700H369V174Q369 87 320 40T168 -7Z" />
<glyph unicode="K" glyph-name="K" horiz-adv-x="632" d="M77 700H185V352L488 700H576V667L356 418L600 33V0H499L285 339L185 230V0H77V700Z" />
<glyph unicode="L" glyph-name="L" horiz-adv-x="535" d="M77 0V700H185V82H497V0H77Z" />
<glyph unicode="M" glyph-name="M" horiz-adv-x="825" d="M77 700H228L413 169H415L600 700H748V0H640V571H637L437 0H369L171 571H167V0H77V700Z" />
<glyph unicode="N" glyph-name="N" horiz-adv-x="679" d="M77 700H202L507 185H509V700H603V0H503L172 561H170V0H77V700Z" />
<glyph unicode="O" glyph-name="O" horiz-adv-x="714" d="M357 -6Q293 -6 236 17T135 85T66 196T40 350Q40 436 65 502T134 614T235 682T357 706Q421 706 478 683T578 614T647 503T673 350Q673 263 648 197T579 85T478 17T357 -6ZM357 75Q401 75 438 91T503 141T546
226T562 348Q562 418 547 470T504 556T439 608T357 625Q313 625 276 608T211 557T168 470T152 348Q152 278 167 227T210 142T275 92T357 75Z" />
<glyph unicode="P" glyph-name="P" horiz-adv-x="573" d="M77 700H281Q402 700 470 650T539 487Q539 374 471 322T279 270H185V0H77V700ZM185 349H279Q357 349 393 381T429 485Q429 556 393 586T279 617H185V349Z" />
<glyph unicode="Q" glyph-name="Q" horiz-adv-x="715" d="M327 -18Q262 1 209 31T119 105T61 209T40 350Q40 437 65 503T134 615T235 683T357 706Q421 706 478 683T579 615T647 504T673 350Q673 285 658 231T615 136T548 66T460 24V22L694 -22V-108H648L327 -18ZM357
73Q401 73 438 90T503 141T546 226T562 348Q562 418 547 470T504 556T439 608T357 625Q313 625 276 608T211 557T168 470T152 348Q152 278 167 227T210 141T275 90T357 73Z" />
<glyph unicode="R" glyph-name="R" horiz-adv-x="613" d="M318 293Q310 292 302 292T285 292H186V0H78V700H285Q402 700 468 652T535 501Q535 429 505 383T420 314L571 33V0H472L318 293ZM186 372H282Q354 372 389 400T425 495Q425 561 388 589T282 617H186V372Z" />
<glyph unicode="S" glyph-name="S" horiz-adv-x="520" d="M242 -6Q168 -6 118 10T29 53V141H67Q91 115 132 96T239 77Q308 77 345 105T383 190Q383 223 371 242T337 275T286 296T224 314Q178 327 144 344T86 384T51 439T39 513Q39 559 54 594T99 655T170 693T262
706Q325 706 370 693T448 659V574H411Q384 596 350 609T266 623Q199 623 167 597T134 521Q134 494 143 476T171 445T214 424T272 407Q326 392 365 376T431 337T470 281T483 201Q483 98 420 46T242 -6Z" />
<glyph unicode="T" glyph-name="T" horiz-adv-x="570" d="M230 0V618H29V700H540V618H339V0H230Z" />
<glyph unicode="U" glyph-name="U" horiz-adv-x="674" d="M349 80Q384 80 412 88T461 116T493 170T504 255V700H601V258Q601 124 538 59T343 -6Q281 -6 231 10T146 59T92 141T73 258V700H182V255Q182 203 194 169T229 116T281 88T349 80Z" />
<glyph unicode="V" glyph-name="V" horiz-adv-x="633" d="M30 667V700H132L320 134H322L511 700H603V667L372 0H259L30 667Z" />
<glyph unicode="W" glyph-name="W" horiz-adv-x="885" d="M32 667V700H135L260 151H262L400 700H496L633 151H635L760 700H853V667L688 0H573L445 528H443L312 0H197L32 667Z" />
<glyph unicode="X" glyph-name="X" horiz-adv-x="625" d="M38 35L242 365L46 665V700H148L319 432L479 700H567V665L379 358L587 35V0H486L301 292L125 0H38V35Z" />
<glyph unicode="Y" glyph-name="Y" horiz-adv-x="581" d="M241 0V280L27 665V700H126L298 383H299L467 700H554V665L349 283V0H241Z" />
<glyph unicode="Z" glyph-name="Z" horiz-adv-x="541" d="M27 87L394 615V618H54V700H509V611L143 83V80H505V0H27V87Z" />
<glyph unicode="[" glyph-name="bracketleft" horiz-adv-x="315" d="M77 741H281V669H174V23H281V-49H77V741Z" />
<glyph unicode="\" glyph-name="backslash" horiz-adv-x="336" d="M16 741H94L323 -26V-49H244L16 718V741Z" />
<glyph unicode="]" glyph-name="bracketright" horiz-adv-x="314" d="M237 -49H33V23H141V669H33V741H237V-49Z" />
<glyph unicode="^" glyph-name="asciicircum" horiz-adv-x="417" d="M22 485L167 700H251L395 485V457H312L210 606H207L105 457H22V485Z" />
<glyph unicode="_" glyph-name="underscore" horiz-adv-x="356" d="M5 -162V-92H351V-162H5Z" />
<glyph unicode="`" glyph-name="grave" horiz-adv-x="407" d="M180 567L86 667V700H188L238 591V567H180Z" />
<glyph unicode="a" glyph-name="a" horiz-adv-x="516" d="M413 0Q383 0 371 11T353 58Q324 26 287 10T197 -6Q161 -6 131 4T80 33T46 82T33 150Q33 190 48 220T90 269T154 299T236 309Q270 309 296 306T350 295V364Q350 411 324 432T245 453Q198 453 163 441T102
410H70V486Q105 503 150 517T258 531Q351 531 402 494T453 371V0H413ZM230 64Q272 64 299 81T350 124V235Q328 240 304 242T253 245Q200 245 167 225T133 156Q133 107 160 86T230 64Z" />
<glyph unicode="b" glyph-name="b" horiz-adv-x="571" d="M169 456Q198 485 240 508T339 531Q376 531 411 518T473 475T518 394T535 269Q535 192 516 140T467 55T397 9T317 -6Q262 -6 224 9T158 50Q150 28 137 14T109 0H67V700H123Q138 700 147 698T161 688T167
667T169 632V456ZM302 449Q264 449 230 431T169 389V117Q192 93 220 81T290 69Q316 69 341 77T386 106T418 164T431 259Q431 317 420 354T391 412T350 441T302 449Z" />
<glyph unicode="c" glyph-name="c" horiz-adv-x="489" d="M287 -6Q167 -6 101 65T34 261Q34 324 53 374T107 459T189 512T292 531Q353 531 389 517T449 489V409H407Q390 426 362 439T291 452Q223 452 181 403T138 261Q138 166 179 119T289 72Q340 72 369 88T416
122H454V48Q431 30 390 12T287 -6Z" />
<glyph unicode="d" glyph-name="d" horiz-adv-x="572" d="M437 0Q420 0 413 13T403 71Q376 39 335 17T239 -6Q198 -6 162 9T97 55T53 136T37 254Q37 331 56 384T105 469T175 516T253 531Q307 531 341 517T402 477V700H458Q473 700 482 698T496 688T502 667T504
632V0H437ZM264 69Q308 69 340 88T402 139V405Q379 426 351 437T282 449Q256 449 231 441T185 412T153 353T140 259Q140 205 149 169T175 111T214 79T264 69Z" />
<glyph unicode="e" glyph-name="e" horiz-adv-x="526" d="M139 242Q143 149 183 110T298 71Q349 71 384 85T443 119H476V48Q447 28 402 11T283 -6Q163 -6 99 65T34 260Q34 323 52 373T102 458T178 512T273 531Q377 531 434 470T492 278Q492 267 492 256T491 242H139ZM273
461Q222 461 186 427T141 309H391Q389 394 358 427T273 461Z" />
<glyph unicode="f" glyph-name="f" horiz-adv-x="317" d="M20 523H83V568Q83 641 121 674T225 707Q252 707 270 704T301 696V632H257Q223 632 204 619T185 564V523H292V451H185V0H83V451H20V523Z" />
<glyph unicode="g" glyph-name="g" horiz-adv-x="571" d="M504 18Q504 -28 487 -63T439 -121T363 -156T263 -168Q195 -168 145 -156T62 -124V-47H95Q121 -67 160 -79T249 -92Q321 -92 361 -65T402 25V81Q374 52 334 33T241 13Q201 13 165 26T100 70T54 147T37
261Q37 334 56 385T106 469T176 516T257 531Q309 531 346 516T409 474Q414 495 425 509T457 523H504V18ZM268 88Q309 88 342 107T402 153V403Q378 426 350 437T282 449Q256 449 231 441T185 413T153 358T140 269Q140 216 149 182T176 126T216 97T268 88Z" />
<glyph unicode="h" glyph-name="h" horiz-adv-x="566" d="M169 457Q207 487 259 509T369 531Q396 531 420 525T463 502T492 458T503 387V0H401V363Q401 412 381 429T322 446Q279 446 240 430T169 394V0H67V700H123Q138 700 147 698T161 688T167 668T169 632V457Z" />
<glyph unicode="i" glyph-name="i" horiz-adv-x="240" d="M68 0V523H125Q140 523 149 520T162 509T168 485T170 445V0H68ZM120 581Q96 581 78 598T60 639Q60 664 78 681T120 699Q144 699 162 682T180 639Q180 615 162 598T120 581Z" />
<glyph unicode="j" glyph-name="j" horiz-adv-x="240" d="M-25 -95H4Q39 -95 53 -78T68 -23V523H125Q140 523 148 520T162 509T168 485T170 445V-29Q170 -99 137 -132T38 -166Q18 -166 4 -165T-25 -158V-95ZM120 581Q96 581 78 598T60 639Q60 664 78 681T120 699Q144
699 162 682T180 639Q180 615 162 598T120 581Z" />
<glyph unicode="k" glyph-name="k" horiz-adv-x="516" d="M169 278L383 523H468V493L306 313L485 31V0H392L237 242L169 167V0H67V700H123Q138 700 147 698T161 688T167 667T169 632V278Z" />
<glyph unicode="l" glyph-name="l" horiz-adv-x="239" d="M68 0V700H125Q140 700 149 698T163 688T169 667T171 632V0H68Z" />
<glyph unicode="m" glyph-name="m" horiz-adv-x="865" d="M131 523Q150 523 158 511T169 459Q204 487 252 509T356 531Q397 531 429 514T476 455Q515 487 565 509T671 531Q698 531 721 524T762 501T790 458T801 392V0H700V365Q700 411 681 428T626 446Q585 446
550 431T485 396V0H383V365Q383 411 364 428T310 446Q268 446 234 431T169 396V0H67V523H131V523Z" />
<glyph unicode="n" glyph-name="n" horiz-adv-x="566" d="M131 523Q150 523 158 511T169 457Q207 487 259 509T369 531Q396 531 420 525T463 502T492 458T503 387V0H401V363Q401 412 381 429T322 446Q279 446 240 430T169 394V0H67V523H131V523Z" />
<glyph unicode="o" glyph-name="o" horiz-adv-x="568" d="M284 -6Q231 -6 185 12T106 64T53 148T34 260Q34 323 53 373T105 458T185 512T284 531Q337 531 383 512T462 458T515 373T534 260Q534 198 515 149T463 65T383 12T284 -6ZM284 71Q351 71 390 118T430 260Q430
355 391 404T284 454Q218 454 178 405T138 260Q138 165 178 118T284 71Z" />
<glyph unicode="p" glyph-name="p" horiz-adv-x="571" d="M314 3Q264 3 230 15T169 50V-162H67V523H131Q150 523 158 511T169 456Q198 485 239 508T339 531Q376 531 411 518T473 474T518 395T535 273Q535 198 516 146T466 63T395 17T314 3ZM303 449Q265 449 231
431T169 389V124Q192 101 221 90T289 78Q316 78 341 86T387 114T419 171T431 263Q431 319 420 355T391 412T350 441T303 449Z" />
<glyph unicode="q" glyph-name="q" horiz-adv-x="571" d="M402 71Q375 42 335 23T243 3Q202 3 165 17T100 61T54 140T37 256Q37 332 56 384T106 469T176 516T257 531Q310 531 346 515T409 473Q414 495 426 509T457 523H504V-162H402V71ZM268 78Q309 78 342 96T402
144V403Q379 426 351 437T281 449Q255 449 230 441T184 412T152 356T140 265Q140 211 149 176T175 118T215 87T268 78Z" />
<glyph unicode="r" glyph-name="r" horiz-adv-x="375" d="M324 441Q270 441 232 423T169 382V0H67V523H131Q140 523 147 521T158 510T165 488T169 451Q195 481 232 504T319 528Q328 528 335 527T347 524V440H337Q333 440 330 440T324 441Z" />
<glyph unicode="s" glyph-name="s" horiz-adv-x="443" d="M209 -5Q144 -5 104 9T38 41V120H71Q89 103 122 88T204 73Q313 73 313 149Q313 165 308 177T290 199T256 214T203 225Q123 236 81 269T38 376Q38 451 88 490T226 529Q282 529 318 518T380 492V414H347Q328
429 299 440T227 451Q129 451 129 384Q129 353 153 338T240 313Q283 307 315 296T368 267T399 222T409 158Q409 83 361 39T209 -5Z" />
<glyph unicode="t" glyph-name="t" horiz-adv-x="332" d="M20 523H83V665H185V523H301V451H185V141Q185 99 203 85T260 70H307V4Q293 0 272 -3T224 -6Q157 -6 120 24T83 129V451H20V523Z" />
<glyph unicode="u" glyph-name="u" horiz-adv-x="572" d="M250 73Q290 73 328 88T398 123V523H500V0H436Q418 0 410 10T399 59Q360 31 311 12T210 -7Q179 -7 153 0T108 23T78 66T67 133V523H169V156Q169 106 191 90T250 73Z" />
<glyph unicode="v" glyph-name="v" horiz-adv-x="528" d="M27 494V523H122L270 123H272L413 523H501V494L316 0H217L27 494Z" />
<glyph unicode="w" glyph-name="w" horiz-adv-x="756" d="M29 493V523H124L229 145H231L345 523H425L538 145H540L644 523H727V493L583 0H492L380 374H378L264 0H174L29 493Z" />
<glyph unicode="x" glyph-name="x" horiz-adv-x="515" d="M31 30L189 268L38 493V523H133L261 328L379 523H463V493L323 273L483 30V0H389L250 215L117 0H31V30Z" />
<glyph unicode="y" glyph-name="y" horiz-adv-x="526" d="M151 -133L223 30L27 495V523H123L272 156H273L412 523H500V495L239 -162H151V-133Z" />
<glyph unicode="z" glyph-name="z" horiz-adv-x="477" d="M37 75L329 448H55V523H443V448L150 76H436V0H37V75Z" />
<glyph unicode="{" glyph-name="braceleft" horiz-adv-x="344" d="M109 260Q109 283 95 299T52 316H27V388H52Q81 388 95 404T109 445V619Q109 741 237 741H311V669H250Q229 669 218 655T206 620V449Q206 411 188 388T131 354V352Q170 341 188 318T206 256V73Q206
52 217 38T250 23H311V-49H237Q173 -49 141 -18T109 74V260Z" />
<glyph unicode="|" glyph-name="bar" horiz-adv-x="195" d="M138 -49H56V741H138V-49Z" />
<glyph unicode="}" glyph-name="braceright" horiz-adv-x="344" d="M235 74Q235 14 204 -17T108 -49H33V23H93Q114 23 126 37T139 73V256Q139 294 156 317T214 352V354Q174 365 157 388T139 449V620Q139 641 127 655T93 669H33V741H108Q235 741 235 619V445Q235
421 248 405T292 388H316V316H292Q262 316 249 300T235 260V74Z" />
<glyph unicode="~" glyph-name="asciitilde" horiz-adv-x="368" d="M27 259Q35 297 59 323T122 350Q140 350 157 345T190 334T218 323T241 318Q268 318 277 354H340V320Q332 281 308 255T245 229Q228 229 212 234T180 245T151 256T127 261Q99 261 90 224H27V259Z" />
</font>
</defs>
</svg>
