<?xml version="1.0" encoding="utf-8"?>
<!DOCTYPE svg PUBLIC "-//W3C//DTD SVG 1.1//EN" "http://www.w3.org/Graphics/SVG/1.1/DTD/svg11.dtd">
<svg version="1.1" id="Layer_1" xmlns="http://www.w3.org/2000/svg" xmlns:xlink="http://www.w3.org/1999/xlink" x="0px" y="0px" width="500px" height="496.5px" viewBox="0 0 500 496.5" enable-background="new 0 0 500 496.5" xml:space="preserve" preserveAspectRatio="none">

	<defs>
		<filter id="dropshadow" height="130%">
		  <feGaussianBlur in="SourceAlpha" stdDeviation="3"/> <!-- stdDeviation is how much to blur -->
			<feOffset dx="2" dy="2" result="offsetblur"/> <!-- how much to offset -->
			<feMerge> 
			  <feMergeNode/> <!-- this contains the offset blurred image -->
			  <feMergeNode in="SourceGraphic"/> <!-- this contains the element that the filter is applied to -->
		   </feMerge>
		</filter>

		<linearGradient id="grad" gradientUnits="userSpaceOnUse" x1="104.8108" y1="438.0603" x2="500.8107" y2="42.0604">
			<stop  offset="0" style="stop-color:#005A78"/>
			<stop  offset="1" style="stop-color:#00B4EB"/>
		</linearGradient>
	</defs>

	<g opacity="0.8" style="filter:url(#dropshadow)">
		<path fill="url(#grad)" d="M491.72,473.77c0,5.5-4.47,9.52-9.94,8.94L52.15,436.87c-5.47-0.58-9.96-5.56-9.99-11.06 L41.33,79.72c-0.02-5.5,4.41-10.64,9.85-11.42L481.81,6.4c5.44-0.78,9.9,3.08,9.9,8.58L491.72,473.77L491.72,473.77z"/>
	</g>

	<g opacity="0.8" >
		<path fill="url(#grad)" d="M347.48,468.63c0,5.5-4.47,9.52-9.94,8.94L18.2,443.5c-5.47-0.58-9.96-5.56-9.99-11.06L7.6,136.65 c-0.02-5.5,4.41-10.64,9.85-11.42l320.13-46.01c5.44-0.78,9.9,3.08,9.9,8.58V468.63z"/>
	</g>

</svg>